<svg aria-roledescription="er" role="graphics-document document" viewBox="0 0 487.328125 280.203125" style="max-width: 100%;" xmlns="http://www.w3.org/2000/svg" width="100%" id="graph-div" height="100%" xmlns:xlink="http://www.w3.org/1999/xlink"><style>@import url("https://cdnjs.cloudflare.com/ajax/libs/font-awesome/6.4.0/css/all.min.css");'</style><style>#graph-div{font-family:"trebuchet ms",verdana,arial,sans-serif;font-size:16px;fill:#333;}#graph-div .error-icon{fill:#552222;}#graph-div .error-text{fill:#552222;stroke:#552222;}#graph-div .edge-thickness-normal{stroke-width:2px;}#graph-div .edge-thickness-thick{stroke-width:3.5px;}#graph-div .edge-pattern-solid{stroke-dasharray:0;}#graph-div .edge-pattern-dashed{stroke-dasharray:3;}#graph-div .edge-pattern-dotted{stroke-dasharray:2;}#graph-div .marker{fill:#333333;stroke:#333333;}#graph-div .marker.cross{stroke:#333333;}#graph-div svg{font-family:"trebuchet ms",verdana,arial,sans-serif;font-size:16px;}#graph-div .entityBox{fill:#ECECFF;stroke:#9370DB;}#graph-div .attributeBoxOdd{fill:#ffffff;stroke:#9370DB;}#graph-div .attributeBoxEven{fill:#f2f2f2;stroke:#9370DB;}#graph-div .relationshipLabelBox{fill:hsl(80, 100%, 96.2745098039%);opacity:0.7;background-color:hsl(80, 100%, 96.2745098039%);}#graph-div .relationshipLabelBox rect{opacity:0.5;}#graph-div .relationshipLine{stroke:#333333;}#graph-div .entityTitleText{text-anchor:middle;font-size:18px;fill:#333;}#graph-div #MD_PARENT_START{fill:#f5f5f5!important;stroke:#333333!important;stroke-width:1;}#graph-div #MD_PARENT_END{fill:#f5f5f5!important;stroke:#333333!important;stroke-width:1;}#graph-div :root{--mermaid-font-family:"trebuchet ms",verdana,arial,sans-serif;}</style><g></g><defs><marker orient="auto" markerHeight="240" markerWidth="190" refY="7" refX="0" id="MD_PARENT_START"><path d="M 18,7 L9,13 L1,7 L9,1 Z"></path></marker></defs><defs><marker orient="auto" markerHeight="28" markerWidth="20" refY="7" refX="19" id="MD_PARENT_END"><path d="M 18,7 L9,13 L1,7 L9,1 Z"></path></marker></defs><defs><marker orient="auto" markerHeight="18" markerWidth="18" refY="9" refX="0" id="ONLY_ONE_START"><path d="M9,0 L9,18 M15,0 L15,18" fill="none" stroke="gray"></path></marker></defs><defs><marker orient="auto" markerHeight="18" markerWidth="18" refY="9" refX="18" id="ONLY_ONE_END"><path d="M3,0 L3,18 M9,0 L9,18" fill="none" stroke="gray"></path></marker></defs><defs><marker orient="auto" markerHeight="18" markerWidth="30" refY="9" refX="0" id="ZERO_OR_ONE_START"><circle r="6" cy="9" cx="21" fill="white" stroke="gray"></circle><path d="M9,0 L9,18" fill="none" stroke="gray"></path></marker></defs><defs><marker orient="auto" markerHeight="18" markerWidth="30" refY="9" refX="30" id="ZERO_OR_ONE_END"><circle r="6" cy="9" cx="9" fill="white" stroke="gray"></circle><path d="M21,0 L21,18" fill="none" stroke="gray"></path></marker></defs><defs><marker orient="auto" markerHeight="36" markerWidth="45" refY="18" refX="18" id="ONE_OR_MORE_START"><path d="M0,18 Q 18,0 36,18 Q 18,36 0,18 M42,9 L42,27" fill="none" stroke="gray"></path></marker></defs><defs><marker orient="auto" markerHeight="36" markerWidth="45" refY="18" refX="27" id="ONE_OR_MORE_END"><path d="M3,9 L3,27 M9,18 Q27,0 45,18 Q27,36 9,18" fill="none" stroke="gray"></path></marker></defs><defs><marker orient="auto" markerHeight="36" markerWidth="57" refY="18" refX="18" id="ZERO_OR_MORE_START"><circle r="6" cy="18" cx="48" fill="white" stroke="gray"></circle><path d="M0,18 Q18,0 36,18 Q18,36 0,18" fill="none" stroke="gray"></path></marker></defs><defs><marker orient="auto" markerHeight="36" markerWidth="57" refY="18" refX="39" id="ZERO_OR_MORE_END"><circle r="6" cy="18" cx="9" fill="white" stroke="gray"></circle><path d="M21,18 Q39,0 57,18 Q39,36 21,18" fill="none" stroke="gray"></path></marker></defs><g transform="translate(20,20 )" id="entity-Users-8b6eb67b-f64b-5426-9c24-135a96b8b656"><rect height="240.203125" width="164.828125" y="0" x="0" class="er entityBox"></rect><text style="dominant-baseline: middle; text-anchor: middle; font-size: 12px;" transform="translate(82.4140625,11.9765625)" y="0" x="0" id="text-entity-Users-8b6eb67b-f64b-5426-9c24-135a96b8b656" class="er entityLabel">Users</text><rect height="21.625" width="56" y="23.953125" x="0" class="er attributeBoxOdd"></rect><text style="dominant-baseline: middle; font-size: 10.2px;" transform="translate(5,34.765625)" y="0" x="0" id="text-entity-Users-8b6eb67b-f64b-5426-9c24-135a96b8b656-attr-1-type" class="er entityLabel">string</text><rect height="21.625" width="108.828125" y="23.953125" x="56" class="er attributeBoxOdd"></rect><text style="dominant-baseline: middle; font-size: 10.2px;" transform="translate(61,34.765625)" y="0" x="0" id="text-entity-Users-8b6eb67b-f64b-5426-9c24-135a96b8b656-attr-1-name" class="er entityLabel">email</text><rect height="21.625" width="56" y="45.578125" x="0" class="er attributeBoxEven"></rect><text style="dominant-baseline: middle; font-size: 10.2px;" transform="translate(5,56.390625)" y="0" x="0" id="text-entity-Users-8b6eb67b-f64b-5426-9c24-135a96b8b656-attr-2-type" class="er entityLabel">string</text><rect height="21.625" width="108.828125" y="45.578125" x="56" class="er attributeBoxEven"></rect><text style="dominant-baseline: middle; font-size: 10.2px;" transform="translate(61,56.390625)" y="0" x="0" id="text-entity-Users-8b6eb67b-f64b-5426-9c24-135a96b8b656-attr-2-name" class="er entityLabel">name</text><rect height="21.625" width="56" y="67.203125" x="0" class="er attributeBoxOdd"></rect><text style="dominant-baseline: middle; font-size: 10.2px;" transform="translate(5,78.015625)" y="0" x="0" id="text-entity-Users-8b6eb67b-f64b-5426-9c24-135a96b8b656-attr-3-type" class="er entityLabel">string</text><rect height="21.625" width="108.828125" y="67.203125" x="56" class="er attributeBoxOdd"></rect><text style="dominant-baseline: middle; font-size: 10.2px;" transform="translate(61,78.015625)" y="0" x="0" id="text-entity-Users-8b6eb67b-f64b-5426-9c24-135a96b8b656-attr-3-name" class="er entityLabel">urlPhoto</text><rect height="21.625" width="56" y="88.828125" x="0" class="er attributeBoxEven"></rect><text style="dominant-baseline: middle; font-size: 10.2px;" transform="translate(5,99.640625)" y="0" x="0" id="text-entity-Users-8b6eb67b-f64b-5426-9c24-135a96b8b656-attr-4-type" class="er entityLabel">LocalTime</text><rect height="21.625" width="108.828125" y="88.828125" x="56" class="er attributeBoxEven"></rect><text style="dominant-baseline: middle; font-size: 10.2px;" transform="translate(61,99.640625)" y="0" x="0" id="text-entity-Users-8b6eb67b-f64b-5426-9c24-135a96b8b656-attr-4-name" class="er entityLabel">startWorkingTime</text><rect height="21.625" width="56" y="110.453125" x="0" class="er attributeBoxOdd"></rect><text style="dominant-baseline: middle; font-size: 10.2px;" transform="translate(5,121.265625)" y="0" x="0" id="text-entity-Users-8b6eb67b-f64b-5426-9c24-135a96b8b656-attr-5-type" class="er entityLabel">LocalTime</text><rect height="21.625" width="108.828125" y="110.453125" x="56" class="er attributeBoxOdd"></rect><text style="dominant-baseline: middle; font-size: 10.2px;" transform="translate(61,121.265625)" y="0" x="0" id="text-entity-Users-8b6eb67b-f64b-5426-9c24-135a96b8b656-attr-5-name" class="er entityLabel">endWorkingTime</text><rect height="21.625" width="56" y="132.078125" x="0" class="er attributeBoxEven"></rect><text style="dominant-baseline: middle; font-size: 10.2px;" transform="translate(5,142.890625)" y="0" x="0" id="text-entity-Users-8b6eb67b-f64b-5426-9c24-135a96b8b656-attr-6-type" class="er entityLabel">LocalTime</text><rect height="21.625" width="108.828125" y="132.078125" x="56" class="er attributeBoxEven"></rect><text style="dominant-baseline: middle; font-size: 10.2px;" transform="translate(61,142.890625)" y="0" x="0" id="text-entity-Users-8b6eb67b-f64b-5426-9c24-135a96b8b656-attr-6-name" class="er entityLabel">startLunchTime</text><rect height="21.625" width="56" y="153.703125" x="0" class="er attributeBoxOdd"></rect><text style="dominant-baseline: middle; font-size: 10.2px;" transform="translate(5,164.515625)" y="0" x="0" id="text-entity-Users-8b6eb67b-f64b-5426-9c24-135a96b8b656-attr-7-type" class="er entityLabel">LocalTime</text><rect height="21.625" width="108.828125" y="153.703125" x="56" class="er attributeBoxOdd"></rect><text style="dominant-baseline: middle; font-size: 10.2px;" transform="translate(61,164.515625)" y="0" x="0" id="text-entity-Users-8b6eb67b-f64b-5426-9c24-135a96b8b656-attr-7-name" class="er entityLabel">endLunchTime</text><rect height="21.625" width="56" y="175.328125" x="0" class="er attributeBoxEven"></rect><text style="dominant-baseline: middle; font-size: 10.2px;" transform="translate(5,186.140625)" y="0" x="0" id="text-entity-Users-8b6eb67b-f64b-5426-9c24-135a96b8b656-attr-8-type" class="er entityLabel">int</text><rect height="21.625" width="108.828125" y="175.328125" x="56" class="er attributeBoxEven"></rect><text style="dominant-baseline: middle; font-size: 10.2px;" transform="translate(61,186.140625)" y="0" x="0" id="text-entity-Users-8b6eb67b-f64b-5426-9c24-135a96b8b656-attr-8-name" class="er entityLabel">timeBetweenMeetings</text><rect height="21.625" width="56" y="196.953125" x="0" class="er attributeBoxOdd"></rect><text style="dominant-baseline: middle; font-size: 10.2px;" transform="translate(5,207.765625)" y="0" x="0" id="text-entity-Users-8b6eb67b-f64b-5426-9c24-135a96b8b656-attr-9-type" class="er entityLabel">string</text><rect height="21.625" width="108.828125" y="196.953125" x="56" class="er attributeBoxOdd"></rect><text style="dominant-baseline: middle; font-size: 10.2px;" transform="translate(61,207.765625)" y="0" x="0" id="text-entity-Users-8b6eb67b-f64b-5426-9c24-135a96b8b656-attr-9-name" class="er entityLabel">calendarId</text><rect height="21.625" width="56" y="218.578125" x="0" class="er attributeBoxEven"></rect><text style="dominant-baseline: middle; font-size: 10.2px;" transform="translate(5,229.390625)" y="0" x="0" id="text-entity-Users-8b6eb67b-f64b-5426-9c24-135a96b8b656-attr-10-type" class="er entityLabel">int</text><rect height="21.625" width="108.828125" y="218.578125" x="56" class="er attributeBoxEven"></rect><text style="dominant-baseline: middle; font-size: 10.2px;" transform="translate(61,229.390625)" y="0" x="0" id="text-entity-Users-8b6eb67b-f64b-5426-9c24-135a96b8b656-attr-10-name" class="er entityLabel">daysToAnalyze</text></g><g transform="translate(284.828125,63.25 )" id="entity-Googlecredential-7897bef6-2cad-59ed-aa29-b686af61a5fd"><rect height="153.703125" width="182.5" y="0" x="0" class="er entityBox"></rect><text style="dominant-baseline: middle; text-anchor: middle; font-size: 12px;" transform="translate(91.25,11.9765625)" y="0" x="0" id="text-entity-Googlecredential-7897bef6-2cad-59ed-aa29-b686af61a5fd" class="er entityLabel">Google_credential</text><rect height="21.625" width="40.953125" y="23.953125" x="0" class="er attributeBoxOdd"></rect><text style="dominant-baseline: middle; font-size: 10.2px;" transform="translate(5,34.765625)" y="0" x="0" id="text-entity-Googlecredential-7897bef6-2cad-59ed-aa29-b686af61a5fd-attr-1-type" class="er entityLabel">string</text><rect height="21.625" width="141.546875" y="23.953125" x="40.953125" class="er attributeBoxOdd"></rect><text style="dominant-baseline: middle; font-size: 10.2px;" transform="translate(45.953125,34.765625)" y="0" x="0" id="text-entity-Googlecredential-7897bef6-2cad-59ed-aa29-b686af61a5fd-attr-1-name" class="er entityLabel">key</text><rect height="21.625" width="40.953125" y="45.578125" x="0" class="er attributeBoxEven"></rect><text style="dominant-baseline: middle; font-size: 10.2px;" transform="translate(5,56.390625)" y="0" x="0" id="text-entity-Googlecredential-7897bef6-2cad-59ed-aa29-b686af61a5fd-attr-2-type" class="er entityLabel">string</text><rect height="21.625" width="141.546875" y="45.578125" x="40.953125" class="er attributeBoxEven"></rect><text style="dominant-baseline: middle; font-size: 10.2px;" transform="translate(45.953125,56.390625)" y="0" x="0" id="text-entity-Googlecredential-7897bef6-2cad-59ed-aa29-b686af61a5fd-attr-2-name" class="er entityLabel">access_token</text><rect height="21.625" width="40.953125" y="67.203125" x="0" class="er attributeBoxOdd"></rect><text style="dominant-baseline: middle; font-size: 10.2px;" transform="translate(5,78.015625)" y="0" x="0" id="text-entity-Googlecredential-7897bef6-2cad-59ed-aa29-b686af61a5fd-attr-3-type" class="er entityLabel">Long</text><rect height="21.625" width="141.546875" y="67.203125" x="40.953125" class="er attributeBoxOdd"></rect><text style="dominant-baseline: middle; font-size: 10.2px;" transform="translate(45.953125,78.015625)" y="0" x="0" id="text-entity-Googlecredential-7897bef6-2cad-59ed-aa29-b686af61a5fd-attr-3-name" class="er entityLabel">expiration_time_milliseconds</text><rect height="21.625" width="40.953125" y="88.828125" x="0" class="er attributeBoxEven"></rect><text style="dominant-baseline: middle; font-size: 10.2px;" transform="translate(5,99.640625)" y="0" x="0" id="text-entity-Googlecredential-7897bef6-2cad-59ed-aa29-b686af61a5fd-attr-4-type" class="er entityLabel">string</text><rect height="21.625" width="141.546875" y="88.828125" x="40.953125" class="er attributeBoxEven"></rect><text style="dominant-baseline: middle; font-size: 10.2px;" transform="translate(45.953125,99.640625)" y="0" x="0" id="text-entity-Googlecredential-7897bef6-2cad-59ed-aa29-b686af61a5fd-attr-4-name" class="er entityLabel">refresh_token</text><rect height="21.625" width="40.953125" y="110.453125" x="0" class="er attributeBoxOdd"></rect><text style="dominant-baseline: middle; font-size: 10.2px;" transform="translate(5,121.265625)" y="0" x="0" id="text-entity-Googlecredential-7897bef6-2cad-59ed-aa29-b686af61a5fd-attr-5-type" class="er entityLabel">Instant</text><rect height="21.625" width="141.546875" y="110.453125" x="40.953125" class="er attributeBoxOdd"></rect><text style="dominant-baseline: middle; font-size: 10.2px;" transform="translate(45.953125,121.265625)" y="0" x="0" id="text-entity-Googlecredential-7897bef6-2cad-59ed-aa29-b686af61a5fd-attr-5-name" class="er entityLabel">created_at</text><rect height="21.625" width="40.953125" y="132.078125" x="0" class="er attributeBoxEven"></rect><text style="dominant-baseline: middle; font-size: 10.2px;" transform="translate(5,142.890625)" y="0" x="0" id="text-entity-Googlecredential-7897bef6-2cad-59ed-aa29-b686af61a5fd-attr-6-type" class="er entityLabel">Instant</text><rect height="21.625" width="141.546875" y="132.078125" x="40.953125" class="er attributeBoxEven"></rect><text style="dominant-baseline: middle; font-size: 10.2px;" transform="translate(45.953125,142.890625)" y="0" x="0" id="text-entity-Googlecredential-7897bef6-2cad-59ed-aa29-b686af61a5fd-attr-6-name" class="er entityLabel">updated_at</text></g></svg>