<?xml version="1.0" encoding="UTF-8" standalone="no"?><svg xmlns="http://www.w3.org/2000/svg" xmlns:xlink="http://www.w3.org/1999/xlink" contentStyleType="text/css" height="605px" preserveAspectRatio="none" style="width:804px;height:605px;background:#FFFFFF;" version="1.1" viewBox="0 0 804 605" width="804px" zoomAndPan="magnify"><defs/><g><!--MD5=[335f4d9be48430461c68bf6d6fdba145]
class App--><g id="elem_App"><rect codeLine="1" fill="#F1F1F1" height="80.5938" id="App" rx="2.5" ry="2.5" style="stroke:#181818;stroke-width:0.5;" width="130" x="311.5" y="7"/><ellipse cx="358.75" cy="23" fill="#ADD1B2" rx="11" ry="11" style="stroke:#181818;stroke-width:1.0;"/><path d="M361.7188,28.6406 Q361.1406,28.9375 360.5,29.0781 Q359.8594,29.2344 359.1563,29.2344 Q356.6563,29.2344 355.3281,27.5938 Q354.0156,25.9375 354.0156,22.8125 Q354.0156,19.6875 355.3281,18.0313 Q356.6563,16.375 359.1563,16.375 Q359.8594,16.375 360.5,16.5313 Q361.1563,16.6875 361.7188,16.9844 L361.7188,19.7031 Q361.0938,19.125 360.5,18.8594 Q359.9063,18.5781 359.2813,18.5781 Q357.9375,18.5781 357.25,19.6563 Q356.5625,20.7188 356.5625,22.8125 Q356.5625,24.9063 357.25,25.9844 Q357.9375,27.0469 359.2813,27.0469 Q359.9063,27.0469 360.5,26.7813 Q361.0938,26.5 361.7188,25.9219 L361.7188,28.6406 Z " fill="#000000"/><text fill="#000000" font-family="sans-serif" font-size="14" lengthAdjust="spacing" textLength="27" x="379.25" y="27.8467">App</text><line style="stroke:#181818;stroke-width:0.5;" x1="312.5" x2="440.5" y1="39" y2="39"/><ellipse cx="322.5" cy="52.6484" fill="none" rx="3" ry="3" style="stroke:#038048;stroke-width:1.0;"/><text fill="#000000" font-family="sans-serif" font-size="14" lengthAdjust="spacing" textLength="104" x="331.5" y="55.9951">BrowserRouter</text><ellipse cx="322.5" cy="68.9453" fill="none" rx="3" ry="3" style="stroke:#038048;stroke-width:1.0;"/><text fill="#000000" font-family="sans-serif" font-size="14" lengthAdjust="spacing" textLength="50" x="331.5" y="72.292">Routes</text><line style="stroke:#181818;stroke-width:0.5;" x1="312.5" x2="440.5" y1="79.5938" y2="79.5938"/></g><!--MD5=[caebf2ddd0fe15aa1cd7c0f919e7d6a1]
class Layout--><g id="elem_Layout"><rect codeLine="6" fill="#F1F1F1" height="64.2969" id="Layout" rx="2.5" ry="2.5" style="stroke:#181818;stroke-width:0.5;" width="77" x="338" y="165"/><ellipse cx="353" cy="181" fill="#ADD1B2" rx="11" ry="11" style="stroke:#181818;stroke-width:1.0;"/><path d="M355.9688,186.6406 Q355.3906,186.9375 354.75,187.0781 Q354.1094,187.2344 353.4063,187.2344 Q350.9063,187.2344 349.5781,185.5938 Q348.2656,183.9375 348.2656,180.8125 Q348.2656,177.6875 349.5781,176.0313 Q350.9063,174.375 353.4063,174.375 Q354.1094,174.375 354.75,174.5313 Q355.4063,174.6875 355.9688,174.9844 L355.9688,177.7031 Q355.3438,177.125 354.75,176.8594 Q354.1563,176.5781 353.5313,176.5781 Q352.1875,176.5781 351.5,177.6563 Q350.8125,178.7188 350.8125,180.8125 Q350.8125,182.9063 351.5,183.9844 Q352.1875,185.0469 353.5313,185.0469 Q354.1563,185.0469 354.75,184.7813 Q355.3438,184.5 355.9688,183.9219 L355.9688,186.6406 Z " fill="#000000"/><text fill="#000000" font-family="sans-serif" font-size="14" lengthAdjust="spacing" textLength="45" x="367" y="185.8467">Layout</text><line style="stroke:#181818;stroke-width:0.5;" x1="339" x2="414" y1="197" y2="197"/><ellipse cx="349" cy="210.6484" fill="none" rx="3" ry="3" style="stroke:#038048;stroke-width:1.0;"/><text fill="#000000" font-family="sans-serif" font-size="14" lengthAdjust="spacing" textLength="42" x="358" y="213.9951">Outlet</text><line style="stroke:#181818;stroke-width:0.5;" x1="339" x2="414" y1="221.2969" y2="221.2969"/></g><!--MD5=[cad5f1f557e769656dcb5f846967bd8a]
class Landing--><g id="elem_Landing"><rect codeLine="10" fill="#F1F1F1" height="113.1875" id="Landing" rx="2.5" ry="2.5" style="stroke:#181818;stroke-width:0.5;" width="107" x="7" y="395.5"/><ellipse cx="31.45" cy="411.5" fill="#ADD1B2" rx="11" ry="11" style="stroke:#181818;stroke-width:1.0;"/><path d="M34.4188,417.1406 Q33.8406,417.4375 33.2,417.5781 Q32.5594,417.7344 31.8563,417.7344 Q29.3563,417.7344 28.0281,416.0938 Q26.7156,414.4375 26.7156,411.3125 Q26.7156,408.1875 28.0281,406.5313 Q29.3563,404.875 31.8563,404.875 Q32.5594,404.875 33.2,405.0313 Q33.8563,405.1875 34.4188,405.4844 L34.4188,408.2031 Q33.7938,407.625 33.2,407.3594 Q32.6063,407.0781 31.9813,407.0781 Q30.6375,407.0781 29.95,408.1563 Q29.2625,409.2188 29.2625,411.3125 Q29.2625,413.4063 29.95,414.4844 Q30.6375,415.5469 31.9813,415.5469 Q32.6063,415.5469 33.2,415.2813 Q33.7938,415 34.4188,414.4219 L34.4188,417.1406 Z " fill="#000000"/><text fill="#000000" font-family="sans-serif" font-size="14" lengthAdjust="spacing" textLength="54" x="47.55" y="416.3467">Landing</text><line style="stroke:#181818;stroke-width:0.5;" x1="8" x2="113" y1="427.5" y2="427.5"/><ellipse cx="18" cy="441.1484" fill="none" rx="3" ry="3" style="stroke:#038048;stroke-width:1.0;"/><text fill="#000000" font-family="sans-serif" font-size="14" lengthAdjust="spacing" textLength="26" x="27" y="444.4951">Box</text><ellipse cx="18" cy="457.4453" fill="none" rx="3" ry="3" style="stroke:#038048;stroke-width:1.0;"/><text fill="#000000" font-family="sans-serif" font-size="14" lengthAdjust="spacing" textLength="28" x="27" y="460.792">Grid</text><ellipse cx="18" cy="473.7422" fill="none" rx="3" ry="3" style="stroke:#038048;stroke-width:1.0;"/><text fill="#000000" font-family="sans-serif" font-size="14" lengthAdjust="spacing" textLength="67" x="27" y="477.0889">Container</text><ellipse cx="18" cy="490.0391" fill="none" rx="3" ry="3" style="stroke:#038048;stroke-width:1.0;"/><text fill="#000000" font-family="sans-serif" font-size="14" lengthAdjust="spacing" textLength="81" x="27" y="493.3857">Typography</text><line style="stroke:#181818;stroke-width:0.5;" x1="8" x2="113" y1="500.6875" y2="500.6875"/></g><!--MD5=[7dde244f1b93ccf44d7f9e836b89e039]
class UserProfile--><g id="elem_UserProfile"><rect codeLine="17" fill="#F1F1F1" height="292.4531" id="UserProfile" rx="2.5" ry="2.5" style="stroke:#181818;stroke-width:0.5;" width="139" x="149" y="306"/><ellipse cx="178.85" cy="322" fill="#ADD1B2" rx="11" ry="11" style="stroke:#181818;stroke-width:1.0;"/><path d="M181.8188,327.6406 Q181.2406,327.9375 180.6,328.0781 Q179.9594,328.2344 179.2563,328.2344 Q176.7563,328.2344 175.4281,326.5938 Q174.1156,324.9375 174.1156,321.8125 Q174.1156,318.6875 175.4281,317.0313 Q176.7563,315.375 179.2563,315.375 Q179.9594,315.375 180.6,315.5313 Q181.2563,315.6875 181.8188,315.9844 L181.8188,318.7031 Q181.1938,318.125 180.6,317.8594 Q180.0063,317.5781 179.3813,317.5781 Q178.0375,317.5781 177.35,318.6563 Q176.6625,319.7188 176.6625,321.8125 Q176.6625,323.9063 177.35,324.9844 Q178.0375,326.0469 179.3813,326.0469 Q180.0063,326.0469 180.6,325.7813 Q181.1938,325.5 181.8188,324.9219 L181.8188,327.6406 Z " fill="#000000"/><text fill="#000000" font-family="sans-serif" font-size="14" lengthAdjust="spacing" textLength="74" x="196.15" y="326.8467">UserProfile</text><line style="stroke:#181818;stroke-width:0.5;" x1="150" x2="287" y1="338" y2="338"/><ellipse cx="160" cy="351.6484" fill="none" rx="3" ry="3" style="stroke:#038048;stroke-width:1.0;"/><text fill="#000000" font-family="sans-serif" font-size="14" lengthAdjust="spacing" textLength="76" x="169" y="354.9951">TimePicker</text><ellipse cx="160" cy="367.9453" fill="none" rx="3" ry="3" style="stroke:#038048;stroke-width:1.0;"/><text fill="#000000" font-family="sans-serif" font-size="14" lengthAdjust="spacing" textLength="40" x="169" y="371.292">MDB*</text><ellipse cx="160" cy="384.2422" fill="none" rx="3" ry="3" style="stroke:#038048;stroke-width:1.0;"/><text fill="#000000" font-family="sans-serif" font-size="14" lengthAdjust="spacing" textLength="35" x="169" y="387.5889">dayjs</text><ellipse cx="160" cy="400.5391" fill="none" rx="3" ry="3" style="stroke:#038048;stroke-width:1.0;"/><text fill="#000000" font-family="sans-serif" font-size="14" lengthAdjust="spacing" textLength="35" x="169" y="403.8857">axios</text><ellipse cx="160" cy="416.8359" fill="none" rx="3" ry="3" style="stroke:#038048;stroke-width:1.0;"/><text fill="#000000" font-family="sans-serif" font-size="14" lengthAdjust="spacing" textLength="27" x="169" y="420.1826">Link</text><ellipse cx="160" cy="433.1328" fill="none" rx="3" ry="3" style="stroke:#038048;stroke-width:1.0;"/><text fill="#000000" font-family="sans-serif" font-size="14" lengthAdjust="spacing" textLength="85" x="169" y="436.4795">useNavigate</text><ellipse cx="160" cy="449.4297" fill="none" rx="3" ry="3" style="stroke:#038048;stroke-width:1.0;"/><text fill="#000000" font-family="sans-serif" font-size="14" lengthAdjust="spacing" textLength="31" x="169" y="452.7764">Alert</text><ellipse cx="160" cy="465.7266" fill="none" rx="3" ry="3" style="stroke:#038048;stroke-width:1.0;"/><text fill="#000000" font-family="sans-serif" font-size="14" lengthAdjust="spacing" textLength="113" x="169" y="469.0732">CircularProgress</text><ellipse cx="160" cy="482.0234" fill="none" rx="3" ry="3" style="stroke:#038048;stroke-width:1.0;"/><text fill="#000000" font-family="sans-serif" font-size="14" lengthAdjust="spacing" textLength="47" x="169" y="485.3701">Divider</text><ellipse cx="160" cy="498.3203" fill="none" rx="3" ry="3" style="stroke:#038048;stroke-width:1.0;"/><text fill="#000000" font-family="sans-serif" font-size="14" lengthAdjust="spacing" textLength="85" x="169" y="501.667">FormControl</text><ellipse cx="160" cy="514.6172" fill="none" rx="3" ry="3" style="stroke:#038048;stroke-width:1.0;"/><text fill="#000000" font-family="sans-serif" font-size="14" lengthAdjust="spacing" textLength="69" x="169" y="517.9639">MenuItem</text><ellipse cx="160" cy="530.9141" fill="none" rx="3" ry="3" style="stroke:#038048;stroke-width:1.0;"/><text fill="#000000" font-family="sans-serif" font-size="14" lengthAdjust="spacing" textLength="43" x="169" y="534.2607">Select</text><ellipse cx="160" cy="547.2109" fill="none" rx="3" ry="3" style="stroke:#038048;stroke-width:1.0;"/><text fill="#000000" font-family="sans-serif" font-size="14" lengthAdjust="spacing" textLength="64" x="169" y="550.5576">Snackbar</text><ellipse cx="160" cy="563.5078" fill="none" rx="3" ry="3" style="stroke:#038048;stroke-width:1.0;"/><text fill="#000000" font-family="sans-serif" font-size="14" lengthAdjust="spacing" textLength="62" x="169" y="566.8545">useState</text><ellipse cx="160" cy="579.8047" fill="none" rx="3" ry="3" style="stroke:#038048;stroke-width:1.0;"/><text fill="#000000" font-family="sans-serif" font-size="14" lengthAdjust="spacing" textLength="65" x="169" y="583.1514">useEffect</text><line style="stroke:#181818;stroke-width:0.5;" x1="150" x2="287" y1="590.4531" y2="590.4531"/></g><!--MD5=[1e45380c90959740d49d8a512f801749]
class Navbar--><g id="elem_Navbar"><rect codeLine="35" fill="#F1F1F1" height="178.375" id="Navbar" rx="2.5" ry="2.5" style="stroke:#181818;stroke-width:0.5;" width="107" x="323" y="363"/><ellipse cx="350.6" cy="379" fill="#ADD1B2" rx="11" ry="11" style="stroke:#181818;stroke-width:1.0;"/><path d="M353.5688,384.6406 Q352.9906,384.9375 352.35,385.0781 Q351.7094,385.2344 351.0063,385.2344 Q348.5063,385.2344 347.1781,383.5938 Q345.8656,381.9375 345.8656,378.8125 Q345.8656,375.6875 347.1781,374.0313 Q348.5063,372.375 351.0063,372.375 Q351.7094,372.375 352.35,372.5313 Q353.0063,372.6875 353.5688,372.9844 L353.5688,375.7031 Q352.9438,375.125 352.35,374.8594 Q351.7563,374.5781 351.1313,374.5781 Q349.7875,374.5781 349.1,375.6563 Q348.4125,376.7188 348.4125,378.8125 Q348.4125,380.9063 349.1,381.9844 Q349.7875,383.0469 351.1313,383.0469 Q351.7563,383.0469 352.35,382.7813 Q352.9438,382.5 353.5688,381.9219 L353.5688,384.6406 Z " fill="#000000"/><text fill="#000000" font-family="sans-serif" font-size="14" lengthAdjust="spacing" textLength="47" x="367.4" y="383.8467">Navbar</text><line style="stroke:#181818;stroke-width:0.5;" x1="324" x2="429" y1="395" y2="395"/><ellipse cx="334" cy="408.6484" fill="none" rx="3" ry="3" style="stroke:#038048;stroke-width:1.0;"/><text fill="#000000" font-family="sans-serif" font-size="14" lengthAdjust="spacing" textLength="47" x="343" y="411.9951">Button</text><ellipse cx="334" cy="424.9453" fill="none" rx="3" ry="3" style="stroke:#038048;stroke-width:1.0;"/><text fill="#000000" font-family="sans-serif" font-size="14" lengthAdjust="spacing" textLength="50" x="343" y="428.292">AppBar</text><ellipse cx="334" cy="441.2422" fill="none" rx="3" ry="3" style="stroke:#038048;stroke-width:1.0;"/><text fill="#000000" font-family="sans-serif" font-size="14" lengthAdjust="spacing" textLength="52" x="343" y="444.5889">Toolbar</text><ellipse cx="334" cy="457.5391" fill="none" rx="3" ry="3" style="stroke:#038048;stroke-width:1.0;"/><text fill="#000000" font-family="sans-serif" font-size="14" lengthAdjust="spacing" textLength="81" x="343" y="460.8857">Typography</text><ellipse cx="334" cy="473.8359" fill="none" rx="3" ry="3" style="stroke:#038048;stroke-width:1.0;"/><text fill="#000000" font-family="sans-serif" font-size="14" lengthAdjust="spacing" textLength="76" x="343" y="477.1826">IconButton</text><ellipse cx="334" cy="490.1328" fill="none" rx="3" ry="3" style="stroke:#038048;stroke-width:1.0;"/><text fill="#000000" font-family="sans-serif" font-size="14" lengthAdjust="spacing" textLength="68" x="343" y="493.4795">MenuIcon</text><ellipse cx="334" cy="506.4297" fill="none" rx="3" ry="3" style="stroke:#038048;stroke-width:1.0;"/><text fill="#000000" font-family="sans-serif" font-size="14" lengthAdjust="spacing" textLength="65" x="343" y="509.7764">useEffect</text><ellipse cx="334" cy="522.7266" fill="none" rx="3" ry="3" style="stroke:#038048;stroke-width:1.0;"/><text fill="#000000" font-family="sans-serif" font-size="14" lengthAdjust="spacing" textLength="62" x="343" y="526.0732">useState</text><line style="stroke:#181818;stroke-width:0.5;" x1="324" x2="429" y1="533.375" y2="533.375"/></g><!--MD5=[8f24c535c2b7c5f0c4b1a473df761b88]
class ErrorPage--><g id="elem_ErrorPage"><rect codeLine="46" fill="#F1F1F1" height="64.2969" id="ErrorPage" rx="2.5" ry="2.5" style="stroke:#181818;stroke-width:0.5;" width="107" x="465" y="420"/><ellipse cx="483.15" cy="436" fill="#ADD1B2" rx="11" ry="11" style="stroke:#181818;stroke-width:1.0;"/><path d="M486.1188,441.6406 Q485.5406,441.9375 484.9,442.0781 Q484.2594,442.2344 483.5563,442.2344 Q481.0563,442.2344 479.7281,440.5938 Q478.4156,438.9375 478.4156,435.8125 Q478.4156,432.6875 479.7281,431.0313 Q481.0563,429.375 483.5563,429.375 Q484.2594,429.375 484.9,429.5313 Q485.5563,429.6875 486.1188,429.9844 L486.1188,432.7031 Q485.4938,432.125 484.9,431.8594 Q484.3063,431.5781 483.6813,431.5781 Q482.3375,431.5781 481.65,432.6563 Q480.9625,433.7188 480.9625,435.8125 Q480.9625,437.9063 481.65,438.9844 Q482.3375,440.0469 483.6813,440.0469 Q484.3063,440.0469 484.9,439.7813 Q485.4938,439.5 486.1188,438.9219 L486.1188,441.6406 Z " fill="#000000"/><text fill="#000000" font-family="sans-serif" font-size="14" lengthAdjust="spacing" textLength="68" x="497.85" y="440.8467">ErrorPage</text><line style="stroke:#181818;stroke-width:0.5;" x1="466" x2="571" y1="452" y2="452"/><ellipse cx="476" cy="465.6484" fill="none" rx="3" ry="3" style="stroke:#038048;stroke-width:1.0;"/><text fill="#000000" font-family="sans-serif" font-size="14" lengthAdjust="spacing" textLength="81" x="485" y="468.9951">Typography</text><line style="stroke:#181818;stroke-width:0.5;" x1="466" x2="571" y1="476.2969" y2="476.2969"/></g><!--MD5=[afbccf9e47dab8cf24b9b8cac485a8f2]
class WorkHoursComponent--><g id="elem_WorkHoursComponent"><rect codeLine="50" fill="#F1F1F1" height="178.375" id="WorkHoursComponent" rx="2.5" ry="2.5" style="stroke:#181818;stroke-width:0.5;" width="190" x="607.5" y="363"/><ellipse cx="622.5" cy="379" fill="#ADD1B2" rx="11" ry="11" style="stroke:#181818;stroke-width:1.0;"/><path d="M625.4688,384.6406 Q624.8906,384.9375 624.25,385.0781 Q623.6094,385.2344 622.9063,385.2344 Q620.4063,385.2344 619.0781,383.5938 Q617.7656,381.9375 617.7656,378.8125 Q617.7656,375.6875 619.0781,374.0313 Q620.4063,372.375 622.9063,372.375 Q623.6094,372.375 624.25,372.5313 Q624.9063,372.6875 625.4688,372.9844 L625.4688,375.7031 Q624.8438,375.125 624.25,374.8594 Q623.6563,374.5781 623.0313,374.5781 Q621.6875,374.5781 621,375.6563 Q620.3125,376.7188 620.3125,378.8125 Q620.3125,380.9063 621,381.9844 Q621.6875,383.0469 623.0313,383.0469 Q623.6563,383.0469 624.25,382.7813 Q624.8438,382.5 625.4688,381.9219 L625.4688,384.6406 Z " fill="#000000"/><text fill="#000000" font-family="sans-serif" font-size="14" lengthAdjust="spacing" textLength="158" x="636.5" y="383.8467">WorkHoursComponent</text><line style="stroke:#181818;stroke-width:0.5;" x1="608.5" x2="796.5" y1="395" y2="395"/><ellipse cx="618.5" cy="408.6484" fill="none" rx="3" ry="3" style="stroke:#038048;stroke-width:1.0;"/><text fill="#000000" font-family="sans-serif" font-size="14" lengthAdjust="spacing" textLength="81" x="627.5" y="411.9951">Typography</text><ellipse cx="618.5" cy="424.9453" fill="none" rx="3" ry="3" style="stroke:#038048;stroke-width:1.0;"/><text fill="#000000" font-family="sans-serif" font-size="14" lengthAdjust="spacing" textLength="40" x="627.5" y="428.292">Paper</text><ellipse cx="618.5" cy="441.2422" fill="none" rx="3" ry="3" style="stroke:#038048;stroke-width:1.0;"/><text fill="#000000" font-family="sans-serif" font-size="14" lengthAdjust="spacing" textLength="35" x="627.5" y="444.5889">axios</text><ellipse cx="618.5" cy="457.5391" fill="none" rx="3" ry="3" style="stroke:#038048;stroke-width:1.0;"/><text fill="#000000" font-family="sans-serif" font-size="14" lengthAdjust="spacing" textLength="35" x="627.5" y="460.8857">dayjs</text><ellipse cx="618.5" cy="473.8359" fill="none" rx="3" ry="3" style="stroke:#038048;stroke-width:1.0;"/><text fill="#000000" font-family="sans-serif" font-size="14" lengthAdjust="spacing" textLength="65" x="627.5" y="477.1826">useEffect</text><ellipse cx="618.5" cy="490.1328" fill="none" rx="3" ry="3" style="stroke:#038048;stroke-width:1.0;"/><text fill="#000000" font-family="sans-serif" font-size="14" lengthAdjust="spacing" textLength="62" x="627.5" y="493.4795">useState</text><ellipse cx="618.5" cy="506.4297" fill="none" rx="3" ry="3" style="stroke:#038048;stroke-width:1.0;"/><text fill="#000000" font-family="sans-serif" font-size="14" lengthAdjust="spacing" textLength="113" x="627.5" y="509.7764">CircularProgress</text><ellipse cx="618.5" cy="522.7266" fill="none" rx="3" ry="3" style="stroke:#038048;stroke-width:1.0;"/><text fill="#000000" font-family="sans-serif" font-size="14" lengthAdjust="spacing" textLength="28" x="627.5" y="526.0732">Grid</text><line style="stroke:#181818;stroke-width:0.5;" x1="608.5" x2="796.5" y1="533.375" y2="533.375"/></g><!--MD5=[75a1e712f557f814a677bfc69e19a7a5]
link App to Layout--><g id="link_App_Layout"><path codeLine="61" d="M376.5,88.03 C376.5,110.31 376.5,137.94 376.5,159.67 " fill="none" id="App-to-Layout" style="stroke:#181818;stroke-width:1.0;"/><polygon fill="#181818" points="376.5,164.78,380.5,155.78,376.5,159.78,372.5,155.78,376.5,164.78" style="stroke:#181818;stroke-width:1.0;"/><text fill="#000000" font-family="sans-serif" font-size="13" lengthAdjust="spacing" textLength="32" x="377.5" y="131.0669">Uses</text></g><!--MD5=[a7dcb4ef07c86301e5602a25fde90cb1]
link Layout to Navbar--><g id="link_Layout_Navbar"><path codeLine="62" d="M376.5,229.02 C376.5,260.98 376.5,312.36 376.5,357.65 " fill="none" id="Layout-to-Navbar" style="stroke:#181818;stroke-width:1.0;"/><polygon fill="#181818" points="376.5,362.86,380.5,353.86,376.5,357.86,372.5,353.86,376.5,362.86" style="stroke:#181818;stroke-width:1.0;"/><text fill="#000000" font-family="sans-serif" font-size="13" lengthAdjust="spacing" textLength="32" x="377.5" y="272.0669">Uses</text></g><!--MD5=[670a81571de81ba43ee497568f45db82]
link Layout to Landing--><g id="link_Layout_Landing"><path codeLine="63" d="M337.86,206.22 C285.24,219.19 190.83,249 131.5,306 C107.52,329.04 90.52,361.86 79.18,390.46 " fill="none" id="Layout-to-Landing" style="stroke:#181818;stroke-width:1.0;"/><polygon fill="#181818" points="77.26,395.37,84.247,388.4286,79.0702,390.7092,76.7896,385.5324,77.26,395.37" style="stroke:#181818;stroke-width:1.0;"/><text fill="#000000" font-family="sans-serif" font-size="13" lengthAdjust="spacing" textLength="32" x="197.5" y="272.0669">Uses</text></g><!--MD5=[10dbb99e9e0487173dd22dd001e4f6ba]
link Layout to UserProfile--><g id="link_Layout_UserProfile"><path codeLine="64" d="M354.61,229.14 C348.05,238.66 340.89,249.2 334.5,259 C319.98,281.26 304.96,305.3 290.73,328.59 " fill="none" id="Layout-to-UserProfile" style="stroke:#181818;stroke-width:1.0;"/><polygon fill="#181818" points="288.08,332.93,296.1763,327.322,290.6797,328.659,289.3427,323.1624,288.08,332.93" style="stroke:#181818;stroke-width:1.0;"/><text fill="#000000" font-family="sans-serif" font-size="13" lengthAdjust="spacing" textLength="32" x="335.5" y="272.0669">Uses</text></g><!--MD5=[8b32ece4a27de92c74e45ba5e8a92e28]
link Layout to WorkHoursComponent--><g id="link_Layout_WorkHoursComponent"><path codeLine="65" d="M415.24,211.66 C460.36,228.85 535.58,261.58 589.5,306 C607.82,321.09 625.04,339.65 640.24,358.39 " fill="none" id="Layout-to-WorkHoursComponent" style="stroke:#181818;stroke-width:1.0;"/><polygon fill="#181818" points="643.65,362.65,641.1385,353.1268,640.5213,358.7498,634.8982,358.1327,643.65,362.65" style="stroke:#181818;stroke-width:1.0;"/><text fill="#000000" font-family="sans-serif" font-size="13" lengthAdjust="spacing" textLength="32" x="548.5" y="272.0669">Uses</text></g><!--MD5=[e2e277c5b71f289481ae9e82a60b1428]
link Layout to ErrorPage--><g id="link_Layout_ErrorPage"><path codeLine="66" d="M398.39,229.14 C404.95,238.66 412.11,249.2 418.5,259 C431.91,279.56 435.64,284.51 447.5,306 C467.61,342.46 488.29,385.43 502.11,415.08 " fill="none" id="Layout-to-ErrorPage" style="stroke:#181818;stroke-width:1.0;"/><polygon fill="#181818" points="504.26,419.72,504.1026,409.8724,502.1565,415.184,496.845,413.2379,504.26,419.72" style="stroke:#181818;stroke-width:1.0;"/><text fill="#000000" font-family="sans-serif" font-size="13" lengthAdjust="spacing" textLength="32" x="431.5" y="272.0669">Uses</text></g><!--MD5=[92893de3316214a60d4072240d0d187e]
@startuml
class App {
  +BrowserRouter
  +Routes
}

class Layout {
  +Outlet
}

class Landing {
  +Box
  +Grid
  +Container
  +Typography
}

class UserProfile {
  +TimePicker
  +MDB*
  +dayjs
  +axios
  +Link
  +useNavigate
  +Alert
  +CircularProgress
  +Divider
  +FormControl
  +MenuItem
  +Select
  +Snackbar
  +useState
  +useEffect
}

class Navbar {
  +Button
  +AppBar
  +Toolbar
  +Typography
  +IconButton
  +MenuIcon
  +useEffect
  +useState
}

class ErrorPage {
  +Typography
}

class WorkHoursComponent {
  +Typography
  +Paper
  +axios
  +dayjs
  +useEffect
  +useState
  +CircularProgress
  +Grid
}

App - -> Layout: Uses
Layout - -> Navbar: Uses
Layout - -> Landing: Uses
Layout - -> UserProfile: Uses
Layout - -> WorkHoursComponent: Uses
Layout - -> ErrorPage: Uses
@enduml

PlantUML version 1.2022.7(Mon Aug 22 17:01:30 UTC 2022)
(GPL source distribution)
Java Runtime: OpenJDK Runtime Environment
JVM: OpenJDK 64-Bit Server VM
Default Encoding: UTF-8
Language: en
Country: null
--></g></svg>