<?xml version="1.0" encoding="UTF-8" standalone="no"?><svg xmlns="http://www.w3.org/2000/svg" xmlns:xlink="http://www.w3.org/1999/xlink" contentStyleType="text/css" height="939px" preserveAspectRatio="none" style="width:1287px;height:939px;background:#FFFFFF;" version="1.1" viewBox="0 0 1287 939" width="1287px" zoomAndPan="magnify"><defs/><g><!--MD5=[52bd4819656a6938484a4a042299c7b0]
cluster GitHub--><g id="cluster_GitHub"><path d="M388.3376,153.9728 C392.4879,144.6263 399.2501,145.1078 405.3808,151.8786 C409.6189,140.8554 415.5455,140.8072 423.7276,147.88 C428.1688,138.7704 436.3521,137.7462 442.6409,145.8499 C447.1616,136.8146 452.5941,134.3439 460.6634,142.0238 C467.493,135.1388 475.6337,135.9553 479.6039,145.3505 C485.2576,137.9379 492.0088,138.1823 496.198,146.8608 C502.9701,136.9934 511.847,139.2379 515.6363,149.7112 C528.7397,140.9618 535.1253,144.8807 538,159.5 C539.1565,159.7846 539.3982,160.5505 538.6779,161.4782 C545.3656,164.2356 545.8351,169.9395 540.5669,174.4393 C548.6701,177.9093 547.8842,184.4713 541.4359,188.8206 C550.1166,192.5067 551.1086,200.1355 543.2758,205.6291 C551.8066,208.2445 551.8843,212.9981 547.0012,219.2755 C554.1563,223.0758 553.1574,229.1311 547.5417,233.4193 C555.8861,238.5553 554.4672,243.4775 547.6707,248.741 C555.4054,251.791 555.1944,257.6206 549.1295,262.1697 C556.6224,266.4133 556.1849,274.3697 549.0208,278.5158 C555.1872,283.9925 555.4392,289.5914 547.7515,293.9272 C552.779,298.8685 552.815,304.4513 545.2333,306.9554 C550.8809,311.5752 551.8036,316.2475 545.3123,320.9358 C551.9258,325.8823 550.2939,332.5107 543.2131,335.4807 C550.7166,340.5504 549.2933,347.3185 542.415,351.6796 C547.0571,362.5194 544.5572,371.1416 531,371.5 C531.2811,371.1299 531.6064,371.1327 531.8554,371.5356 C527.5364,380.4035 522.0953,380.434 515.0099,374.7345 C510.2198,384.1651 504.0218,385.3976 497.1394,376.8097 C491.3558,384.7584 485.0035,386.8584 478.8591,377.1839 C476.1777,385.6254 467.8798,387.4613 461.6144,381.4644 C453.4645,390.1066 446.9488,388.6726 442.9195,377.564 C436.6853,385.6056 429.896,385.988 425.2004,376.0478 C418.3148,383.3762 412.3782,383.0712 407.4023,373.9779 C393.9402,383.4983 384.6655,380.4121 380,364.5 C380.6113,364.3772 380.9519,364.767 380.7037,365.3531 C372.46,360.4152 370.7453,354.6415 379.4749,348.4683 C372.1311,342.6466 370.7843,337.158 379.9447,331.8014 C369.7196,326.309 371.8019,319.9506 378.9473,313.5109 C371.7696,309.0465 369.4808,303.6969 377.0471,297.4844 C367.4856,293.1129 367.72,287.0439 374.0829,279.9763 C365.3261,274.4429 366.172,267.8345 374.9148,263.1672 C365.6006,258.247 367.4436,249.9187 375.199,245.2695 C367.8393,240.0268 370.0712,232.9695 377.8237,230.3933 C368.9474,224.1325 370.3596,218.1607 378.0418,212.0973 C371.7785,205.1396 370.436,199.5087 380.2613,194.5906 C371.3684,188.8681 373.7727,182.9827 380.9553,177.9298 C371.7679,168.1555 372.1627,156.5636 387,152.5 C388.2053,152.2269 388.7174,152.8063 388.3376,153.9728 " fill="none" style="stroke:#181818;stroke-width:1.0;"/><text fill="#000000" font-family="sans-serif" font-size="14" font-weight="bold" lengthAdjust="spacing" textLength="53" x="432.5" y="170.4951">GitHub</text></g><!--MD5=[ee5e8230e68e644357958932f455d434]
cluster Azure--><g id="cluster_Azure"><path d="M234.786,449.941 C250.5629,433.1632 264.4063,431.1999 275.3598,454.7891 C287.7895,433.4266 302.142,436.2714 315.2872,454.0594 C324.5398,439.5152 334.0162,437.6477 345.9322,451.1493 C358.7549,428.3272 371.8063,432.6512 386.6249,449.0801 C399.9172,432.4457 414.4778,432.9676 424.9061,452.1419 C435.4829,437.1564 450.8485,434.5019 460.3533,453.2678 C469.171,434.9501 484.9618,432.6055 496.8633,450.1261 C509.619,428.8617 525.6256,430.8446 536.5408,451.8536 C546.0608,435.4432 561.0957,430.9128 573.8099,448.3349 C585.7696,430.5955 602.4286,437.0154 608.8238,453.9533 C619.4032,435.1913 636.0899,433.4528 646.5883,454.031 C658.1672,438.7012 668.5935,433.223 682.24,451.8609 C692.2789,434.4282 706.8175,434.9026 718.9067,449.5148 C734.5675,430.4471 752.5661,437.153 762,456.5 C763.5066,457.3564 763.8309,459.0696 762.2,460.1004 C783.0793,469.2837 781.096,486.1823 764.0149,497.2215 C782.9051,504.4094 784.8932,520.1671 767.2571,530.874 C786.5602,539.8567 784.9027,557.6768 769.7528,568.9195 C783.2677,578.19 783.5873,592.1809 769.7037,601.41 C785.8605,614.7008 786.8623,627.6493 770.0845,641.2548 C785.9667,648.8776 790.9066,664.2673 774.5308,676.0162 C790.6613,687.3084 791.9236,706.6931 772.412,716.1013 C789.8503,728.3765 789.196,744.3933 768.2114,752.1972 C781.5381,761.8431 783.5864,775.0851 767.853,784.4076 C787.7299,797.9804 787.3777,809.5068 766.5237,821.6246 C786.7014,833.7772 788.0543,845.3865 768.0392,859.1618 C784.0244,876.1494 777.8565,893.7229 755,897.5 C759.2142,895.6849 762.5253,897.9768 761.3086,902.7223 C747.9972,919.9398 733.7545,921.4549 721.5946,901.4923 C712.4437,920.7343 696.26,918.8544 686.0439,902.5579 C676.7901,921.4029 660.6656,924.8782 646.0264,908.7136 C634.5584,926.1943 622.7185,923.9006 611.4665,908.4867 C601.2857,927.7075 583.7134,925.9734 573.6474,908.3688 C562.4032,929.442 548.0706,928.8755 535.5089,909.6146 C523.8924,931.7819 509.2769,932.1158 495.1608,911.9997 C485.8288,927.7817 470.9151,927.5285 463.4631,910.2 C452.446,930.8141 433.9875,930.9761 421.9809,911.2168 C410.9936,924.732 399.9647,926.6005 389.4345,910.7108 C375.7946,925.1746 356.8094,922.0402 348.7602,903.7649 C337.3929,924.2005 322.8696,925.3336 309.4584,905.7734 C298.5716,922.2363 281.9385,921.3827 273.8833,902.8915 C256.1461,921.004 232.4565,918.8515 227,890.5 C229.9235,888.4611 231.9598,889.174 233.3672,892.3508 C220.2539,882.9166 215.4161,871.6321 232.1043,860.9974 C214.1067,851.1733 210.4062,837.5158 228.9666,824.5449 C211.624,814.0619 204.9641,798.8061 225.1721,784.7433 C210.1083,774.3287 210.8122,759.9876 227.9334,752.3134 C207.9836,743.4023 205.4624,722.9623 223.9455,710.3949 C208.8687,700.8562 205.3945,688.58 221.2665,676.5887 C203.6932,664.4578 202.1382,653.3223 220.5286,640.4569 C203.9391,626.092 205.5691,615.9859 225.5275,607.0977 C206.674,597.2828 206.2263,580.2739 224.0781,569.0604 C210.3617,553.0108 207.7866,540.2618 231.0519,530.9857 C212.4292,521.1716 210.5946,503.4055 230.4912,493.0225 C208.9732,477.3437 209.0546,461.4329 234,449.5 C234.4659,449.2105 234.7751,449.4194 234.786,449.941 " fill="none" style="stroke:#181818;stroke-width:1.0;"/><text fill="#000000" font-family="sans-serif" font-size="14" font-weight="bold" lengthAdjust="spacing" textLength="47" x="471" y="467.4951">Azure</text></g><!--MD5=[0a57376e33250f12f67129bb619458ed]
cluster Azure App Service--><g id="cluster_Azure App Service"><rect fill="none" height="169" rx="2.5" ry="2.5" style="stroke:#181818;stroke-width:1.0;" width="503" x="243" y="484.5"/><path d="M400,484.5 L400,493.7969 L390,503.7969 L243,503.7969 " fill="none" style="stroke:#181818;stroke-width:1.0;"/><text fill="#000000" font-family="sans-serif" font-size="14" font-weight="bold" lengthAdjust="spacing" textLength="147" x="246" y="498.4951">Azure App Service</text></g><!--MD5=[a77ac56f4ce9e3c5c04ee0c241b8b9b5]
cluster Frontend Server--><g id="cluster_Frontend Server"><polygon fill="none" points="267,537.5,277,527.5,473,527.5,473,619.5,463,629.5,267,629.5,267,537.5" style="stroke:#181818;stroke-width:1.0;"/><line style="stroke:#181818;stroke-width:1.0;" x1="463" x2="473" y1="537.5" y2="527.5"/><line style="stroke:#181818;stroke-width:1.0;" x1="267" x2="463" y1="537.5" y2="537.5"/><line style="stroke:#181818;stroke-width:1.0;" x1="463" x2="463" y1="537.5" y2="629.5"/><text fill="#000000" font-family="sans-serif" font-size="14" font-weight="bold" lengthAdjust="spacing" textLength="130" x="301" y="553.4951">Frontend Server</text></g><!--MD5=[437559a01da21cffe2336829742af2ce]
cluster Backend Server--><g id="cluster_Backend Server"><polygon fill="none" points="521,537.5,531,527.5,722,527.5,722,619.5,712,629.5,521,629.5,521,537.5" style="stroke:#181818;stroke-width:1.0;"/><line style="stroke:#181818;stroke-width:1.0;" x1="712" x2="722" y1="537.5" y2="527.5"/><line style="stroke:#181818;stroke-width:1.0;" x1="521" x2="712" y1="537.5" y2="537.5"/><line style="stroke:#181818;stroke-width:1.0;" x1="712" x2="712" y1="537.5" y2="629.5"/><text fill="#000000" font-family="sans-serif" font-size="14" font-weight="bold" lengthAdjust="spacing" textLength="125" x="555" y="553.4951">Backend Server</text></g><!--MD5=[9068deaaffab2e6e894cc5f563d263da]
cluster Azure Database--><g id="cluster_Azure Database"><rect fill="none" height="179" rx="2.5" ry="2.5" style="stroke:#181818;stroke-width:1.0;" width="209" x="530" y="702.5"/><path d="M665,702.5 L665,711.7969 L655,721.7969 L530,721.7969 " fill="none" style="stroke:#181818;stroke-width:1.0;"/><text fill="#000000" font-family="sans-serif" font-size="14" font-weight="bold" lengthAdjust="spacing" textLength="125" x="533" y="716.4951">Azure Database</text></g><!--MD5=[de73d43fbb44e1bcb91c6ab8f8cb0a2c]
cluster PostgreSQL Azure--><g id="cluster_PostgreSQL Azure"><path d="M554,755.5 C554,745.5 634.5,745.5 634.5,745.5 C634.5,745.5 715,745.5 715,755.5 L715,847.5 C715,857.5 634.5,857.5 634.5,857.5 C634.5,857.5 554,857.5 554,847.5 L554,755.5 " fill="none" style="stroke:#181818;stroke-width:1.0;"/><path d="M554,755.5 C554,765.5 634.5,765.5 634.5,765.5 C634.5,765.5 715,765.5 715,755.5 " fill="none" style="stroke:#181818;stroke-width:1.0;"/><text fill="#000000" font-family="sans-serif" font-size="14" font-weight="bold" lengthAdjust="spacing" textLength="145" x="562" y="780.4951">PostgreSQL Azure</text></g><!--MD5=[b96bc1d3d386c6dae3bd429f510de499]
cluster Client Device--><g id="cluster_Client Device"><polygon fill="none" points="16,537.5,26,527.5,195,527.5,195,619.5,185,629.5,16,629.5,16,537.5" style="stroke:#181818;stroke-width:1.0;"/><line style="stroke:#181818;stroke-width:1.0;" x1="185" x2="195" y1="537.5" y2="527.5"/><line style="stroke:#181818;stroke-width:1.0;" x1="16" x2="185" y1="537.5" y2="537.5"/><line style="stroke:#181818;stroke-width:1.0;" x1="185" x2="185" y1="537.5" y2="629.5"/><text fill="#000000" font-family="sans-serif" font-size="14" font-weight="bold" lengthAdjust="spacing" textLength="103" x="50" y="553.4951">Client Device</text></g><!--MD5=[d8316a3a20985ad52be733acd3826c13]
cluster Google API--><g id="cluster_Google API"><path d="M802.8751,773.0051 C814.318,753.453 828.3521,755.0018 840.0342,772.7669 C846.8584,758.9813 859.2188,760.1858 867.7607,770.8164 C877.5441,754.5254 887.411,756.6011 898.976,768.8691 C911.4829,752.7986 925.1775,754.8698 936.0037,770.8129 C943.839,753.693 958.1368,755.4513 967.8075,768.9036 C976.2711,752.4406 986.896,754.747 997.7858,766.3081 C1011.3669,749.4972 1022.422,750.2597 1033.2129,769.082 C1042.0796,752.6706 1054.6432,755.5471 1064.5873,767.9072 C1074.9816,754.0303 1084.9861,753.982 1093.9281,769.3636 C1103.0373,755.2105 1116.4901,754.1956 1124.6331,770.3427 C1133.7267,756.119 1150.0158,753.8279 1157.3933,772.0742 C1167.8674,753.9295 1180.639,751.1098 1193.2651,769.9892 C1201.732,754.8793 1216.5174,757.2614 1223.7073,771.3219 C1232.9278,758.9741 1248.069,757.5529 1254.9128,773.9059 C1272.1989,784.0896 1277.1624,798.2688 1260.091,813.0029 C1280.7686,828.704 1277.5119,843.4345 1256.1028,855.1535 C1245.3623,872.5243 1232.1851,869.9653 1221.6261,854.9602 C1215.0554,869.89 1200.2301,869.7261 1191.7483,857.0269 C1182.4432,876.002 1167.4418,873.7231 1157.1666,857.9936 C1147.2228,871.5125 1135.9801,867.1184 1129.1204,854.6634 C1121.1094,871.4986 1106.651,870.9083 1096.0331,857.5171 C1084.0998,871.3383 1073.171,871.4225 1061.538,857.1484 C1053.8182,873.9474 1038.979,876.3374 1029.173,859.1341 C1020.0619,872.3094 1005.9245,873.9017 998.6032,857.2968 C991.0403,872.8177 974.5481,877.3299 963.6379,860.9677 C954.3535,873.3322 940.2733,871.9374 934.6383,857.08 C922.9887,873.3917 908.3932,873.9157 899.3515,854.504 C890.8008,865.2259 878.8694,868.7094 871.6372,853.1154 C862.8659,869.1624 847.2027,866.6814 839.4868,852.0109 C828.1562,866.0084 818.0054,866.1839 806.2482,852.5236 C781.6201,848.8391 775.549,833.7869 791.7695,814.534 C775.4879,797.5001 781.238,779.8988 802.8751,773.0051 " fill="none" style="stroke:#181818;stroke-width:1.0;"/><text fill="#000000" font-family="sans-serif" font-size="14" font-weight="bold" lengthAdjust="spacing" textLength="86" x="984.5" y="786.4951">Google API</text></g><!--MD5=[5a6510bf2334eeb52d5338cda214feff]
entity GitHub Actions--><g id="elem_GitHub Actions"><rect fill="#F1F1F1" height="46.2969" rx="2.5" ry="2.5" style="stroke:#181818;stroke-width:0.5;" width="142" x="388" y="317.5"/><rect fill="#F1F1F1" height="10" style="stroke:#181818;stroke-width:0.5;" width="15" x="510" y="322.5"/><rect fill="#F1F1F1" height="2" style="stroke:#181818;stroke-width:0.5;" width="4" x="508" y="324.5"/><rect fill="#F1F1F1" height="2" style="stroke:#181818;stroke-width:0.5;" width="4" x="508" y="328.5"/><text fill="#000000" font-family="sans-serif" font-size="14" lengthAdjust="spacing" textLength="102" x="403" y="350.4951">GitHub Actions</text></g><!--MD5=[e2e374f2603797e2d14300e0266cc5cc]
entity Git Repository--><g id="elem_Git Repository"><rect fill="#F1F1F1" height="46.2969" rx="2.5" ry="2.5" style="stroke:#181818;stroke-width:0.5;" width="137" x="388.5" y="179.5"/><rect fill="#F1F1F1" height="10" style="stroke:#181818;stroke-width:0.5;" width="15" x="505.5" y="184.5"/><rect fill="#F1F1F1" height="2" style="stroke:#181818;stroke-width:0.5;" width="4" x="503.5" y="186.5"/><rect fill="#F1F1F1" height="2" style="stroke:#181818;stroke-width:0.5;" width="4" x="503.5" y="190.5"/><text fill="#000000" font-family="sans-serif" font-size="14" lengthAdjust="spacing" textLength="97" x="403.5" y="212.4951">Git Repository</text></g><!--MD5=[aba54388207c971a0ef242c7ca468292]
entity Frontend App--><g id="elem_Frontend App"><rect fill="#F1F1F1" height="46.2969" rx="2.5" ry="2.5" style="stroke:#181818;stroke-width:0.5;" width="134" x="283" y="567.5"/><rect fill="#F1F1F1" height="10" style="stroke:#181818;stroke-width:0.5;" width="15" x="397" y="572.5"/><rect fill="#F1F1F1" height="2" style="stroke:#181818;stroke-width:0.5;" width="4" x="395" y="574.5"/><rect fill="#F1F1F1" height="2" style="stroke:#181818;stroke-width:0.5;" width="4" x="395" y="578.5"/><text fill="#000000" font-family="sans-serif" font-size="14" lengthAdjust="spacing" textLength="94" x="298" y="600.4951">Frontend App</text></g><!--MD5=[5fba5ec91102bd438126616cc50160c8]
entity Backend App--><g id="elem_Backend App"><rect fill="#F1F1F1" height="46.2969" rx="2.5" ry="2.5" style="stroke:#181818;stroke-width:0.5;" width="132" x="574" y="567.5"/><rect fill="#F1F1F1" height="10" style="stroke:#181818;stroke-width:0.5;" width="15" x="686" y="572.5"/><rect fill="#F1F1F1" height="2" style="stroke:#181818;stroke-width:0.5;" width="4" x="684" y="574.5"/><rect fill="#F1F1F1" height="2" style="stroke:#181818;stroke-width:0.5;" width="4" x="684" y="578.5"/><text fill="#000000" font-family="sans-serif" font-size="14" lengthAdjust="spacing" textLength="92" x="589" y="600.4951">Backend App</text></g><!--MD5=[fa1e3283224feb76407c84b7e90ed808]
entity Database--><g id="elem_Database"><rect fill="#F1F1F1" height="46.2969" rx="2.5" ry="2.5" style="stroke:#181818;stroke-width:0.5;" width="106" x="586" y="795.5"/><rect fill="#F1F1F1" height="10" style="stroke:#181818;stroke-width:0.5;" width="15" x="672" y="800.5"/><rect fill="#F1F1F1" height="2" style="stroke:#181818;stroke-width:0.5;" width="4" x="670" y="802.5"/><rect fill="#F1F1F1" height="2" style="stroke:#181818;stroke-width:0.5;" width="4" x="670" y="806.5"/><text fill="#000000" font-family="sans-serif" font-size="14" lengthAdjust="spacing" textLength="66" x="601" y="828.4951">Database</text></g><!--MD5=[0605153d46e66a1141daee4f82280783]
entity Web Browser--><g id="elem_Web Browser"><rect fill="#F1F1F1" height="46.2969" rx="2.5" ry="2.5" style="stroke:#181818;stroke-width:0.5;" width="132" x="47" y="567.5"/><rect fill="#F1F1F1" height="10" style="stroke:#181818;stroke-width:0.5;" width="15" x="159" y="572.5"/><rect fill="#F1F1F1" height="2" style="stroke:#181818;stroke-width:0.5;" width="4" x="157" y="574.5"/><rect fill="#F1F1F1" height="2" style="stroke:#181818;stroke-width:0.5;" width="4" x="157" y="578.5"/><text fill="#000000" font-family="sans-serif" font-size="14" lengthAdjust="spacing" textLength="92" x="62" y="600.4951">Web Browser</text></g><!--MD5=[754c57d6fc7f3380bfb9e184414b3675]
entity Google Authentication API--><g id="elem_Google Authentication API"><rect fill="#F1F1F1" height="46.2969" rx="2.5" ry="2.5" style="stroke:#181818;stroke-width:0.5;" width="219" x="810.5" y="795.5"/><rect fill="#F1F1F1" height="10" style="stroke:#181818;stroke-width:0.5;" width="15" x="1009.5" y="800.5"/><rect fill="#F1F1F1" height="2" style="stroke:#181818;stroke-width:0.5;" width="4" x="1007.5" y="802.5"/><rect fill="#F1F1F1" height="2" style="stroke:#181818;stroke-width:0.5;" width="4" x="1007.5" y="806.5"/><text fill="#000000" font-family="sans-serif" font-size="14" lengthAdjust="spacing" textLength="179" x="825.5" y="828.4951">Google Authentication API</text></g><!--MD5=[374e5ea76b93efbf0bf72f8996142439]
entity Google Calendar API--><g id="elem_Google Calendar API"><rect fill="#F1F1F1" height="46.2969" rx="2.5" ry="2.5" style="stroke:#181818;stroke-width:0.5;" width="180" x="1065" y="795.5"/><rect fill="#F1F1F1" height="10" style="stroke:#181818;stroke-width:0.5;" width="15" x="1225" y="800.5"/><rect fill="#F1F1F1" height="2" style="stroke:#181818;stroke-width:0.5;" width="4" x="1223" y="802.5"/><rect fill="#F1F1F1" height="2" style="stroke:#181818;stroke-width:0.5;" width="4" x="1223" y="806.5"/><text fill="#000000" font-family="sans-serif" font-size="14" lengthAdjust="spacing" textLength="140" x="1080" y="828.4951">Google Calendar API</text></g><!--MD5=[fee662a292a0353a69bd162820bae93b]
entity User--><g id="elem_User"><ellipse cx="113" cy="311" fill="#F1F1F1" rx="8" ry="8" style="stroke:#181818;stroke-width:0.5;"/><path d="M113,319 L113,346 M100,327 L126,327 M113,346 L100,361 M113,346 L126,361 " fill="none" style="stroke:#181818;stroke-width:0.5;"/><text fill="#000000" font-family="sans-serif" font-size="14" lengthAdjust="spacing" textLength="32" x="97" y="375.4951">User</text></g><!--MD5=[5e3db4307508cb484f1c82708c851416]
entity Dev_team--><g id="elem_Dev_team"><ellipse cx="457" cy="14" fill="#F1F1F1" rx="8" ry="8" style="stroke:#181818;stroke-width:0.5;"/><path d="M457,22 L457,49 M444,30 L470,30 M457,49 L444,64 M457,49 L470,64 " fill="none" style="stroke:#181818;stroke-width:0.5;"/><text fill="#000000" font-family="sans-serif" font-size="14" lengthAdjust="spacing" textLength="132" x="391" y="78.4951">Development team</text></g><!--MD5=[03a8db9f48f47b0aa932dae17cce17ff]
link Dev_team to Git Repository--><g id="link_Dev_team_Git Repository"><path d="M457,81.71 C457,109.98 457,148.25 457,173.85 " fill="none" id="Dev_team-to-Git Repository" style="stroke:#181818;stroke-width:1.0;"/><polygon fill="#181818" points="457,179.11,461,170.11,457,174.11,453,170.11,457,179.11" style="stroke:#181818;stroke-width:1.0;"/><text fill="#000000" font-family="sans-serif" font-size="13" lengthAdjust="spacing" textLength="87" x="458" y="124.5669">Uploads code</text></g><!--MD5=[aa1dc192991ae072f3de5304d4c5e491]
link Git Repository to GitHub Actions--><g id="link_Git Repository_GitHub Actions"><path d="M457.33,225.65 C457.67,249.26 458.22,286.68 458.6,312.12 " fill="none" id="Git Repository-to-GitHub Actions" style="stroke:#181818;stroke-width:1.0;"/><polygon fill="#181818" points="458.67,317.36,462.541,308.3038,458.5986,312.3605,454.5418,308.4181,458.67,317.36" style="stroke:#181818;stroke-width:1.0;"/><text fill="#000000" font-family="sans-serif" font-size="13" lengthAdjust="spacing" textLength="83" x="459" y="268.5669">Trigger CI/CD</text></g><!--MD5=[44e00d6281f25e269178fcd6e880df56]
link User to Web Browser--><g id="link_User_Web Browser"><path d="M113,378.63 C113,428.88 113,517.38 113,562.06 " fill="none" id="User-to-Web Browser" style="stroke:#181818;stroke-width:1.0;"/><polygon fill="#181818" points="113,567.28,117,558.28,113,562.28,109,558.28,113,567.28" style="stroke:#181818;stroke-width:1.0;"/><text fill="#000000" font-family="sans-serif" font-size="13" lengthAdjust="spacing" textLength="32" x="114" y="421.5669">Uses</text></g><!--MD5=[aa706d834b03dbebface86e47274e87b]
link Web Browser to Frontend App--><g id="link_Web Browser_Frontend App"><path d="M179.02,590.5 C209.57,590.5 245.96,590.5 277.3,590.5 " fill="none" id="Web Browser-to-Frontend App" style="stroke:#181818;stroke-width:1.0;"/><polygon fill="#181818" points="282.69,590.5,273.69,586.5,277.69,590.5,273.69,594.5,282.69,590.5" style="stroke:#181818;stroke-width:1.0;"/><text fill="#000000" font-family="sans-serif" font-size="13" lengthAdjust="spacing" textLength="60" x="201" y="583.5669">Accesses</text></g><!--MD5=[20c661d86ee9df6f63194094f86c1c16]
link GitHub Actions to Frontend App--><g id="link_GitHub Actions_Frontend App"><path d="M449.33,363.51 C429.34,408.99 383.54,513.19 361.83,562.58 " fill="none" id="GitHub Actions-to-Frontend App" style="stroke:#181818;stroke-width:1.0;"/><polygon fill="#181818" points="359.81,567.18,367.0994,560.5569,361.8261,562.6045,359.7785,557.3312,359.81,567.18" style="stroke:#181818;stroke-width:1.0;"/><text fill="#000000" font-family="sans-serif" font-size="13" lengthAdjust="spacing" textLength="107" x="427" y="421.5669">Build and Deploy</text></g><!--MD5=[094cf0bc63806f5da41a133b2b819d7a]
link GitHub Actions to Backend App--><g id="link_GitHub Actions_Backend App"><path d="M492.8,363.58 C509.32,375.51 528.67,391.3 543,408.5 C583.52,457.12 614.49,525.35 629.67,562.61 " fill="none" id="GitHub Actions-to-Backend App" style="stroke:#181818;stroke-width:1.0;"/><polygon fill="#181818" points="631.62,567.44,631.9653,557.5972,629.7508,562.8026,624.5454,560.588,631.62,567.44" style="stroke:#181818;stroke-width:1.0;"/><text fill="#000000" font-family="sans-serif" font-size="13" lengthAdjust="spacing" textLength="107" x="554" y="421.5669">Build and Deploy</text></g><!--MD5=[1022f76cc6d202c8a4e9b95ddc8616b6]
link Backend App to Database--><g id="link_Backend App_Database"><path d="M638.56,613.68 C637.62,629.28 636.48,650.66 636,669.5 C634.92,711.58 636.45,760.41 637.69,790.11 " fill="none" id="Backend App-to-Database" style="stroke:#181818;stroke-width:1.0;"/><polygon fill="#181818" points="637.92,795.43,641.531,786.267,637.7059,790.4346,633.5383,786.6095,637.92,795.43" style="stroke:#181818;stroke-width:1.0;"/><text fill="#000000" font-family="sans-serif" font-size="13" lengthAdjust="spacing" textLength="77" x="637" y="682.5669">Connects to</text></g><!--MD5=[f7c411cbc0d71af22713534735e7103d]
link Frontend App to Backend App--><g id="link_Frontend App_Backend App"><path d="M417.26,590.5 C462.53,590.5 522.16,590.5 568.33,590.5 " fill="none" id="Frontend App-to-Backend App" style="stroke:#181818;stroke-width:1.0;"/><polygon fill="#181818" points="573.6,590.5,564.6,586.5,568.6,590.5,564.6,594.5,573.6,590.5" style="stroke:#181818;stroke-width:1.0;"/><text fill="#000000" font-family="sans-serif" font-size="13" lengthAdjust="spacing" textLength="120" x="435.5" y="583.5669">Sends Requests to</text></g><!--MD5=[f27ee390a2a8d71c3e012d26564d1db7]
link Frontend App to Google Authentication API--><g id="link_Frontend App_Google Authentication API"><path d="M402.36,613.6 C443.79,629.98 503.53,651.19 558,661.5 C593.2,668.16 685.25,657.48 719,669.5 C738.05,676.28 836.16,751.84 887.92,792.29 " fill="none" id="Frontend App-to-Google Authentication API" style="stroke:#181818;stroke-width:1.0;"/><polygon fill="#181818" points="891.87,795.37,887.2434,786.6755,887.931,792.2904,882.316,792.9779,891.87,795.37" style="stroke:#181818;stroke-width:1.0;"/><text fill="#000000" font-family="sans-serif" font-size="13" lengthAdjust="spacing" textLength="120" x="746" y="682.5669">Sends Requests to</text></g><!--MD5=[27d3593422aeecf1cb7204c5dec1fa00]
link Backend App to Google Authentication API--><g id="link_Backend App_Google Authentication API"><path d="M706.15,595.86 C760.47,602.98 835.59,621.5 881,669.5 C912.2,702.48 919.13,757.36 920.28,790.22 " fill="none" id="Backend App-to-Google Authentication API" style="stroke:#181818;stroke-width:1.0;"/><polygon fill="#181818" points="920.42,795.3,924.1613,786.1894,920.2772,790.302,916.1646,786.4179,920.42,795.3" style="stroke:#181818;stroke-width:1.0;"/><text fill="#000000" font-family="sans-serif" font-size="13" lengthAdjust="spacing" textLength="120" x="894" y="682.5669">Sends Requests to</text></g><!--MD5=[d3c9887490471cbce382bbb48f977412]
link Backend App to Google Calendar API--><g id="link_Backend App_Google Calendar API"><path d="M706.07,593.13 C785.81,597.67 921.8,613.77 1023,669.5 C1075.68,698.51 1117.92,756.82 1139.44,790.95 " fill="none" id="Backend App-to-Google Calendar API" style="stroke:#181818;stroke-width:1.0;"/><polygon fill="#181818" points="1142.22,795.4,1140.842,785.648,1139.57,791.16,1134.058,789.888,1142.22,795.4" style="stroke:#181818;stroke-width:1.0;"/><text fill="#000000" font-family="sans-serif" font-size="13" lengthAdjust="spacing" textLength="120" x="1046" y="682.5669">Sends Requests to</text></g><!--MD5=[45f07dc1d55325a54aac0f9b49573a1d]
@startuml
cloud "GitHub" {
  [GitHub Actions]
  [Git Repository]
}

cloud "Azure" {
frame "Azure App Service" {
  node "Frontend Server" {
  [Frontend App]

    }
  node "Backend Server" {
  [Backend App]

    }
}
  frame "Azure Database" {
    database "PostgreSQL Azure" {
  [Database]
}
    }
}

node "Client Device" {
  [Web Browser]
}


cloud "Google API" {
  [Google Authentication API]
  [Google Calendar API]
}

actor User
actor :Development team: as Dev_team

Dev_team - -> [Git Repository] : Uploads code
[Git Repository] - -> [GitHub Actions] : Trigger CI/CD

User - -> [Web Browser] : Uses
[Web Browser] -> [Frontend App] : Accesses

[GitHub Actions] - -> [Frontend App] : Build and Deploy
[GitHub Actions] - -> [Backend App] : Build and Deploy

[Backend App] - -> [Database] : Connects to
[Frontend App] -> [Backend App] : Sends Requests to

[Frontend App] - -> [Google Authentication API] : Sends Requests to
[Backend App] - -> [Google Authentication API] : Sends Requests to
[Backend App] - -> [Google Calendar API] : Sends Requests to
@enduml

PlantUML version 1.2022.7(Mon Aug 22 17:01:30 UTC 2022)
(GPL source distribution)
Java Runtime: OpenJDK Runtime Environment
JVM: OpenJDK 64-Bit Server VM
Default Encoding: UTF-8
Language: en
Country: null
--></g></svg>