<svg version="1.1" xmlns="http://www.w3.org/2000/svg" viewBox="0 0 2402.9888509681246 909.0946034632111" width="4805.977701936249" height="1818.1892069264222">
  <!-- svg-source:excalidraw -->
  
  <defs>
    <style class="style-fonts">
      @font-face {
        font-family: "Virgil";
        src: url("https://excalidraw.com/Virgil.woff2");
      }
      @font-face {
        font-family: "Cascadia";
        src: url("https://excalidraw.com/Cascadia.woff2");
      }
    </style>
  </defs>
  <rect x="0" y="0" width="2402.9888509681246" height="909.0946034632111" fill="#ffffff"></rect><g stroke-linecap="round" transform="translate(820.7541776404607 291.7226134744832) rotate(0 126.5 101)"><path d="M32 0 M32 0 C70.33 0.2, 113.13 -0.4, 221 0 M32 0 C107.16 0.14, 181 -0.08, 221 0 M221 0 C242.54 -0.47, 253.27 9.64, 253 32 M221 0 C240.41 0.06, 253.4 11.54, 253 32 M253 32 C254.2 72.21, 252.65 108.1, 253 170 M253 32 C253.01 64.6, 252.88 94.64, 253 170 M253 170 C254.71 189.88, 241.07 200.18, 221 202 M253 170 C254.73 189.87, 243.49 200, 221 202 M221 202 C176.77 200.29, 129.37 200.33, 32 202 M221 202 C169.62 201.47, 116.66 200.83, 32 202 M32 202 C12.19 203, -0.54 190.68, 0 170 M32 202 C8.73 203.73, 0.6 189.22, 0 170 M0 170 C0.59 125.81, -2.38 81.09, 0 32 M0 170 C-0.94 136.36, -0.11 102.64, 0 32 M0 32 C1.53 12.54, 8.72 -1.92, 32 0 M0 32 C-1.28 11.56, 8.81 -0.16, 32 0" stroke="#000000" stroke-width="1" fill="none"></path></g><g transform="translate(873.7241864905584 370.2226134744832) rotate(0 73.52999114990234 22.5)"><text x="73.52999114990234" y="0" font-family="Virgil, Segoe UI Emoji" font-size="36px" fill="#000000" text-anchor="middle" style="white-space: pre;" direction="ltr" dominant-baseline="text-before-edge">frontend</text></g><g stroke-linecap="round" transform="translate(1553.401783409378 292.04112677108446) rotate(0 112.33026398077197 92.58187886157178)"><path d="M32 0 M32 0 C85.16 1.44, 142.55 0.59, 192.66 0 M32 0 C76.69 0.73, 122.75 1.36, 192.66 0 M192.66 0 C214.11 0.18, 223.62 11.04, 224.66 32 M192.66 0 C212.08 0.07, 225.88 12.25, 224.66 32 M224.66 32 C227.25 61.25, 225.54 91.13, 224.66 153.16 M224.66 32 C224.83 61.89, 226.05 91.21, 224.66 153.16 M224.66 153.16 C224.94 174.08, 213.36 184.61, 192.66 185.16 M224.66 153.16 C224.4 173.02, 214.56 184.49, 192.66 185.16 M192.66 185.16 C156.16 186.26, 117.28 183.27, 32 185.16 M192.66 185.16 C135.62 184.64, 78.1 184.88, 32 185.16 M32 185.16 C11.87 185.6, 1.09 175.61, 0 153.16 M32 185.16 C10.13 185.92, 0.24 173.96, 0 153.16 M0 153.16 C0.68 115.51, 1.38 76.79, 0 32 M0 153.16 C1.45 122.79, -0.03 91.41, 0 32 M0 32 C-0.25 11.83, 11.03 1.74, 32 0 M0 32 C0.12 8.8, 12.63 -1.67, 32 0" stroke="#000000" stroke-width="1" fill="none"></path></g><g transform="translate(1606.1978564316641 364.7623865664896) rotate(0 59.53419095848574 19.860619066166578)"><text x="59.53419095848568" y="0" font-family="Virgil, Segoe UI Emoji" font-size="31.776990505866543px" fill="#000000" text-anchor="middle" style="white-space: pre;" direction="ltr" dominant-baseline="text-before-edge">backend</text></g><g stroke-linecap="round" transform="translate(10 221.72129395333292) rotate(0 228.11702446043614 162.3719271558768)"><path d="M286.25 40.75 M286.25 40.75 C326.08 69.99, 365.91 96.5, 398.98 122.25 M286.25 40.75 C330.99 72.3, 374.72 103.99, 398.98 122.25 M398.98 122.25 C455.59 161.67, 455.15 162.56, 398.98 203.75 M398.98 122.25 C456.05 162.75, 457.32 163.31, 398.98 203.75 M398.98 203.75 C356.68 232.17, 315.87 263.66, 286.25 283.99 M398.98 203.75 C362.4 230.7, 325.2 256.88, 286.25 283.99 M286.25 283.99 C230.51 324.85, 229.29 326.4, 171.75 283.99 M286.25 283.99 C227.9 326.54, 231.21 326.47, 171.75 283.99 M171.75 283.99 C146.63 266.45, 118.6 245.13, 57.25 203.75 M171.75 283.99 C139.52 262.87, 107.88 239.39, 57.25 203.75 M57.25 203.75 C-0.11 163.77, 0.54 161.34, 57.25 122.25 M57.25 203.75 C0.72 161.22, -2.2 160.81, 57.25 122.25 M57.25 122.25 C89.39 99.04, 121.74 74.56, 171.75 40.75 M57.25 122.25 C99.39 93.4, 143.56 63.08, 171.75 40.75 M171.75 40.75 C228.18 0.68, 228.88 1.44, 286.25 40.75 M171.75 40.75 C228.05 0.3, 228.06 -2.25, 286.25 40.75" stroke="#000000" stroke-width="1" fill="none"></path></g><g transform="translate(182.35850765258135 307.90725753127134) rotate(0 55.70000457763672 12.5)"><text x="55.70000457763672" y="0" font-family="Virgil, Segoe UI Emoji" font-size="20px" fill="#000000" text-anchor="middle" style="white-space: pre;" direction="ltr" dominant-baseline="text-before-edge">Google API</text></g><g mask="url(#mask-GQ_gXapzwQNiWV4TxocVI)" stroke-linecap="round"><g transform="translate(816.3247837120311 359.08045844633534) rotate(0 -215.49308445319957 -16.269942281569868)"><path d="M-1.15 -1.09 C-72.9 -6.33, -358.62 -26.56, -430.25 -31.92 M0.45 0.96 C-71.53 -4.56, -359.93 -27.99, -431.44 -33.5" stroke="#000000" stroke-width="1" fill="none"></path></g><g transform="translate(816.3247837120311 359.08045844633534) rotate(0 -215.49308445319957 -16.269942281569868)"><path d="M-404.33 -42.25 C-410.17 -41.06, -421.71 -34.93, -429.69 -34.9 M-402.23 -40.84 C-409.14 -38.83, -417.37 -37.52, -432.11 -34.02" stroke="#000000" stroke-width="1" fill="none"></path></g><g transform="translate(816.3247837120311 359.08045844633534) rotate(0 -215.49308445319957 -16.269942281569868)"><path d="M-405.96 -21.8 C-411.19 -27.19, -422.21 -27.66, -429.69 -34.9 M-403.85 -20.38 C-410.19 -23.56, -418.01 -27.43, -432.11 -34.02" stroke="#000000" stroke-width="1" fill="none"></path></g></g><mask id="mask-GQ_gXapzwQNiWV4TxocVI"><rect x="0" y="0" fill="#fff" width="1346.1201019609448" height="492.02825553050207"></rect><rect x="455.22712763933214" y="330.10655990425204" fill="#000" width="292.3999938964844" height="25" opacity="1"></rect></mask><g transform="translate(455.22712763933214 330.106559904252) rotate(0 145.6045716194995 12.703956260513493)"><text x="146.1999969482422" y="0" font-family="Virgil, Segoe UI Emoji" font-size="20px" fill="#000000" text-anchor="middle" style="white-space: pre;" direction="ltr" dominant-baseline="text-before-edge">1. Asks user basic credentials</text></g><g mask="url(#mask-6krBDX0QG1cFZXUsmUxsN)" stroke-linecap="round"><g transform="translate(411.41836430565513 432.0370619485913) rotate(0 201.1727017595628 -5.526031364950711)"><path d="M1.1 -0.23 C68.3 -1.93, 335.55 -9.37, 402.12 -10.82 M0.22 -1.4 C67.44 -2.93, 335.13 -8.3, 401.67 -9.88" stroke="#000000" stroke-width="1" fill="none"></path></g><g transform="translate(411.41836430565513 432.0370619485913) rotate(0 201.1727017595628 -5.526031364950711)"><path d="M373.32 2.57 C377.73 -2.61, 386.72 -2.92, 401.37 -8.05 M373.95 1.05 C384.31 -3.53, 394.08 -7.12, 402.52 -9.97" stroke="#000000" stroke-width="1" fill="none"></path></g><g transform="translate(411.41836430565513 432.0370619485913) rotate(0 201.1727017595628 -5.526031364950711)"><path d="M372.87 -17.95 C377.27 -18.83, 386.35 -14.84, 401.37 -8.05 M373.5 -19.47 C383.96 -16.74, 393.89 -13.03, 402.52 -9.97" stroke="#000000" stroke-width="1" fill="none"></path></g></g><mask id="mask-6krBDX0QG1cFZXUsmUxsN"><rect x="0" y="0" fill="#fff" width="912.5953636472789" height="541.715635606319"></rect><rect x="474.01685848330294" y="402.19777511972745" fill="#000" width="275.9800109863281" height="50" opacity="1"></rect></mask><g transform="translate(474.0168584833029 402.19777511972757) rotate(0 138.574207581915 24.313255463913094)"><text x="137.99000549316406" y="0" font-family="Virgil, Segoe UI Emoji" font-size="20px" fill="#000000" text-anchor="middle" style="white-space: pre;" direction="ltr" dominant-baseline="text-before-edge">2. Responds with email and </text><text x="137.99000549316406" y="25" font-family="Virgil, Segoe UI Emoji" font-size="20px" fill="#000000" text-anchor="middle" style="white-space: pre;" direction="ltr" dominant-baseline="text-before-edge">basic data</text></g><g mask="url(#mask-FPKr7Ke2f_010OOyDhljz)" stroke-linecap="round"><g transform="translate(1069.847042618977 306.0624348401149) rotate(0 242.05430389053163 2.5356282493460895)"><path d="M0.84 -0.61 C81.11 0.14, 401.78 3.54, 482.08 4.12 M-0.17 1.69 C80.42 2.67, 403.98 5.35, 484.28 5.68" stroke="#000000" stroke-width="1" fill="none"></path></g><g transform="translate(1069.847042618977 306.0624348401149) rotate(0 242.05430389053163 2.5356282493460895)"><path d="M455.01 14.13 C465.68 11.45, 473.25 7.19, 482.35 6.33 M455.95 15.85 C466.61 12.3, 477.57 7.64, 484.94 6.38" stroke="#000000" stroke-width="1" fill="none"></path></g><g transform="translate(1069.847042618977 306.0624348401149) rotate(0 242.05430389053163 2.5356282493460895)"><path d="M455.15 -6.39 C465.71 -2.11, 473.24 0.58, 482.35 6.33 M456.08 -4.67 C466.61 -0.1, 477.52 3.34, 484.94 6.38" stroke="#000000" stroke-width="1" fill="none"></path></g></g><mask id="mask-FPKr7Ke2f_010OOyDhljz"><rect x="0" y="0" fill="#fff" width="1652.901278720317" height="410.15432501165543"></rect><rect x="1231.2141646369323" y="295.6083799258852" fill="#000" width="160.3199920654297" height="25" opacity="1"></rect></mask><g transform="translate(1231.214164636932 295.6083799258852) rotate(0 80.68718187257639 12.989683163575833)"><text x="80.15999603271484" y="0" font-family="Virgil, Segoe UI Emoji" font-size="20px" fill="#000000" text-anchor="middle" style="white-space: pre;" direction="ltr" dominant-baseline="text-before-edge">3. Pass idToken</text></g><g stroke-linecap="round" transform="translate(2192.8433074930936 229.75932389894749) rotate(0 100.07277173751561 28.592220496433086)"><path d="M58.9 2.16 C70.75 0.03, 87.59 0.19, 102.23 0.26 C116.86 0.33, 133.69 0.61, 146.71 2.58 C159.73 4.54, 171.7 8.78, 180.35 12.03 C189 15.29, 195.72 18.01, 198.59 22.1 C201.45 26.2, 201.35 32.5, 197.57 36.61 C193.78 40.71, 185.4 43.66, 175.86 46.73 C166.33 49.81, 153.6 53.43, 140.38 55.06 C127.16 56.69, 110.79 56.65, 96.52 56.51 C82.25 56.37, 67.53 55.95, 54.77 54.22 C42.02 52.5, 28.84 49.44, 19.97 46.15 C11.09 42.85, 4.34 38.52, 1.53 34.46 C-1.27 30.4, -0.59 25.83, 3.15 21.8 C6.9 17.77, 12.49 13.87, 24 10.28 C35.51 6.7, 61.97 1.84, 72.21 0.29 C82.45 -1.25, 85.14 0.45, 85.44 1.03 M107.04 0.49 C120.68 0.34, 136.93 3.11, 149.4 4.88 C161.88 6.64, 173.51 7.72, 181.9 11.08 C190.28 14.44, 197.46 20.7, 199.71 25.04 C201.96 29.38, 199.72 33.29, 195.4 37.12 C191.08 40.94, 183.41 45.16, 173.79 48 C164.18 50.84, 151.28 52.87, 137.71 54.16 C124.13 55.45, 106.85 55.8, 92.33 55.74 C77.81 55.67, 62.86 55.44, 50.6 53.78 C38.34 52.12, 26.94 49.5, 18.76 45.78 C10.58 42.05, 4.14 35.76, 1.52 31.44 C-1.11 27.11, -1.24 23.76, 3 19.83 C7.24 15.91, 16.77 10.81, 26.97 7.89 C37.17 4.96, 51 3.43, 64.21 2.3 C77.42 1.18, 99.22 1.39, 106.21 1.12 C113.21 0.85, 106.02 0.56, 106.19 0.69" stroke="#000000" stroke-width="1" fill="none"></path></g><g stroke-linecap="round" transform="translate(2195.3295875362614 235.97502400686773) rotate(0 96.96492168355564 115.6120220073164)"><path d="M32 0 M32 0 C70.35 -0.93, 110.41 1.43, 161.93 0 M32 0 C81.09 -1.25, 131.89 -0.08, 161.93 0 M161.93 0 C181.54 1.14, 194.34 9.11, 193.93 32 M161.93 0 C184.86 -1.61, 193.99 11.49, 193.93 32 M193.93 32 C194 68.4, 195.63 108.04, 193.93 199.22 M193.93 32 C193.78 65.55, 192.25 100.91, 193.93 199.22 M193.93 199.22 C195.52 221.61, 181.41 233.01, 161.93 231.22 M193.93 199.22 C192.68 221.74, 182.99 233.48, 161.93 231.22 M161.93 231.22 C129.17 228.68, 94.38 228.21, 32 231.22 M161.93 231.22 C132.48 230.05, 105.04 229.37, 32 231.22 M32 231.22 C11.21 231.89, 1.34 220.03, 0 199.22 M32 231.22 C9.67 231.29, 1.45 218.52, 0 199.22 M0 199.22 C-0.9 157.12, 1.67 115.96, 0 32 M0 199.22 C-1.44 162.85, -1.01 125.19, 0 32 M0 32 C1.64 10.98, 8.87 0.47, 32 0 M0 32 C0.93 12.34, 11.45 -1.96, 32 0" stroke="#000000" stroke-width="1" fill="none"></path></g><g transform="translate(2235.1645043370045 326.5870460141841) rotate(0 57.1300048828125 25)"><text x="57.1300048828125" y="0" font-family="Virgil, Segoe UI Emoji" font-size="20px" fill="#000000" text-anchor="middle" style="white-space: pre;" direction="ltr" dominant-baseline="text-before-edge">PostgreSQL</text><text x="57.1300048828125" y="25" font-family="Virgil, Segoe UI Emoji" font-size="20px" fill="#000000" text-anchor="middle" style="white-space: pre;" direction="ltr" dominant-baseline="text-before-edge">database</text></g><g stroke-linecap="round" transform="translate(2196.5727275578456 406.2852069638821) rotate(0 95.7217816619717 37.91577065831345)"><path d="M57.59 3.8 C69.03 1.29, 84.06 0.75, 97.67 0.91 C111.28 1.07, 126.86 2.24, 139.28 4.78 C151.7 7.32, 163.87 11.74, 172.2 16.16 C180.52 20.58, 186.69 26.01, 189.24 31.31 C191.79 36.6, 191.04 42.76, 187.5 47.94 C183.96 53.12, 176.99 58.42, 168.02 62.39 C159.06 66.36, 146.13 69.65, 133.7 71.77 C121.28 73.89, 107.26 75.2, 93.47 75.12 C79.69 75.04, 63.25 73.87, 50.97 71.3 C38.7 68.74, 27.99 64, 19.84 59.71 C11.69 55.42, 4.76 50.84, 2.08 45.57 C-0.61 40.3, 0.38 33.46, 3.75 28.11 C7.12 22.75, 11.95 17.92, 22.28 13.42 C32.6 8.92, 57.14 3.13, 65.68 1.12 C74.22 -0.9, 72.98 0.73, 73.51 1.35 M88.06 1.52 C100.96 0.59, 118.06 1, 131.27 2.95 C144.47 4.9, 157.95 9, 167.3 13.21 C176.65 17.42, 183.49 23.35, 187.36 28.22 C191.23 33.1, 192.6 37.17, 190.51 42.49 C188.41 47.8, 182.51 55.29, 174.78 60.1 C167.04 64.92, 156.39 68.75, 144.09 71.39 C131.78 74.04, 114.79 75.51, 100.92 75.96 C87.06 76.42, 73.31 76.36, 60.89 74.1 C48.48 71.85, 35.92 66.66, 26.43 62.44 C16.94 58.21, 8.06 53.81, 3.94 48.76 C-0.18 43.71, -0.61 37.38, 1.71 32.13 C4.04 26.87, 10.07 21.56, 17.91 17.23 C25.75 12.91, 36.74 8.91, 48.74 6.18 C60.73 3.45, 83.15 1.55, 89.86 0.86 C96.57 0.17, 88.87 1.5, 89 2.03" stroke="#000000" stroke-width="1" fill="none"></path></g><g mask="url(#mask-v7hXxqlnELksn3LsP2phq)" stroke-linecap="round"><g transform="translate(1779.0821158823812 332.80840106049004) rotate(0 206.43200097477313 8.460321335404544)"><path d="M-0.56 0.31 C68.51 2.87, 344.61 13.64, 413.42 16.36 M1.35 -0.57 C70.34 2.65, 343.53 14.45, 412.41 17.49" stroke="#000000" stroke-width="1" fill="none"></path></g><g transform="translate(1779.0821158823812 332.80840106049004) rotate(0 206.43200097477313 8.460321335404544)"><path d="M384.32 26.31 C388.6 22.7, 395.21 21.65, 410.64 17.94 M384.69 25.92 C394.47 22.36, 406.09 20.22, 412.48 18.12" stroke="#000000" stroke-width="1" fill="none"></path></g><g transform="translate(1779.0821158823812 332.80840106049004) rotate(0 206.43200097477313 8.460321335404544)"><path d="M385.22 5.81 C389.48 6.63, 395.89 9.99, 410.64 17.94 M385.58 5.42 C395.06 9.88, 406.34 15.77, 412.48 18.12" stroke="#000000" stroke-width="1" fill="none"></path></g></g><mask id="mask-v7hXxqlnELksn3LsP2phq"><rect x="0" y="0" fill="#fff" width="2292.626834372592" height="449.9511274051116"></rect><rect x="1867.0444623101034" y="328.8797642328008" fill="#000" width="237.62002563476562" height="25" opacity="1"></rect></mask><g transform="translate(1867.0444623101034 328.8797642328008) rotate(0 118.46965454705071 12.388958163093761)"><text x="118.81001281738281" y="0" font-family="Virgil, Segoe UI Emoji" font-size="20px" fill="#000000" text-anchor="middle" style="white-space: pre;" direction="ltr" dominant-baseline="text-before-edge">5. Checks if user exists</text></g><g mask="url(#mask-8JfNByixt8oMYxbNTg4-L)" stroke-linecap="round"><g transform="translate(1580.591169125682 294.326582112115) rotate(0 -631.9106177933193 -57.094056765346835)"><path d="M-0.32 0.28 C-78.28 -18.73, -256.34 -111.19, -467.05 -114.38 C-677.76 -117.58, -1131.6 -35.07, -1264.57 -18.9 M1.72 -0.61 C-76.5 -19.49, -257.04 -110.57, -468.25 -113.47 C-679.46 -116.36, -1132.75 -33.66, -1265.54 -17.99" stroke="#000000" stroke-width="1" fill="none"></path></g><g transform="translate(1580.591169125682 294.326582112115) rotate(0 -631.9106177933193 -57.094056765346835)"><path d="M-1238.67 -33.05 C-1250.65 -27.84, -1259.48 -23.25, -1264.21 -18.54 M-1239.72 -31.49 C-1246.09 -28.14, -1253.65 -25.22, -1266.23 -17.69" stroke="#000000" stroke-width="1" fill="none"></path></g><g transform="translate(1580.591169125682 294.326582112115) rotate(0 -631.9106177933193 -57.094056765346835)"><path d="M-1235.68 -12.75 C-1248.68 -14.84, -1258.58 -17.55, -1264.21 -18.54 M-1236.73 -11.19 C-1243.78 -13.03, -1252.1 -15.31, -1266.23 -17.69" stroke="#000000" stroke-width="1" fill="none"></path></g></g><mask id="mask-8JfNByixt8oMYxbNTg4-L"><rect x="0" y="0" fill="#fff" width="2944.7720935174016" height="507.5226339580883"></rect><rect x="846.2905996181728" y="168.63053026614165" fill="#000" width="535.4600219726562" height="25" opacity="1"></rect></mask><g transform="translate(846.2905996181726 168.63053026614165) rotate(0 102.38995171419015 68.60199508062648)"><text x="267.7300109863281" y="0" font-family="Virgil, Segoe UI Emoji" font-size="20px" fill="#000000" text-anchor="middle" style="white-space: pre;" direction="ltr" dominant-baseline="text-before-edge">4. Checks authenticity and validioty of received token</text></g><g mask="url(#mask-cr8EvipyDJklOhotrktBb)" stroke-linecap="round"><g transform="translate(2189.843025221908 405.1875141937303) rotate(0 -202.19666878301553 7.2194427886540495)"><path d="M-1.12 -0.31 C-68.46 2.22, -336.98 11.88, -404.25 14.4 M0.49 -1.52 C-66.93 1.29, -337.23 13.58, -404.89 15.96" stroke="#000000" stroke-width="1" fill="none"></path></g><g transform="translate(2189.843025221908 405.1875141937303) rotate(0 -202.19666878301553 7.2194427886540495)"><path d="M-377.65 5.54 C-384.97 7.71, -392.06 9.78, -403.94 15.15 M-376.23 3.55 C-387 9.38, -396.64 11.99, -404.16 15.04" stroke="#000000" stroke-width="1" fill="none"></path></g><g transform="translate(2189.843025221908 405.1875141937303) rotate(0 -202.19666878301553 7.2194427886540495)"><path d="M-376.81 26.05 C-384.23 22.44, -391.56 18.74, -403.94 15.15 M-375.39 24.06 C-386.6 22.97, -396.53 18.65, -404.16 15.04" stroke="#000000" stroke-width="1" fill="none"></path></g></g><mask id="mask-cr8EvipyDJklOhotrktBb"><rect x="0" y="0" fill="#fff" width="2694.6904617758537" height="519.5541541443281"></rect><rect x="1829.8693191519665" y="387.3708341690292" fill="#000" width="315.0999755859375" height="50" opacity="1"></rect></mask><g transform="translate(1829.869319151967 387.3708341690292) rotate(0 157.7770372869262 25.036122813355178)"><text x="157.54998779296875" y="0" font-family="Virgil, Segoe UI Emoji" font-size="20px" fill="#000000" text-anchor="middle" style="white-space: pre;" direction="ltr" dominant-baseline="text-before-edge">6.1. Responds 200 OK with user</text><text x="157.54998779296875" y="25" font-family="Virgil, Segoe UI Emoji" font-size="20px" fill="#000000" text-anchor="middle" style="white-space: pre;" direction="ltr" dominant-baseline="text-before-edge">email</text></g><g stroke-linecap="round" transform="translate(2032.2841809806034 780.9963014127266) rotate(0 147.93366256850163 59.04915102524228)"><path d="M29.52 0 M29.52 0 C108.71 -1.22, 190.61 -0.92, 266.34 0 M29.52 0 C87.88 -0.81, 147.13 -0.89, 266.34 0 M266.34 0 C286.71 1.08, 294.19 9.27, 295.87 29.52 M266.34 0 C288.23 -0.64, 294.55 8.58, 295.87 29.52 M295.87 29.52 C297.3 44.71, 297.15 59.31, 295.87 88.57 M295.87 29.52 C295.45 49.02, 296.6 66.42, 295.87 88.57 M295.87 88.57 C297.03 108.5, 285.68 118.62, 266.34 118.1 M295.87 88.57 C296.75 108.05, 285.48 120.03, 266.34 118.1 M266.34 118.1 C179.55 116.59, 94.18 118.64, 29.52 118.1 M266.34 118.1 C180.4 118.16, 92.92 118.65, 29.52 118.1 M29.52 118.1 C10.34 118.28, -0.43 109.46, 0 88.57 M29.52 118.1 C8.38 116.1, -0.92 107.25, 0 88.57 M0 88.57 C-0.33 77.65, 0.09 61.68, 0 29.52 M0 88.57 C-0.53 72.79, -0.32 58.03, 0 29.52 M0 29.52 C-1.69 9.9, 11.23 1.11, 29.52 0 M0 29.52 C1.14 9.51, 11.13 0.3, 29.52 0" stroke="#000000" stroke-width="1" fill="none"></path></g><g transform="translate(2079.523501800797 819.5336420818321) rotate(0 91.55000305175781 25)"><text x="0" y="0" font-family="Virgil, Segoe UI Emoji" font-size="20px" fill="#000000" text-anchor="start" style="white-space: pre;" direction="ltr" dominant-baseline="text-before-edge">6 -&gt; User known</text><text x="0" y="25" font-family="Virgil, Segoe UI Emoji" font-size="20px" fill="#000000" text-anchor="start" style="white-space: pre;" direction="ltr" dominant-baseline="text-before-edge">6' -&gt; User unknown</text></g><g mask="url(#mask-LKzI23PRyCOADIJexknyY)" stroke-linecap="round"><g transform="translate(1551.015342543062 406.0019110331697) rotate(0 -233.86753925451364 -0.42837810422206246)"><path d="M1.09 0.53 C-76.85 0.14, -390.76 -1.14, -468.83 -1.39 M0.21 -0.24 C-77.26 -0.55, -388.61 -0.17, -466.61 -0.07" stroke="#000000" stroke-width="1" fill="none"></path></g><g transform="translate(1551.015342543062 406.0019110331697) rotate(0 -233.86753925451364 -0.42837810422206246)"><path d="M-437.55 -11.93 C-444.74 -7.09, -449.73 -6.46, -466.4 -1.65 M-437.53 -10.64 C-446.35 -7.09, -453.92 -4.83, -467.41 -0.43" stroke="#000000" stroke-width="1" fill="none"></path></g><g transform="translate(1551.015342543062 406.0019110331697) rotate(0 -233.86753925451364 -0.42837810422206246)"><path d="M-437.53 8.59 C-444.88 9.29, -449.88 5.79, -466.4 -1.65 M-437.51 9.88 C-446.26 7.97, -453.84 4.77, -467.41 -0.43" stroke="#000000" stroke-width="1" fill="none"></path></g></g><mask id="mask-LKzI23PRyCOADIJexknyY"><rect x="0" y="0" fill="#fff" width="2118.9076356198993" height="506.9630700124609"></rect><rect x="1125.5992100427288" y="368.0213315435241" fill="#000" width="382.9399719238281" height="75" opacity="1"></rect></mask><g transform="translate(1125.599210042729 368.02133154352407) rotate(0 191.54859324581923 37.552201385423544)"><text x="191.46998596191406" y="0" font-family="Virgil, Segoe UI Emoji" font-size="20px" fill="#000000" text-anchor="middle" style="white-space: pre;" direction="ltr" dominant-baseline="text-before-edge">6.2. Login OK</text><text x="191.46998596191406" y="25" font-family="Virgil, Segoe UI Emoji" font-size="20px" fill="#000000" text-anchor="middle" style="white-space: pre;" direction="ltr" dominant-baseline="text-before-edge">Front save user's idToken and pass it</text><text x="191.46998596191406" y="50" font-family="Virgil, Segoe UI Emoji" font-size="20px" fill="#000000" text-anchor="middle" style="white-space: pre;" direction="ltr" dominant-baseline="text-before-edge">to following requests</text></g><g mask="url(#mask-DKEmBiIe6Xqqo7PgROsPF)" stroke-linecap="round"><g transform="translate(2218.602358701901 473.34679241427153) rotate(0 -238.38157468598104 14.273369474474123)"><path d="M0.45 0.74 C-36.94 5.13, -144.13 26.92, -223.74 27.1 C-303.35 27.28, -434.9 5.72, -477.22 1.79 M-0.77 0.08 C-38.31 4.58, -145.29 28.02, -224.28 28.46 C-303.28 28.9, -432.44 7.23, -474.72 2.74" stroke="#000000" stroke-width="1" fill="none"></path></g><g transform="translate(2218.602358701901 473.34679241427153) rotate(0 -238.38157468598104 14.273369474474123)"><path d="M-444.2 -2.47 C-456.32 -2.62, -467.29 -0.97, -473.03 3.02 M-444.8 -4.49 C-452.98 -2.58, -462.36 0.38, -475.3 1.88" stroke="#000000" stroke-width="1" fill="none"></path></g><g transform="translate(2218.602358701901 473.34679241427153) rotate(0 -238.38157468598104 14.273369474474123)"><path d="M-446.88 17.87 C-458.18 10.52, -468.2 4.97, -473.03 3.02 M-447.48 15.85 C-454.84 12.06, -463.47 9.33, -475.3 1.88" stroke="#000000" stroke-width="1" fill="none"></path></g></g><mask id="mask-DKEmBiIe6Xqqo7PgROsPF"><rect x="0" y="0" fill="#fff" width="2795.055160931792" height="600.7864825950505"></rect><rect x="1855.3758014566415" y="488.28648259505053" fill="#000" width="277.44000244140625" height="25" opacity="1"></rect></mask><g transform="translate(1855.375801456642 488.28648259505053) rotate(0 124.84498255927826 -0.6663207063049299)"><text x="138.72000122070312" y="0" font-family="Virgil, Segoe UI Emoji" font-size="20px" fill="#000000" text-anchor="middle" style="white-space: pre;" direction="ltr" dominant-baseline="text-before-edge">6'.1. Responds no user found</text></g><g mask="url(#mask-WPdEp1FO1klBq7tHTiRQF)" stroke-linecap="round"><g transform="translate(1560.049794363203 479.5830856371759) rotate(0 -261.43433267910945 15.002163538666906)"><path d="M-1.16 -0.91 C-41.29 4.28, -154.8 27.1, -241.7 30.38 C-328.6 33.66, -475.73 20.68, -522.56 18.77 M0.44 1.23 C-39.25 6.11, -152.22 25.35, -239.51 28.5 C-326.8 31.65, -476.15 21.52, -523.3 20.12" stroke="#000000" stroke-width="1" fill="none"></path></g><g transform="translate(1560.049794363203 479.5830856371759) rotate(0 -261.43433267910945 15.002163538666906)"><path d="M-496.19 9.53 C-500.36 12.96, -507.39 14.77, -522.95 19.66 M-495.28 11.11 C-500.78 12.23, -508.18 14.78, -522.42 19.68" stroke="#000000" stroke-width="1" fill="none"></path></g><g transform="translate(1560.049794363203 479.5830856371759) rotate(0 -261.43433267910945 15.002163538666906)"><path d="M-497.13 30.03 C-500.97 28.9, -507.79 26.14, -522.95 19.66 M-496.22 31.61 C-501.6 28.14, -508.78 26.09, -522.42 19.68" stroke="#000000" stroke-width="1" fill="none"></path></g></g><mask id="mask-WPdEp1FO1klBq7tHTiRQF"><rect x="0" y="0" fill="#fff" width="2182.651166442586" height="609.5172931071168"></rect><rect x="1208.6588777901504" y="497.01729310711676" fill="#000" width="221.33999633789062" height="25" opacity="1"></rect></mask><g transform="translate(1208.6588777901502 497.0172931071167) rotate(0 89.95658389394322 -2.4320439312739097)"><text x="110.66999816894531" y="0" font-family="Virgil, Segoe UI Emoji" font-size="20px" fill="#000000" text-anchor="middle" style="white-space: pre;" direction="ltr" dominant-baseline="text-before-edge">6'.2. Returns login 401</text></g><g mask="url(#mask-VemsgJS-IW0tHznBy_QcI)" stroke-linecap="round"><g transform="translate(838.6315416615253 489.5611547938228) rotate(0 -276.6566193597672 41.71531394390175)"><path d="M-0.58 0.24 C-43.59 14.03, -165.36 80.73, -257.57 82.88 C-349.78 85.03, -504.51 24.7, -553.84 13.14 M1.32 -0.67 C-41.34 13.24, -162.53 82.09, -255.19 84.06 C-347.85 86.03, -504.97 23.23, -554.63 11.14" stroke="#000000" stroke-width="1" fill="none"></path></g><g transform="translate(838.6315416615253 489.5611547938228) rotate(0 -276.6566193597672 41.71531394390175)"><path d="M-524.26 8.65 C-536.02 9.96, -543.99 10.95, -552.88 9.14 M-524.87 9.53 C-532.32 9.98, -542.43 9.57, -555.03 10.43" stroke="#000000" stroke-width="1" fill="none"></path></g><g transform="translate(838.6315416615253 489.5611547938228) rotate(0 -276.6566193597672 41.71531394390175)"><path d="M-530.35 28.25 C-540.06 22.91, -545.96 17.22, -552.88 9.14 M-530.95 29.13 C-536.63 24.13, -545.04 18.23, -555.03 10.43" stroke="#000000" stroke-width="1" fill="none"></path></g></g><mask id="mask-VemsgJS-IW0tHznBy_QcI"><rect x="0" y="0" fill="#fff" width="1492.41437985543" height="673.1274839807409"></rect><rect x="351.43628162981975" y="548.127483980741" fill="#000" width="460.51995849609375" height="50" opacity="1"></rect></mask><g transform="translate(351.43628162981986 548.1274839807409) rotate(0 210.53864067193825 -16.85101524301635)"><text x="230.25997924804688" y="0" font-family="Virgil, Segoe UI Emoji" font-size="20px" fill="#000000" text-anchor="middle" style="white-space: pre;" direction="ltr" dominant-baseline="text-before-edge">6'.3. Asks for user access and refresh token </text><text x="230.25997924804688" y="25" font-family="Virgil, Segoe UI Emoji" font-size="20px" fill="#000000" text-anchor="middle" style="white-space: pre;" direction="ltr" dominant-baseline="text-before-edge">for needed permissions</text></g><g mask="url(#mask-kLqZ273jpGTUHafEdcOcV)" stroke-linecap="round"><g transform="translate(246.68644161954984 543.1932765108002) rotate(0 351.65261349398827 93.26437911435337)"><path d="M1.16 0.86 C53.31 38.92, 196.14 234.64, 313.11 227.73 C430.09 220.82, 637.96 4.06, 702.99 -40.6 M0.32 0.27 C52.79 38.54, 198.25 236.14, 315.2 228.99 C432.14 221.84, 637.28 2.57, 701.98 -42.65" stroke="#000000" stroke-width="1" fill="none"></path></g><g transform="translate(246.68644161954984 543.1932765108002) rotate(0 351.65261349398827 93.26437911435337)"><path d="M688.71 -18.49 C691.25 -25.78, 697.75 -33.69, 703.46 -44.65 M688.13 -15.91 C692.74 -26.74, 697.84 -34.53, 701.98 -42.49" stroke="#000000" stroke-width="1" fill="none"></path></g><g transform="translate(246.68644161954984 543.1932765108002) rotate(0 351.65261349398827 93.26437911435337)"><path d="M675.34 -34.06 C682.08 -36.5, 692.86 -39.43, 703.46 -44.65 M674.76 -31.47 C684.17 -36.74, 694.04 -38.97, 701.98 -42.49" stroke="#000000" stroke-width="1" fill="none"></path></g></g><mask id="mask-kLqZ273jpGTUHafEdcOcV"><rect x="0" y="0" fill="#fff" width="1050.1403171631591" height="912.6011437402674"></rect><rect x="367.18560723654554" y="758.9416084690989" fill="#000" width="387.6200256347656" height="25" opacity="1"></rect></mask><g transform="translate(367.18560723654554 758.9416084690987) rotate(0 231.15344787699257 -122.48395284394527)"><text x="193.8100128173828" y="0" font-family="Virgil, Segoe UI Emoji" font-size="20px" fill="#000000" text-anchor="middle" style="white-space: pre;" direction="ltr" dominant-baseline="text-before-edge">6'.4. Responde with user detailed data</text></g><g mask="url(#mask-41ic-JYe_8iWproexTl1_)" stroke-linecap="round"><g transform="translate(1001.2779215909745 494.55018937214635) rotate(0 295.9671564575868 48.291669104377945)"><path d="M0.07 0.88 C50.32 19.71, 203.84 117.01, 302.71 114.07 C401.59 111.13, 544.75 5.23, 593.29 -16.77 M-1.36 0.3 C48.71 19.78, 203.28 118.43, 302.23 115.25 C401.17 112.08, 543.63 3.3, 592.31 -18.74" stroke="#000000" stroke-width="1" fill="none"></path></g><g transform="translate(1001.2779215909745 494.55018937214635) rotate(0 295.9671564575868 48.291669104377945)"><path d="M574.57 5.76 C579.43 -5.59, 589.39 -13.7, 591.59 -19.89 M572.44 4.35 C579.19 -4.16, 586.09 -11.13, 592.94 -17.93" stroke="#000000" stroke-width="1" fill="none"></path></g><g transform="translate(1001.2779215909745 494.55018937214635) rotate(0 295.9671564575868 48.291669104377945)"><path d="M564.25 -11.97 C573.4 -16.25, 587.48 -17.27, 591.59 -19.89 M562.12 -13.39 C572.53 -15.54, 583.09 -16.21, 592.94 -17.93" stroke="#000000" stroke-width="1" fill="none"></path></g></g><mask id="mask-41ic-JYe_8iWproexTl1_"><rect x="0" y="0" fill="#fff" width="1694.973036411467" height="726.7596056977183"></rect><rect x="1064.0145379936068" y="584.297984673586" fill="#000" width="478.199951171875" height="50" opacity="1"></rect></mask><g transform="translate(1064.0145379936066 584.2979846735861) rotate(0 233.2305400549546 -41.45612619706179)"><text x="239.0999755859375" y="0" font-family="Virgil, Segoe UI Emoji" font-size="20px" fill="#000000" text-anchor="middle" style="white-space: pre;" direction="ltr" dominant-baseline="text-before-edge">6'.5. Calls signup endpoint with accessToke and </text><text x="239.0999755859375" y="25" font-family="Virgil, Segoe UI Emoji" font-size="20px" fill="#000000" text-anchor="middle" style="white-space: pre;" direction="ltr" dominant-baseline="text-before-edge">idToken</text></g><g mask="url(#mask-LEHnV5dxiHAh9yOrWiizm)" stroke-linecap="round"><g transform="translate(1702.2372798454217 480.83034428175677) rotate(0 292.56102796300365 50.3401285555465)"><path d="M-0.78 -0.14 C46.2 16.91, 183.91 101.33, 281.69 101.94 C379.47 102.54, 535.45 19.83, 585.9 3.51 M1.02 -1.26 C47.83 15.5, 183.21 99.3, 280.65 100.29 C378.08 101.28, 535.01 20.55, 585.63 4.71" stroke="#000000" stroke-width="1" fill="none"></path></g><g transform="translate(1702.2372798454217 480.83034428175677) rotate(0 292.56102796300365 50.3401285555465)"><path d="M563.01 24.36 C571.25 20.64, 575.78 12.36, 586.05 4.39 M564.2 25.66 C572.23 17.54, 581.14 9.68, 584.8 4.53" stroke="#000000" stroke-width="1" fill="none"></path></g><g transform="translate(1702.2372798454217 480.83034428175677) rotate(0 292.56102796300365 50.3401285555465)"><path d="M555.41 5.3 C565.78 7.11, 572.5 4.31, 586.05 4.39 M556.6 6.6 C567.44 5.8, 579.23 5.18, 584.8 4.53" stroke="#000000" stroke-width="1" fill="none"></path></g></g><mask id="mask-LEHnV5dxiHAh9yOrWiizm"><rect x="0" y="0" fill="#fff" width="2387.201584153848" height="681.8582944928071"></rect><rect x="1854.6577268068302" y="569.3582944928071" fill="#000" width="258.9200134277344" height="25" opacity="1"></rect></mask><g transform="translate(1854.6577268068304 569.3582944928072) rotate(0 140.1405810015949 -38.18782165550377)"><text x="129.4600067138672" y="0" font-family="Virgil, Segoe UI Emoji" font-size="20px" fill="#000000" text-anchor="middle" style="white-space: pre;" direction="ltr" dominant-baseline="text-before-edge">6'.6. Save user info in DB</text></g><g mask="url(#mask--JaBQQfpmqXXGUdvexpcD)" stroke-linecap="round"><g transform="translate(1666.0667791525761 480.8303442817568) rotate(0 -342.5489646695476 104.6074982466051)"><path d="M0.03 -0.64 C-26.51 29.46, -61.24 147.99, -158.27 180.34 C-255.31 212.69, -494.37 220.5, -582.18 193.46 C-669.99 166.42, -668.11 47.26, -685.13 18.1 M-1.41 1.64 C-27.68 31.41, -59.25 146.51, -156.15 178.6 C-253.05 210.69, -494.64 220.81, -582.8 194.19 C-670.95 167.57, -667.95 48.12, -685.09 18.88" stroke="#000000" stroke-width="1" fill="none"></path></g><g transform="translate(1666.0667791525761 480.8303442817568) rotate(0 -342.5489646695476 104.6074982466051)"><path d="M-668.58 41.33 C-672.95 34.39, -682.74 23.99, -686.1 19.57 M-667.47 44.13 C-672.71 35.52, -678.4 29.43, -684.67 19.71" stroke="#000000" stroke-width="1" fill="none"></path></g><g transform="translate(1666.0667791525761 480.8303442817568) rotate(0 -342.5489646695476 104.6074982466051)"><path d="M-688.32 46.94 C-685.14 37.85, -687.39 25.31, -686.1 19.57 M-687.22 49.73 C-686.87 39.36, -686.98 31.68, -684.67 19.71" stroke="#000000" stroke-width="1" fill="none"></path></g></g><mask id="mask--JaBQQfpmqXXGUdvexpcD"><rect x="0" y="0" fill="#fff" width="2450.8117750274723" height="775.4026928363721"></rect><rect x="1168.0525555410625" y="676.7912429186136" fill="#000" width="248.10000610351562" height="25" opacity="1"></rect></mask><g transform="translate(1168.0525555410625 676.7912429186135) rotate(0 155.46525894196606 -91.35340039025166)"><text x="124.05000305175781" y="0" font-family="Virgil, Segoe UI Emoji" font-size="20px" fill="#000000" text-anchor="middle" style="white-space: pre;" direction="ltr" dominant-baseline="text-before-edge">6'.7. Signup 200 Created</text></g><g transform="translate(1142.5156598444094 10) rotate(0 116.06399536132807 22.5)"><text x="0" y="0" font-family="Virgil, Segoe UI Emoji" font-size="36px" fill="#000000" text-anchor="start" style="white-space: pre;" direction="ltr" dominant-baseline="text-before-edge">LOGIN FLOW</text></g></svg>