<svg version="1.1" xmlns="http://www.w3.org/2000/svg" viewBox="0 0 2055.205208701531 547.3448287796215" width="6165.615626104593" height="1642.0344863388646">
  <!-- svg-source:excalidraw -->
  
  <defs>
    <style class="style-fonts">
      @font-face {
        font-family: "Virgil";
        src: url("https://excalidraw.com/Virgil.woff2");
      }
      @font-face {
        font-family: "Cascadia";
        src: url("https://excalidraw.com/Cascadia.woff2");
      }
    </style>
  </defs>
  <rect x="0" y="0" width="2055.205208701531" height="547.3448287796215" fill="#ffffff"></rect><g stroke-linecap="round"><g transform="translate(1538.981553735891 70.88379631130982) rotate(0 13.130245396474038 -0.20948441548765118)"><path d="M0.86 0.4 C5.11 0.33, 22.24 -0.88, 26.41 -0.82 M-0.15 -0.43 C3.94 -0.33, 21.68 0.42, 25.92 0.29" stroke="#1e1e1e" stroke-width="1" fill="none"></path></g></g><mask></mask><g stroke-linecap="round"><g transform="translate(1541.4068638949725 78.8710585045753) rotate(0 11.981442540714283 -0.6717844074591852)"><path d="M0.12 0.41 C4.2 0.38, 21.19 0.16, 25.23 0.24 M-1.27 -0.42 C2.56 -0.88, 19.46 -1.66, 24.12 -1.76" stroke="#1e1e1e" stroke-width="1" fill="none"></path></g></g><mask></mask><g stroke-linecap="round"><g transform="translate(1541.406863894973 87.75994739346416) rotate(0 12.672177396330653 -0.029968355968577498)"><path d="M0.24 -1.16 C4.58 -0.92, 22.17 0.89, 26.44 1.1 M-1.09 0.85 C3.13 0.81, 21.56 -0.55, 25.95 -0.45" stroke="#1e1e1e" stroke-width="1" fill="none"></path></g></g><mask></mask><g stroke-linecap="round" transform="translate(333.8228235771612 56.53458996210341) rotate(0 411 230)"><path d="M32 0 M32 0 C219.41 -2.25, 408.52 -1.58, 790 0 M32 0 C255.47 1.71, 478.09 1.14, 790 0 M790 0 C809.77 -0.72, 823.3 8.96, 822 32 M790 0 C810.37 -1.84, 820.88 10.76, 822 32 M822 32 C823.25 174.06, 821.46 315.03, 822 428 M822 32 C822.66 130.37, 822.27 228.55, 822 428 M822 428 C820.89 449.05, 809.76 461.43, 790 460 M822 428 C823.1 447.45, 812.08 462.01, 790 460 M790 460 C577.64 463.63, 364.89 463.5, 32 460 M790 460 C568.42 460.66, 346.56 460.53, 32 460 M32 460 C10.57 458.22, 1.66 449.67, 0 428 M32 460 C9.58 461.3, 1.11 449.34, 0 428 M0 428 C-0.49 290, 1.42 154.2, 0 32 M0 428 C-1.06 330.49, -1.36 232.54, 0 32 M0 32 C1.5 10.48, 10.67 -0.28, 32 0 M0 32 C0.69 11.69, 11.21 -1.87, 32 0" stroke="#1e1e1e" stroke-width="1" fill="none"></path></g><g stroke-linecap="round"><g transform="translate(332.8228235771612 120.53458996210341) rotate(0 411.82181949108843 1.2152223296835984)"><path d="M0.89 0.58 C137.97 1.16, 684.63 2.33, 821.36 2.59 M-0.1 -0.16 C137.47 0.14, 686.43 0.17, 823.74 0.78" stroke="#1e1e1e" stroke-width="1" fill="none"></path></g></g><mask></mask><g stroke-linecap="round"><g transform="translate(550.8228235771612 58.53458996210341) rotate(0 0.7842087498325157 32.162013343274594)"><path d="M-0.26 0.07 C0.01 10.71, 0.85 53.27, 1.05 63.82 M1.81 -0.94 C1.97 9.9, 0.4 54.38, 0.12 65.26" stroke="#1e1e1e" stroke-width="1" fill="none"></path></g></g><mask></mask><g stroke-linecap="round" transform="translate(347.8228235771612 67.53458996210341) rotate(0 32.5 21.5)"><path d="M19.44 1.53 C25.41 -0.62, 34.68 -1.16, 41.38 0.18 C48.08 1.53, 55.88 5.72, 59.65 9.62 C63.42 13.51, 64.58 18.85, 64 23.55 C63.43 28.26, 60.92 34.67, 56.18 37.85 C51.44 41.04, 42.84 42.41, 35.58 42.66 C28.32 42.9, 18.42 41.97, 12.62 39.32 C6.82 36.67, 2.31 31.21, 0.76 26.76 C-0.8 22.31, -0.39 16.97, 3.29 12.63 C6.96 8.29, 19.01 2.76, 22.79 0.74 C26.58 -1.28, 25.84 0.25, 25.98 0.51 M36.05 -1.34 C42.7 -1.31, 50.89 3.07, 55.86 6.62 C60.82 10.17, 65.31 15.56, 65.84 19.97 C66.38 24.38, 63.06 29.33, 59.09 33.06 C55.12 36.8, 48.83 41, 42.03 42.36 C35.23 43.71, 24.58 43.28, 18.27 41.2 C11.96 39.13, 7.21 34.08, 4.15 29.92 C1.1 25.75, -1.86 20.67, -0.06 16.2 C1.73 11.72, 9.24 5.54, 14.92 3.07 C20.6 0.6, 30.69 1.96, 34.02 1.38 C37.36 0.8, 34.92 -0.53, 34.92 -0.41" stroke="#1e1e1e" stroke-width="1" fill="none"></path></g><g transform="translate(365.36586289318825 78.83179416659263) rotate(0 14.975990295410156 10)"><text x="14.975990295410156" y="0" font-family="Virgil, Segoe UI Emoji" font-size="16px" fill="#1e1e1e" text-anchor="middle" style="white-space: pre;" direction="ltr" dominant-baseline="text-before-edge">logo</text></g><g transform="translate(419.8228235771612 78.53458996210341) rotate(0 61.19996643066406 10)"><text x="0" y="0" font-family="Virgil, Segoe UI Emoji" font-size="16px" fill="#1e1e1e" text-anchor="start" style="white-space: pre;" direction="ltr" dominant-baseline="text-before-edge">NoMoreMeetings</text></g><g stroke-linecap="round"><g transform="translate(1006.8228235771612 55.53458996210341) rotate(0 0.5155454292327022 33.0036453056708)"><path d="M0.8 0.4 C0.5 11.64, -0.71 55.37, -0.67 66.44 M-0.24 -0.43 C-0.25 10.52, 1.51 53.66, 1.7 64.55" stroke="#1e1e1e" stroke-width="1" fill="none"></path></g></g><mask></mask><g transform="translate(1036.8228235771612 80.53458996210341) rotate(0 45.69597625732422 10)"><text x="0" y="0" font-family="Virgil, Segoe UI Emoji" font-size="16px" fill="#1e1e1e" text-anchor="start" style="white-space: pre;" direction="ltr" dominant-baseline="text-before-edge">Google login</text></g><g transform="translate(765.8228235771612 80.53458996210341) rotate(0 47.15196228027344 10)"><text x="0" y="0" font-family="Virgil, Segoe UI Emoji" font-size="16px" fill="#868e96" text-anchor="start" style="white-space: pre;" direction="ltr" dominant-baseline="text-before-edge">User Profile</text></g><g transform="translate(634.8228235771612 79.53458996210341) rotate(0 52.239967346191406 10)"><text x="0" y="0" font-family="Virgil, Segoe UI Emoji" font-size="16px" fill="#868e96" text-anchor="start" style="white-space: pre;" direction="ltr" dominant-baseline="text-before-edge">Time Analysis</text></g><g stroke-linecap="round"><g stroke-opacity="0.2" fill-opacity="0.2" transform="translate(622.8228235771611 58.53458996210341) rotate(0 -0.1611959353039083 31.950245615495376)"><path d="M-1 0.88 C-1.05 11.39, -0.11 53.36, 0.22 63.61 M0.68 0.29 C0.43 10.41, -0.63 51.3, -0.62 61.81" stroke="#1e1e1e" stroke-width="1" fill="none"></path></g></g><mask></mask><g stroke-linecap="round"><g stroke-opacity="0.2" fill-opacity="0.2" transform="translate(749.8228235771612 54.53458996210341) rotate(0 0.19558193539273816 34.09021058259532)"><path d="M0.93 0.1 C0.84 11.29, 0.38 56.51, 0.27 68.04 M-0.04 -0.89 C-0.33 10.35, -0.48 57.13, -0.54 69.07" stroke="#1e1e1e" stroke-width="1" fill="none"></path></g></g><mask></mask><g transform="translate(569.8228235771612 78.53458996210341) rotate(0 18.279991149902344 10)"><text x="0" y="0" font-family="Virgil, Segoe UI Emoji" font-size="16px" fill="#1e1e1e" text-anchor="start" style="white-space: pre;" direction="ltr" dominant-baseline="text-before-edge">Home</text></g><g transform="translate(436.8228235771612 261.0102646887244) rotate(0 19.99925994873047 30.413649016020827)"><text x="0" y="0" font-family="Virgil, Segoe UI Emoji" font-size="48.66183842563333px" fill="#1e1e1e" text-anchor="start" style="white-space: pre;" direction="ltr" dominant-baseline="text-before-edge">...</text></g><g transform="translate(730.3148279716925 263.0345899621034) rotate(0 20.71849822998047 31.508530635013074)"><text x="0" y="0" font-family="Virgil, Segoe UI Emoji" font-size="50.4136490160209px" fill="#1e1e1e" text-anchor="start" style="white-space: pre;" direction="ltr" dominant-baseline="text-before-edge">...</text></g><g stroke-linecap="round" transform="translate(403.8228235771612 167.5345899621034) rotate(0 59.5 49.5)"><path d="M77.51 2.58 C86.6 4.37, 96.63 9.7, 103.18 15.82 C109.73 21.94, 114.57 30.99, 116.8 39.29 C119.04 47.58, 119.61 57.85, 116.6 65.58 C113.59 73.32, 106.31 80.41, 98.75 85.69 C91.19 90.97, 80.75 95.6, 71.25 97.26 C61.76 98.93, 51.04 98.01, 41.78 95.68 C32.53 93.35, 22.52 89.43, 15.73 83.28 C8.94 77.13, 3.26 66.88, 1.03 58.79 C-1.2 50.7, -0.66 42.32, 2.34 34.75 C5.35 27.17, 11.54 18.96, 19.08 13.35 C26.61 7.74, 36.14 2.24, 47.56 1.09 C58.99 -0.07, 79.23 4.52, 87.63 6.41 C96.03 8.3, 98.38 11.82, 97.94 12.43 M49.73 0.74 C59.23 -1.33, 72.62 0.43, 82.14 3.51 C91.66 6.59, 100.81 13, 106.84 19.19 C112.86 25.38, 116.89 32.52, 118.29 40.65 C119.68 48.77, 118.89 60.12, 115.19 67.93 C111.5 75.75, 104.08 82.48, 96.11 87.54 C88.14 92.59, 77.31 96.81, 67.39 98.25 C57.47 99.7, 45.72 98.98, 36.59 96.22 C27.46 93.45, 18.5 88.15, 12.62 81.67 C6.73 75.19, 2.94 65.89, 1.29 57.34 C-0.37 48.78, -0.93 37.89, 2.69 30.35 C6.32 22.82, 15.15 16.93, 23.06 12.14 C30.97 7.36, 45.34 3.41, 50.15 1.64 C54.96 -0.14, 51.72 1.02, 51.89 1.5" stroke="#1e1e1e" stroke-width="1" fill="none"></path></g><g transform="translate(432.76998962781164 197.0328042933693) rotate(0 30.47998046875 20)"><text x="30.47998046875" y="0" font-family="Virgil, Segoe UI Emoji" font-size="16px" fill="#1e1e1e" text-anchor="middle" style="white-space: pre;" direction="ltr" dominant-baseline="text-before-edge">App </text><text x="30.47998046875" y="20" font-family="Virgil, Segoe UI Emoji" font-size="16px" fill="#1e1e1e" text-anchor="middle" style="white-space: pre;" direction="ltr" dominant-baseline="text-before-edge">feature</text></g><g stroke-linecap="round" transform="translate(697.3228235771612 170.0345899621034) rotate(0 59.5 49.5)"><path d="M66.79 0.68 C76.49 0.88, 89.04 5.47, 96.94 10.48 C104.84 15.49, 110.68 23.06, 114.19 30.76 C117.7 38.46, 119.38 48.41, 117.99 56.68 C116.59 64.96, 111.66 74.03, 105.82 80.39 C99.99 86.76, 91.92 91.82, 82.96 94.85 C74 97.88, 62.08 99.58, 52.07 98.57 C42.06 97.55, 30.81 93.75, 22.9 88.75 C14.98 83.74, 8.22 76.27, 4.59 68.56 C0.95 60.84, -0.2 50.58, 1.08 42.44 C2.36 34.29, 6.26 25.98, 12.26 19.68 C18.27 13.37, 27.62 7.85, 37.14 4.61 C46.65 1.37, 63.68 0.77, 69.36 0.23 C75.04 -0.3, 71.15 0.63, 71.21 1.4 M69.14 0.68 C78.47 1.48, 88.77 6.49, 96.43 11.92 C104.1 17.35, 111.29 25.52, 115.15 33.27 C119 41.02, 121.06 50.4, 119.56 58.43 C118.07 66.46, 112.79 75.15, 106.2 81.45 C99.61 87.76, 89.53 93.58, 80.02 96.25 C70.51 98.93, 58.65 98.81, 49.13 97.5 C39.62 96.18, 30.71 93.3, 22.95 88.37 C15.19 83.44, 6.42 75.97, 2.58 67.92 C-1.27 59.87, -1.98 48.51, -0.14 40.05 C1.69 31.6, 7.17 23.17, 13.61 17.18 C20.05 11.18, 29.02 6.7, 38.51 4.1 C47.99 1.49, 65.5 1.88, 70.51 1.56 C75.51 1.23, 69.06 1.53, 68.55 2.13" stroke="#1e1e1e" stroke-width="1" fill="none"></path></g><g transform="translate(726.2699896278116 199.5328042933693) rotate(0 30.47998046875 20)"><text x="30.47998046875" y="0" font-family="Virgil, Segoe UI Emoji" font-size="16px" fill="#1e1e1e" text-anchor="middle" style="white-space: pre;" direction="ltr" dominant-baseline="text-before-edge">App </text><text x="30.47998046875" y="20" font-family="Virgil, Segoe UI Emoji" font-size="16px" fill="#1e1e1e" text-anchor="middle" style="white-space: pre;" direction="ltr" dominant-baseline="text-before-edge">feature</text></g><g stroke-linecap="round" transform="translate(1000.3228235771612 167.0345899621034) rotate(0 59.5 49.5)"><path d="M49.64 -0.24 C58.69 -2.16, 71.24 0.35, 80.71 3.46 C90.17 6.58, 100.11 12.25, 106.43 18.47 C112.75 24.68, 117.32 32.56, 118.63 40.77 C119.93 48.98, 117.81 60, 114.25 67.73 C110.68 75.45, 104.88 82.16, 97.25 87.14 C89.61 92.12, 78.1 96.23, 68.42 97.62 C58.73 99.01, 48.31 98.42, 39.14 95.51 C29.96 92.59, 19.8 86.53, 13.35 80.11 C6.89 73.68, 2.08 65.11, 0.42 56.97 C-1.24 48.83, -0.06 38.83, 3.38 31.28 C6.81 23.73, 12.74 16.79, 21.03 11.65 C29.31 6.51, 47.37 2.18, 53.09 0.43 C58.81 -1.32, 55.14 0.43, 55.35 1.15 M61.32 0.41 C70.58 0.33, 81.86 4.53, 90.5 8.9 C99.14 13.28, 108.25 19.77, 113.17 26.66 C118.08 33.55, 120.51 41.93, 119.98 50.24 C119.45 58.54, 115.43 69.46, 109.99 76.48 C104.55 83.51, 95.96 88.57, 87.35 92.37 C78.75 96.18, 68.07 99.63, 58.36 99.32 C48.64 99, 37.64 94.74, 29.04 90.47 C20.44 86.21, 11.55 80.94, 6.73 73.71 C1.92 66.48, -0.32 55.52, 0.15 47.1 C0.62 38.67, 4.33 29.99, 9.55 23.15 C14.78 16.31, 23.07 9.84, 31.51 6.06 C39.94 2.27, 55.15 1.33, 60.17 0.46 C65.19 -0.41, 61.39 0.3, 61.63 0.82" stroke="#1e1e1e" stroke-width="1" fill="none"></path></g><g transform="translate(1029.2699896278116 196.5328042933693) rotate(0 30.47998046875 20)"><text x="30.47998046875" y="0" font-family="Virgil, Segoe UI Emoji" font-size="16px" fill="#1e1e1e" text-anchor="middle" style="white-space: pre;" direction="ltr" dominant-baseline="text-before-edge">App </text><text x="30.47998046875" y="20" font-family="Virgil, Segoe UI Emoji" font-size="16px" fill="#1e1e1e" text-anchor="middle" style="white-space: pre;" direction="ltr" dominant-baseline="text-before-edge">feature</text></g><g transform="translate(1041.1028299858526 262.02605932709037) rotate(0 20.71849822998047 31.508530635013074)"><text x="0" y="0" font-family="Virgil, Segoe UI Emoji" font-size="50.4136490160209px" fill="#1e1e1e" text-anchor="start" style="white-space: pre;" direction="ltr" dominant-baseline="text-before-edge">...</text></g><g transform="translate(650.0029001762823 13.53458996210341) rotate(0 95.8199234008789 12.5)"><text x="95.8199234008789" y="0" font-family="Virgil, Segoe UI Emoji" font-size="20px" fill="#1e1e1e" text-anchor="middle" style="white-space: pre;" direction="ltr" dominant-baseline="text-before-edge">Desktop/Tablet UI</text></g><g stroke-linecap="round" transform="translate(1297.8704426247798 49.77268520019865) rotate(0 141.1111111111111 243.33333333333334)"><path d="M32 0 M32 0 C112.93 0.88, 192.75 1.47, 250.22 0 M32 0 C86.74 2.53, 140.66 1.08, 250.22 0 M250.22 0 C273.15 -0.81, 281.37 10.8, 282.22 32 M250.22 0 C272.26 0.32, 284.46 10.48, 282.22 32 M282.22 32 C283.84 191.28, 283.05 350.76, 282.22 454.67 M282.22 32 C281.63 153.83, 281.62 274.92, 282.22 454.67 M282.22 454.67 C282.71 477.45, 273.2 485.38, 250.22 486.67 M282.22 454.67 C282.91 475.59, 271.04 487.94, 250.22 486.67 M250.22 486.67 C187.6 488.13, 124.9 488.4, 32 486.67 M250.22 486.67 C182.03 487.51, 112.54 488.33, 32 486.67 M32 486.67 C8.79 485.4, -0.2 476.06, 0 454.67 M32 486.67 C12.41 484.51, 1.43 478.22, 0 454.67 M0 454.67 C-2.49 354.32, -2.11 252.31, 0 32 M0 454.67 C-1.87 291.08, -2.54 126.68, 0 32 M0 32 C0.57 9.15, 9.91 1.71, 32 0 M0 32 C-0.35 9.78, 9.81 1.8, 32 0" stroke="#1e1e1e" stroke-width="1" fill="none"></path></g><g stroke-linecap="round"><g transform="translate(1298.9815537358909 111.99490742242085) rotate(0 140.53754125617957 -0.16563874088058128)"><path d="M-1.15 -1.08 C45.4 -1.1, 232.94 -1.49, 280.06 -1.32 M0.45 0.97 C47.29 1.23, 235.45 0.58, 282.23 0.11" stroke="#1e1e1e" stroke-width="1" fill="none"></path></g></g><mask></mask><g stroke-linecap="round" transform="translate(1309.5593650830049 66.93935186686528) rotate(0 21.582687338501273 15.5)"><path d="M29.56 1.18 C33.55 1.98, 37.24 4.34, 39.37 7.09 C41.5 9.83, 43 14.15, 42.33 17.66 C41.66 21.18, 38.73 26.06, 35.35 28.16 C31.96 30.27, 26.65 30.45, 22 30.3 C17.35 30.15, 10.98 29.23, 7.44 27.26 C3.9 25.3, 1.59 21.73, 0.76 18.54 C-0.07 15.35, 0.21 11.12, 2.47 8.14 C4.74 5.16, 9.79 1.61, 14.34 0.63 C18.9 -0.35, 26.82 2.06, 29.83 2.26 C32.83 2.46, 32.44 1.74, 32.37 1.81 M20.39 -0.57 C24.72 -0.91, 30.59 1.73, 34.31 3.84 C38.03 5.96, 41.77 9.08, 42.72 12.1 C43.68 15.12, 42.13 18.97, 40.05 21.96 C37.97 24.96, 34.54 28.92, 30.25 30.08 C25.95 31.24, 18.62 30.19, 14.26 28.93 C9.9 27.66, 6.2 25.32, 4.08 22.5 C1.96 19.68, 1.15 15.33, 1.54 12 C1.94 8.68, 3.02 4.79, 6.44 2.54 C9.85 0.29, 19.69 -1.14, 22.01 -1.49 C24.32 -1.84, 20.59 -0.07, 20.33 0.42" stroke="#1e1e1e" stroke-width="1" fill="none"></path></g><g transform="translate(1322.6479310977345 76.64586342514045) rotate(0 8.732856750488281 5.833333333333329)"><text x="8.732856750488281" y="0" font-family="Virgil, Segoe UI Emoji" font-size="9.33333333333333px" fill="#1e1e1e" text-anchor="middle" style="white-space: pre;" direction="ltr" dominant-baseline="text-before-edge">logo</text></g><g transform="translate(1357.373318571377 76.68870587203324) rotate(0 40.62144470214844 6.640826873385009)"><text x="0" y="0" font-family="Virgil, Segoe UI Emoji" font-size="10.625322997416015px" fill="#1e1e1e" text-anchor="start" style="white-space: pre;" direction="ltr" dominant-baseline="text-before-edge">NoMoreMeetings</text></g><g stroke-linecap="round" transform="translate(1383.703012198449 134.71184019485904) rotate(0 59.5 49.5)"><path d="M66.5 -0.02 C75.67 0.39, 86.05 5.28, 94.07 10.29 C102.08 15.3, 110.4 22.39, 114.59 30.03 C118.78 37.68, 120.4 47.9, 119.2 56.17 C118.01 64.45, 113.37 73.07, 107.4 79.68 C101.43 86.29, 92.57 92.54, 83.38 95.82 C74.2 99.1, 62.11 100.31, 52.29 99.36 C42.46 98.41, 32.45 95.22, 24.46 90.13 C16.47 85.04, 8.35 76.38, 4.33 68.8 C0.32 61.23, -0.7 52.86, 0.37 44.68 C1.44 36.49, 4.97 26.29, 10.75 19.68 C16.53 13.08, 25.1 8.06, 35.05 5.05 C45.01 2.04, 63.73 1.92, 70.48 1.63 C77.22 1.33, 75.65 2.7, 75.53 3.29 M38.52 2.15 C47.26 -1.35, 59.79 0, 69.6 1.24 C79.4 2.49, 89.58 4.77, 97.38 9.63 C105.18 14.5, 112.74 22.63, 116.37 30.42 C120 38.21, 121.15 47.78, 119.15 56.39 C117.14 64.99, 110.52 75.36, 104.35 82.05 C98.18 88.74, 91.2 93.75, 82.15 96.53 C73.09 99.32, 59.84 100.42, 50 98.78 C40.16 97.15, 30.97 91.85, 23.12 86.71 C15.27 81.56, 6.56 75.53, 2.91 67.91 C-0.74 60.29, -0.41 49.04, 1.21 40.99 C2.84 32.94, 6.59 25.82, 12.68 19.6 C18.77 13.37, 33.36 6.28, 37.76 3.64 C42.16 1, 38.72 3.16, 39.07 3.75" stroke="#1e1e1e" stroke-width="1" fill="none"></path></g><g transform="translate(1412.6501782490993 164.21005452612494) rotate(0 30.47998046875 20)"><text x="30.47998046875" y="0" font-family="Virgil, Segoe UI Emoji" font-size="16px" fill="#1e1e1e" text-anchor="middle" style="white-space: pre;" direction="ltr" dominant-baseline="text-before-edge">App </text><text x="30.47998046875" y="20" font-family="Virgil, Segoe UI Emoji" font-size="16px" fill="#1e1e1e" text-anchor="middle" style="white-space: pre;" direction="ltr" dominant-baseline="text-before-edge">feature</text></g><g transform="translate(1424.4830186071404 229.70330955984602) rotate(0 20.71849822998047 31.508530635013045)"><text x="0" y="0" font-family="Virgil, Segoe UI Emoji" font-size="50.4136490160209px" fill="#1e1e1e" text-anchor="start" style="white-space: pre;" direction="ltr" dominant-baseline="text-before-edge">...</text></g><g stroke-linecap="round" transform="translate(1384.5085590749172 323.20980928847814) rotate(0 59.5 49.5)"><path d="M86.75 5.29 C95.39 8.19, 103.59 15.25, 108.97 22.25 C114.36 29.25, 118.48 39.07, 119.08 47.29 C119.68 55.5, 117.08 64.17, 112.58 71.55 C108.08 78.92, 100.46 86.96, 92.08 91.53 C83.69 96.1, 72.13 98.69, 62.28 98.96 C52.43 99.23, 41.62 97.04, 32.97 93.16 C24.33 89.28, 15.97 82.38, 10.41 75.67 C4.84 68.95, 0.3 61.01, -0.42 52.87 C-1.13 44.72, 1.38 34.2, 6.09 26.78 C10.81 19.37, 19.37 12.88, 27.9 8.38 C36.43 3.88, 47 -0.02, 57.28 -0.22 C67.55 -0.41, 83.99 5.78, 89.56 7.22 C95.13 8.65, 91.08 7.75, 90.71 8.42 M70.05 -0.39 C79.49 0, 88.35 5.69, 95.85 11.13 C103.35 16.57, 111.45 24.56, 115.04 32.25 C118.63 39.93, 118.94 48.98, 117.4 57.24 C115.86 65.5, 111.8 75.24, 105.81 81.8 C99.82 88.36, 90.67 94.04, 81.47 96.6 C72.27 99.17, 60.4 98.5, 50.6 97.19 C40.8 95.87, 30.48 93.68, 22.66 88.71 C14.85 83.74, 7.41 75.26, 3.69 67.35 C-0.02 59.44, -1.39 49.27, 0.35 41.24 C2.1 33.22, 7.84 25.48, 14.19 19.21 C20.54 12.93, 29.22 6.83, 38.44 3.6 C47.66 0.37, 64.5 0.35, 69.52 -0.16 C74.54 -0.68, 68.74 -0.48, 68.57 0.48" stroke="#1e1e1e" stroke-width="1" fill="none"></path></g><g transform="translate(1413.4557251255676 352.70802361974404) rotate(0 30.47998046875 20)"><text x="30.47998046875" y="0" font-family="Virgil, Segoe UI Emoji" font-size="16px" fill="#1e1e1e" text-anchor="middle" style="white-space: pre;" direction="ltr" dominant-baseline="text-before-edge">App </text><text x="30.47998046875" y="20" font-family="Virgil, Segoe UI Emoji" font-size="16px" fill="#1e1e1e" text-anchor="middle" style="white-space: pre;" direction="ltr" dominant-baseline="text-before-edge">feature</text></g><g transform="translate(1425.2885654836086 418.201278653465) rotate(0 20.71849822998047 31.508530635013074)"><text x="0" y="0" font-family="Virgil, Segoe UI Emoji" font-size="50.4136490160209px" fill="#1e1e1e" text-anchor="start" style="white-space: pre;" direction="ltr" dominant-baseline="text-before-edge">...</text></g><g stroke-linecap="round"><g transform="translate(1563.2294967922487 494.04641852338875) rotate(0 -0.48537329622786274 13.826115972332559)"><path d="M0.11 1.08 C0.23 5.34, 0.39 21.59, 0.3 25.6 M-1.3 0.61 C-1.27 5.05, -0.46 22.79, -0.49 27.05" stroke="#1e1e1e" stroke-width="1" fill="none"></path></g><g transform="translate(1563.2294967922487 494.04641852338875) rotate(0 -0.48537329622786274 13.826115972332559)"><path d="M-4.02 15.36 C-4.12 17.71, -3.35 22.51, -1.06 28.31 M-5.18 15.51 C-4.12 18.62, -2.45 23.43, 0.12 27.34" stroke="#1e1e1e" stroke-width="1" fill="none"></path></g><g transform="translate(1563.2294967922487 494.04641852338875) rotate(0 -0.48537329622786274 13.826115972332559)"><path d="M4.8 15.16 C2.36 17.56, 0.8 22.42, -1.06 28.31 M3.63 15.3 C1.69 18.44, 0.34 23.32, 0.12 27.34" stroke="#1e1e1e" stroke-width="1" fill="none"></path></g></g><mask></mask><g stroke-linecap="round"><g transform="translate(1551.146293645222 112.21719907733993) rotate(0 -0.6793340004297761 212.71129057564977)"><path d="M0.05 0.88 C0.04 71.63, -0.52 353.29, -0.86 423.91 M-1.38 0.29 C-1.41 71.25, -1.16 354.19, -1.41 425.13" stroke="#1e1e1e" stroke-width="1" fill="none"></path></g></g><mask></mask><g stroke-linecap="round"><g transform="translate(1562.4239499157802 147.66126164195205) rotate(0 -0.5213683383650505 -12.227419285103252)"><path d="M0.16 1.18 C0.22 -3, -0.37 -19.6, -0.49 -24.01 M-1.21 0.75 C-1.14 -3.23, -0.92 -21.47, -0.84 -25.63" stroke="#1e1e1e" stroke-width="1" fill="none"></path></g><g transform="translate(1562.4239499157802 147.66126164195205) rotate(0 -0.5213683383650505 -12.227419285103252)"><path d="M4.49 -12.64 C3.21 -15.42, 0.88 -19.49, -1.09 -26.05 M3.34 -14.15 C2.16 -16.99, 1.14 -21.57, -0.4 -25.11" stroke="#1e1e1e" stroke-width="1" fill="none"></path></g><g transform="translate(1562.4239499157802 147.66126164195205) rotate(0 -0.5213683383650505 -12.227419285103252)"><path d="M-4.07 -12.77 C-3.37 -15.53, -3.72 -19.57, -1.09 -26.05 M-5.22 -14.28 C-3.82 -17, -2.25 -21.54, -0.4 -25.11" stroke="#1e1e1e" stroke-width="1" fill="none"></path></g></g><mask></mask><g mask="url(#mask-imAx4Ey2gLacIoSAroutJ)" stroke-linecap="round"><g transform="translate(1586.101789349046 82.93441138175544) rotate(0 84.12275937632546 10.507501464959603)"><path d="M-0.26 0.94 C27.54 4.1, 138.37 16.33, 166.19 19.55 M1.81 0.38 C30.05 3.63, 141.18 17.11, 168.5 20.63" stroke="#1e1e1e" stroke-width="1" fill="none"></path></g><g transform="translate(1586.101789349046 82.93441138175544) rotate(0 84.12275937632546 10.507501464959603)"><path d="M140.82 26.07 C145.02 25.25, 153.47 24.11, 170.25 19.11 M140.08 26.34 C147.53 25.8, 156.84 23.39, 168.61 21.34" stroke="#1e1e1e" stroke-width="1" fill="none"></path></g><g transform="translate(1586.101789349046 82.93441138175544) rotate(0 84.12275937632546 10.507501464959603)"><path d="M143.35 5.71 C147.02 9.93, 154.84 13.84, 170.25 19.11 M142.61 5.98 C149.32 11.44, 157.88 15.03, 168.61 21.34" stroke="#1e1e1e" stroke-width="1" fill="none"></path></g></g><mask id="mask-imAx4Ey2gLacIoSAroutJ"><rect x="0" y="0" fill="#fff" width="1853.0458322997074" height="203.36497173550467"></rect><rect x="1639.5238382901973" y="80.64969155863008" fill="#000" width="60.099945068359375" height="25" opacity="1"></rect></mask><g transform="translate(1639.523838290197 80.64969155863005) rotate(0 30.7007104351743 12.792221288084988)"><text x="30.049972534179688" y="0" font-family="Virgil, Segoe UI Emoji" font-size="20px" fill="#1e1e1e" text-anchor="middle" style="white-space: pre;" direction="ltr" dominant-baseline="text-before-edge">*click*</text></g><g stroke-linecap="round" transform="translate(1508.4523091923936 52.60673021867407) rotate(0 41.08289069989132 25.37472660875642)"><path d="M26.21 1.72 C33.11 -0.39, 42.47 0.2, 50.09 1.47 C57.71 2.74, 66.72 5.87, 71.93 9.36 C77.14 12.84, 80.57 17.62, 81.35 22.37 C82.13 27.12, 80.81 33.57, 76.61 37.84 C72.4 42.11, 63.45 46.02, 56.12 47.98 C48.78 49.94, 40.24 50.59, 32.6 49.62 C24.96 48.64, 15.67 45.88, 10.28 42.12 C4.9 38.37, 1.09 32.17, 0.29 27.08 C-0.52 22, -0.31 16.11, 5.45 11.59 C11.21 7.07, 28.59 1.92, 34.84 -0.03 C41.1 -1.97, 42.91 -0.62, 42.99 -0.09 M34.1 1.1 C41.34 0.01, 51.72 -0.47, 59.13 1.76 C66.54 3.99, 74.92 9.9, 78.57 14.46 C82.21 19.03, 82.47 24.49, 81 29.13 C79.52 33.77, 75.03 38.99, 69.72 42.3 C64.41 45.6, 57.04 48.07, 49.14 48.95 C41.24 49.84, 29.94 49.61, 22.33 47.61 C14.73 45.61, 6.98 41.29, 3.51 36.96 C0.05 32.62, 0.13 26.26, 1.55 21.6 C2.96 16.95, 6.65 12.4, 12 9.03 C17.35 5.66, 30.02 3, 33.66 1.4 C37.29 -0.21, 33.91 -0.67, 33.81 -0.58" stroke="#1e1e1e" stroke-width="1" fill="none"></path></g><g transform="translate(1363.8055071664478 10) rotate(0 76.7099380493164 12.5)"><text x="76.7099380493164" y="0" font-family="Virgil, Segoe UI Emoji" font-size="20px" fill="#1e1e1e" text-anchor="middle" style="white-space: pre;" direction="ltr" dominant-baseline="text-before-edge">Mobile phone UI</text></g><g stroke-linecap="round" transform="translate(1762.4582550611021 43.611842882573654) rotate(0 141.37347682021436 244.33524858839294)"><path d="M32 0 M32 0 C104.43 1.27, 173.7 2.93, 250.75 0 M32 0 C111.55 -2.17, 191.1 -1.45, 250.75 0 M250.75 0 C272.95 -0.68, 281.14 11.6, 282.75 32 M250.75 0 C273.86 1.11, 282.22 12.89, 282.75 32 M282.75 32 C282.01 151.76, 282.36 270.15, 282.75 456.67 M282.75 32 C284.3 137.41, 284.45 243.42, 282.75 456.67 M282.75 456.67 C281.29 479.26, 273.3 488.7, 250.75 488.67 M282.75 456.67 C281.95 478.46, 272.02 486.98, 250.75 488.67 M250.75 488.67 C200.42 489.84, 149.34 489.09, 32 488.67 M250.75 488.67 C206.14 486.8, 162.81 486.87, 32 488.67 M32 488.67 C10.64 488.8, -1.03 476.03, 0 456.67 M32 488.67 C12.44 489.6, 0.24 480.18, 0 456.67 M0 456.67 C2.01 326.48, 2.02 197.36, 0 32 M0 456.67 C1.04 303.41, 1.73 150.04, 0 32 M0 32 C-1.26 11.46, 9.26 -0.8, 32 0 M0 32 C0.47 9.67, 10.08 0.92, 32 0" stroke="#1e1e1e" stroke-width="1" fill="none"></path></g><g transform="translate(1881.6612019129495 418.29249351687565) rotate(0 20.71849822998047 31.508530635013074)"><text x="0" y="0" font-family="Virgil, Segoe UI Emoji" font-size="50.4136490160209px" fill="#1e1e1e" text-anchor="start" style="white-space: pre;" direction="ltr" dominant-baseline="text-before-edge">...</text></g><g stroke-linecap="round"><g transform="translate(2024.5299666695764 488.20297995786996) rotate(0 0.1317396994131741 12.9147994857355)"><path d="M-1.19 -0.04 C-1.33 4.25, -1 21.17, -0.82 25.53 M0.38 -1.11 C0.62 3.38, 1.69 22.15, 1.46 26.94" stroke="#1e1e1e" stroke-width="1" fill="none"></path></g><g transform="translate(2024.5299666695764 488.20297995786996) rotate(0 0.1317396994131741 12.9147994857355)"><path d="M-3.14 13.99 C-2.01 18.37, -0.03 22.42, 1.62 26.25 M-2.62 14.54 C-1.69 17.53, -1.19 20.42, 1.42 26.39" stroke="#1e1e1e" stroke-width="1" fill="none"></path></g><g transform="translate(2024.5299666695764 488.20297995786996) rotate(0 0.1317396994131741 12.9147994857355)"><path d="M5.68 13.89 C4.16 18.21, 3.5 22.29, 1.62 26.25 M6.2 14.43 C5.09 17.4, 3.56 20.32, 1.42 26.39" stroke="#1e1e1e" stroke-width="1" fill="none"></path></g></g><mask></mask><g stroke-linecap="round"><g transform="translate(2012.1502411539955 250.89618182531595) rotate(0 0.08338992297467485 139.45349528126226)"><path d="M-0.82 -0.25 C-0.46 46.48, 0.61 233.6, 0.98 280.33 M0.95 -1.42 C1.24 44.93, -0.02 231.22, -0.05 278.38" stroke="#1e1e1e" stroke-width="1" fill="none"></path></g></g><mask></mask><g stroke-linecap="round"><g transform="translate(2001.4949145104863 63.72713491992417) rotate(359.9600855219589 13.006855027505821 -0.24085567076902237)"><path d="M-1.02 -1.15 C2.95 -1.53, 20.44 -1.3, 24.75 -1.2 M0.65 0.85 C4.91 1.09, 22.59 -0.23, 27.03 -0.29" stroke="#1e1e1e" stroke-width="1" fill="none"></path></g></g><mask></mask><g stroke-linecap="round"><g transform="translate(2003.92585798758 71.71259787372904) rotate(359.9600855219589 13.161470820882982 -0.14079573431006054)"><path d="M-0.81 -1.2 C3.5 -1.1, 20.47 -0.73, 24.81 -0.54 M0.97 0.79 C5.75 1.15, 23.24 0.63, 27.13 0.71" stroke="#1e1e1e" stroke-width="1" fill="none"></path></g></g><mask></mask><g stroke-linecap="round"><g transform="translate(2003.9326596187652 80.60212062289818) rotate(359.9600855219589 12.248186695368645 0.7334918971432245)"><path d="M-0.74 -0.54 C3.6 -0.35, 20.93 0.05, 25.24 -0.04 M1.07 1.79 C5.29 2.29, 20.28 1.83, 24.13 1.47" stroke="#1e1e1e" stroke-width="1" fill="none"></path></g></g><mask></mask><g stroke-linecap="round"><g transform="translate(1763.6796861075952 100.60340159413045) rotate(359.9600855219589 140.18652733411204 -1.1168328448715954)"><path d="M-0.32 -0.04 C46.59 -0.32, 233.65 -1.89, 280.69 -2.19 M1.72 -1.11 C48.5 -1.23, 232.88 -1.26, 279.52 -1.22" stroke="#1e1e1e" stroke-width="1" fill="none"></path></g></g><mask></mask><g stroke-linecap="round" transform="translate(1772.0809972868026 59.936537798915566) rotate(359.9600855219589 21.582687338501273 15.5)"><path d="M28.46 0.31 C32.87 1.15, 37.97 3.76, 40.4 6.58 C42.83 9.41, 43.74 13.76, 43.04 17.25 C42.33 20.74, 39.5 25.19, 36.16 27.51 C32.82 29.84, 27.58 31.24, 22.98 31.21 C18.39 31.17, 12.43 29.47, 8.6 27.31 C4.77 25.14, 0.92 21.52, 0 18.22 C-0.92 14.92, 0.76 10.32, 3.08 7.52 C5.41 4.72, 9.4 2.47, 13.95 1.41 C18.49 0.35, 27.54 1.06, 30.36 1.15 C33.18 1.24, 31.22 1.85, 30.87 1.95 M28.02 1.18 C32.19 1.85, 36.38 3.37, 38.98 6.13 C41.58 8.9, 43.93 14.46, 43.61 17.78 C43.3 21.09, 40.59 23.94, 37.09 26.03 C33.59 28.12, 27.24 29.7, 22.59 30.31 C17.95 30.93, 12.86 31.51, 9.23 29.72 C5.61 27.93, 2.2 23.03, 0.84 19.58 C-0.52 16.12, -0.82 11.84, 1.05 8.98 C2.93 6.11, 7.57 3.82, 12.08 2.41 C16.59 1, 25.81 0.86, 28.12 0.53 C30.42 0.19, 26.08 0.04, 25.93 0.4" stroke="#1e1e1e" stroke-width="1" fill="none"></path></g><g transform="translate(1785.1695633015322 69.64304935719079) rotate(359.9600855219589 8.732856750488281 5.833333333333329)"><text x="8.732856750488281" y="0" font-family="Virgil, Segoe UI Emoji" font-size="9.33333333333333px" fill="#1e1e1e" text-anchor="middle" style="white-space: pre;" direction="ltr" dominant-baseline="text-before-edge">logo</text></g><g transform="translate(1819.8955546878872 69.63931938212991) rotate(359.9600855219589 40.62144470214844 6.640826873385009)"><text x="0" y="0" font-family="Virgil, Segoe UI Emoji" font-size="10.625322997416015px" fill="#1e1e1e" text-anchor="start" style="white-space: pre;" direction="ltr" dominant-baseline="text-before-edge">NoMoreMeetings</text></g><g stroke-linecap="round" transform="translate(1762.131113792433 44.118091360342106) rotate(359.9600855219589 141.37347682021436 103.54593318480664)"><path d="M32 0 M32 0 C91.98 1.58, 153.06 1.09, 250.75 0 M32 0 C112.88 1.2, 195.68 0.28, 250.75 0 M250.75 0 C273.83 0.98, 282.74 10.4, 282.75 32 M250.75 0 C272.84 1.94, 282.62 10.38, 282.75 32 M282.75 32 C283.95 62.09, 281.83 91.21, 282.75 175.09 M282.75 32 C283.72 72.27, 282.34 112.21, 282.75 175.09 M282.75 175.09 C284.13 197.44, 270.36 206.13, 250.75 207.09 M282.75 175.09 C280.66 197.66, 273.57 208.88, 250.75 207.09 M250.75 207.09 C202.39 207.52, 150.92 205.97, 32 207.09 M250.75 207.09 C169.32 206.56, 89.19 207.92, 32 207.09 M32 207.09 C9.02 205.3, 0.84 196.92, 0 175.09 M32 207.09 C11.45 205.2, 1.81 195.66, 0 175.09 M0 175.09 C0.56 145.3, -0.01 113.66, 0 32 M0 175.09 C0.09 133.46, 0.09 89.47, 0 32 M0 32 C1.33 9.9, 9.5 -0.88, 32 0 M0 32 C1.88 8.46, 8.77 -1.9, 32 0" stroke="#1e1e1e" stroke-width="1" fill="none"></path></g><g transform="translate(1855.487980824402 144.70836316282518) rotate(359.9600855219589 47.15196228027344 10)"><text x="0" y="0" font-family="Virgil, Segoe UI Emoji" font-size="16px" fill="#868e96" text-anchor="start" style="white-space: pre;" direction="ltr" dominant-baseline="text-before-edge">User Profile</text></g><g transform="translate(1851.787820877427 179.42427761481073) rotate(359.9600855219589 52.239967346191406 10)"><text x="0" y="0" font-family="Virgil, Segoe UI Emoji" font-size="16px" fill="#868e96" text-anchor="start" style="white-space: pre;" direction="ltr" dominant-baseline="text-before-edge">Time Analysis</text></g><g transform="translate(1883.4056112399319 109.68159755923526) rotate(359.9600855219589 18.279991149902344 10)"><text x="0" y="0" font-family="Virgil, Segoe UI Emoji" font-size="16px" fill="#1e1e1e" text-anchor="start" style="white-space: pre;" direction="ltr" dominant-baseline="text-before-edge">Home</text></g><g transform="translate(1859.9976078513591 212.8388130445422) rotate(359.9600855219589 45.69597625732422 10)"><text x="0" y="0" font-family="Virgil, Segoe UI Emoji" font-size="16px" fill="#1e1e1e" text-anchor="start" style="white-space: pre;" direction="ltr" dominant-baseline="text-before-edge">Google login</text></g><g stroke-linecap="round" transform="translate(1847.6666263835448 205.26399587451166) rotate(359.9600855219589 58.40214854396322 16.916484405837622)"><path d="M8.46 0 M8.46 0 C48.03 -1.04, 88.01 1.37, 108.35 0 M8.46 0 C42.76 0.53, 78.57 -0.18, 108.35 0 M108.35 0 C115.17 1.29, 115.19 2.99, 116.8 8.46 M108.35 0 C112.52 0.97, 117.27 4.31, 116.8 8.46 M116.8 8.46 C115.75 14.75, 118.22 19.78, 116.8 25.37 M116.8 8.46 C116.59 13.58, 117.4 18.75, 116.8 25.37 M116.8 25.37 C116.08 31.64, 112.78 35.6, 108.35 33.83 M116.8 25.37 C114.52 30.8, 114.19 33.43, 108.35 33.83 M108.35 33.83 C88.74 32.46, 66.93 32.98, 8.46 33.83 M108.35 33.83 C88.35 34.38, 68.08 34.24, 8.46 33.83 M8.46 33.83 C3.37 34.39, 1.3 30.49, 0 25.37 M8.46 33.83 C2.33 35.14, -0.9 29.54, 0 25.37 M0 25.37 C0.38 22.54, -1.6 16.77, 0 8.46 M0 25.37 C0.11 21.03, -0.86 18.54, 0 8.46 M0 8.46 C-1.65 4.67, 1.89 0.9, 8.46 0 M0 8.46 C1.83 4.02, 2.75 -0.94, 8.46 0" stroke="#1e1e1e" stroke-width="1" fill="none"></path></g><g stroke-linecap="round" transform="translate(1842.849120038549 332.9251827321767) rotate(0 59.5 49.5)"><path d="M35.04 5.29 C43.19 1.22, 55.67 -1.33, 65.6 -0.51 C75.53 0.3, 86.77 5.16, 94.62 10.19 C102.46 15.22, 108.62 22.36, 112.69 29.67 C116.77 36.98, 120.01 45.79, 119.04 54.03 C118.08 62.27, 112.59 72.49, 106.92 79.11 C101.25 85.74, 93.72 90.62, 85.02 93.78 C76.32 96.94, 64.65 98.73, 54.72 98.09 C44.78 97.46, 33.81 94.66, 25.43 89.96 C17.04 85.27, 8.69 77.59, 4.41 69.92 C0.14 62.25, -1.33 52.18, -0.22 43.93 C0.89 35.69, 4.48 27.39, 11.07 20.45 C17.67 13.51, 33.54 5.31, 39.35 2.29 C45.16 -0.73, 45.34 1.41, 45.91 2.34 M36.72 4.08 C45.49 0.45, 58.93 -0.36, 69.05 0.6 C79.17 1.56, 89.73 4.92, 97.45 9.85 C105.17 14.78, 111.73 22.64, 115.35 30.19 C118.97 37.75, 120.51 46.95, 119.17 55.18 C117.83 63.4, 113.4 72.88, 107.32 79.53 C101.25 86.17, 91.84 91.66, 82.72 95.05 C73.6 98.43, 62.56 101.1, 52.61 99.84 C42.65 98.57, 31.24 92.98, 23.01 87.46 C14.78 81.94, 7.06 74.13, 3.22 66.72 C-0.61 59.31, -1.78 51.06, 0 42.99 C1.79 34.92, 7.54 24.7, 13.92 18.29 C20.31 11.87, 34.51 6.99, 38.3 4.51 C42.08 2.02, 36.27 2.5, 36.63 3.36" stroke="#1e1e1e" stroke-width="1" fill="none"></path></g><g transform="translate(1871.7962860891994 362.4233970634426) rotate(0 30.47998046875 19.99999999999997)"><text x="30.47998046875" y="0" font-family="Virgil, Segoe UI Emoji" font-size="16px" fill="#1e1e1e" text-anchor="middle" style="white-space: pre;" direction="ltr" dominant-baseline="text-before-edge">App </text><text x="30.47998046875" y="20" font-family="Virgil, Segoe UI Emoji" font-size="16px" fill="#1e1e1e" text-anchor="middle" style="white-space: pre;" direction="ltr" dominant-baseline="text-before-edge">feature</text></g><g transform="translate(1882.5851735457188 238.3773931873653) rotate(0 20.71849822998047 31.508530635013045)"><text x="0" y="0" font-family="Virgil, Segoe UI Emoji" font-size="50.4136490160209px" fill="#1e1e1e" text-anchor="start" style="white-space: pre;" direction="ltr" dominant-baseline="text-before-edge">...</text></g><g transform="translate(10 272.9842213401215) rotate(0 111.54595947265625 22.5)"><text x="111.54595947265625" y="0" font-family="Virgil, Segoe UI Emoji" font-size="36px" fill="#1e1e1e" text-anchor="middle" style="white-space: pre;" direction="ltr" dominant-baseline="text-before-edge">Landing page</text></g></svg>