<svg version="1.1" xmlns="http://www.w3.org/2000/svg" viewBox="0 0 1619.9722332902325 547.3653150463276" width="4859.916699870697" height="1642.0959451389829">
  <!-- svg-source:excalidraw -->
  
  <defs>
    <style class="style-fonts">
      @font-face {
        font-family: "Virgil";
        src: url("https://excalidraw.com/Virgil.woff2");
      }
      @font-face {
        font-family: "Cascadia";
        src: url("https://excalidraw.com/Cascadia.woff2");
      }
    </style>
  </defs>
  <rect x="0" y="0" width="1619.9722332902325" height="547.3653150463276" fill="#ffffff"></rect><g stroke-linecap="round"><g transform="translate(1568.1625373532038 70.88379631130988) rotate(0 12.513779568465225 0.4685234051841576)"><path d="M-0.59 -0.59 C3.77 -0.86, 21.26 -0.77, 25.62 -0.73 M1.3 1.72 C5.56 1.5, 20.79 0.57, 24.71 0.43" stroke="#1e1e1e" stroke-width="1" fill="none"></path></g></g><mask></mask><g stroke-linecap="round"><g transform="translate(1570.5878475122854 78.87105850457533) rotate(0 12.103019300529468 0.42565214459159506)"><path d="M0.06 -0.73 C4.42 -0.68, 21.4 -0.4, 25.57 -0.3 M-1.36 1.51 C2.89 1.79, 20.39 1.14, 24.62 1.08" stroke="#1e1e1e" stroke-width="1" fill="none"></path></g></g><mask></mask><g stroke-linecap="round"><g transform="translate(1570.5878475122859 87.75994739346402) rotate(0 11.820841733196517 -0.0713748076557863)"><path d="M0.01 -0.3 C4.18 -0.2, 20.84 -0.01, 25.08 -0.12 M-1.44 -1.5 C2.52 -1.14, 19.53 1.13, 23.89 1.36" stroke="#1e1e1e" stroke-width="1" fill="none"></path></g></g><mask></mask><g stroke-linecap="round" transform="translate(363.0038071944739 56.53458996210338) rotate(0 411.00000000000006 230)"><path d="M32 0 M32 0 C260.04 1.14, 487.62 0.73, 790 0 M32 0 C269.19 -0.07, 506.7 -0.35, 790 0 M790 0 C811.66 -1.91, 820.21 9.88, 822 32 M790 0 C811.09 0.8, 820.59 10.67, 822 32 M822 32 C822.86 132.32, 824.05 230.16, 822 428 M822 32 C824.11 145.78, 824.08 260.39, 822 428 M822 428 C820.88 451.12, 811.93 460.65, 790 460 M822 428 C822.15 447.63, 809.59 459.02, 790 460 M790 460 C519.93 458.1, 250.07 457.76, 32 460 M790 460 C580.67 457.46, 371.01 457.26, 32 460 M32 460 C10.53 459.26, -0.14 447.8, 0 428 M32 460 C12.16 458.09, -0.08 449.9, 0 428 M0 428 C-0.54 303.65, -0.01 179.76, 0 32 M0 428 C-1.72 283.52, -1.8 140.17, 0 32 M0 32 C0.78 11.41, 11.92 1.97, 32 0 M0 32 C0.14 12.68, 12.19 1.25, 32 0" stroke="#1e1e1e" stroke-width="1" fill="none"></path></g><g stroke-linecap="round"><g transform="translate(362.0038071944739 120.53458996210338) rotate(0 411.04541012853383 1.4201324965432036)"><path d="M-0.07 -0.93 C136.89 -0.56, 684.44 1.64, 821.31 2.15 M-1.57 1.19 C135.82 1.8, 686.13 3.38, 823.66 3.77" stroke="#1e1e1e" stroke-width="1" fill="none"></path></g></g><mask></mask><g stroke-linecap="round"><g transform="translate(580.003807194474 58.53458996210338) rotate(0 0.8718756229864084 32.49417653679848)"><path d="M-0.69 0.15 C-0.65 11.01, -0.13 53.35, 0.15 64.17 M1.15 -0.81 C1.57 10.34, 2.56 55.11, 2.42 65.8" stroke="#1e1e1e" stroke-width="1" fill="none"></path></g></g><mask></mask><g stroke-linecap="round" transform="translate(377.0038071944739 67.53458996210338) rotate(0 32.5 21.5)"><path d="M33.06 0.17 C39.37 -0.35, 47.52 1.33, 52.7 4.29 C57.89 7.24, 62.82 13.3, 64.17 17.89 C65.52 22.49, 64.3 27.94, 60.82 31.84 C57.34 35.74, 49.81 39.54, 43.28 41.3 C36.76 43.05, 28.25 43.82, 21.66 42.38 C15.07 40.93, 7.15 36.95, 3.73 32.64 C0.31 28.34, -0.19 21.03, 1.15 16.56 C2.49 12.1, 6.04 8.62, 11.77 5.86 C17.5 3.09, 30.99 0.82, 35.54 -0.03 C40.08 -0.88, 39.01 0.47, 39.06 0.77 M46.62 0.99 C52.5 2.45, 57.94 7.64, 60.95 11.97 C63.96 16.3, 66.46 22.39, 64.66 26.97 C62.85 31.56, 56.08 36.68, 50.1 39.48 C44.11 42.28, 35.75 44.33, 28.75 43.78 C21.74 43.24, 12.69 39.85, 8.06 36.2 C3.43 32.55, 1.11 26.42, 0.97 21.9 C0.83 17.38, 3.12 12.71, 7.2 9.06 C11.29 5.4, 18.92 1.23, 25.46 -0.02 C31.99 -1.27, 42.98 1.32, 46.42 1.55 C49.87 1.78, 46.19 1.13, 46.14 1.34" stroke="#1e1e1e" stroke-width="1" fill="none"></path></g><g transform="translate(394.5468465105009 78.83179416659266) rotate(0 14.975990295410156 10)"><text x="14.975990295410156" y="0" font-family="Virgil, Segoe UI Emoji" font-size="16px" fill="#1e1e1e" text-anchor="middle" style="white-space: pre;" direction="ltr" dominant-baseline="text-before-edge">logo</text></g><g transform="translate(449.0038071944739 78.53458996210338) rotate(0 61.19996643066406 10)"><text x="0" y="0" font-family="Virgil, Segoe UI Emoji" font-size="16px" fill="#1e1e1e" text-anchor="start" style="white-space: pre;" direction="ltr" dominant-baseline="text-before-edge">NoMoreMeetings</text></g><g stroke-linecap="round"><g transform="translate(1036.0038071944741 55.53458996210338) rotate(0 -0.043657542717880915 32.834362105764455)"><path d="M0.2 -1.15 C-0.15 9.73, -1.02 54.27, -1.08 65.53 M-1.16 0.86 C-1.23 11.88, 1.04 56.24, 1.07 66.82" stroke="#1e1e1e" stroke-width="1" fill="none"></path></g></g><mask></mask><g transform="translate(1066.0038071944741 80.53458996210338) rotate(0 45.69597625732422 10)"><text x="0" y="0" font-family="Virgil, Segoe UI Emoji" font-size="16px" fill="#1e1e1e" text-anchor="start" style="white-space: pre;" direction="ltr" dominant-baseline="text-before-edge">Google login</text></g><g transform="translate(795.003807194474 80.53458996210338) rotate(0 47.15196228027344 10)"><text x="0" y="0" font-family="Virgil, Segoe UI Emoji" font-size="16px" fill="#1e1e1e" text-anchor="start" style="white-space: pre;" direction="ltr" dominant-baseline="text-before-edge">User Profile</text></g><g transform="translate(664.003807194474 79.53458996210338) rotate(0 52.239967346191406 10)"><text x="0" y="0" font-family="Virgil, Segoe UI Emoji" font-size="16px" fill="#868e96" text-anchor="start" style="white-space: pre;" direction="ltr" dominant-baseline="text-before-edge">Time Analysis</text></g><g stroke-linecap="round"><g stroke-opacity="0.2" fill-opacity="0.2" transform="translate(652.0038071944738 58.53458996210338) rotate(0 0.3888673226986725 31.890301240682618)"><path d="M-0.58 0.73 C-0.31 11.14, 0.69 51.96, 0.91 62.46 M1.32 0.07 C1.57 10.63, 0.6 53.44, 0.43 63.71" stroke="#1e1e1e" stroke-width="1" fill="none"></path></g></g><mask></mask><g stroke-linecap="round"><g stroke-opacity="0.2" fill-opacity="0.2" transform="translate(779.003807194474 54.53458996210338) rotate(0 0.47701063171507485 34.582802848890424)"><path d="M0.91 -0.54 C1.12 10.96, 1.06 58.14, 0.72 69.71 M-0.08 1.79 C0.09 12.88, -0.05 56.57, 0.15 67.95" stroke="#1e1e1e" stroke-width="1" fill="none"></path></g></g><mask></mask><g transform="translate(599.003807194474 78.53458996210338) rotate(0 18.279991149902344 10)"><text x="0" y="0" font-family="Virgil, Segoe UI Emoji" font-size="16px" fill="#868e96" text-anchor="start" style="white-space: pre;" direction="ltr" dominant-baseline="text-before-edge">Home</text></g><g transform="translate(679.1838837935951 13.534589962103382) rotate(0 95.8199234008789 12.5)"><text x="95.8199234008789" y="0" font-family="Virgil, Segoe UI Emoji" font-size="20px" fill="#1e1e1e" text-anchor="middle" style="white-space: pre;" direction="ltr" dominant-baseline="text-before-edge">Desktop/Tablet UI</text></g><g stroke-linecap="round" transform="translate(1327.0514262420925 49.772685200198566) rotate(0 141.1111111111111 243.33333333333337)"><path d="M32 0 M32 0 C87.11 -0.67, 139.76 1.78, 250.22 0 M32 0 C79.68 -0.48, 126.07 -0.4, 250.22 0 M250.22 0 C271.42 -1.54, 283.52 9.01, 282.22 32 M250.22 0 C271.47 0.57, 282.54 11.28, 282.22 32 M282.22 32 C282.91 129.13, 283.04 226.59, 282.22 454.67 M282.22 32 C281.07 181.25, 281.55 329.82, 282.22 454.67 M282.22 454.67 C283.47 477.97, 271.68 488.41, 250.22 486.67 M282.22 454.67 C283.74 477.25, 271.4 488.61, 250.22 486.67 M250.22 486.67 C197.18 488.47, 145.09 487.46, 32 486.67 M250.22 486.67 C201.17 486.82, 153.27 486.82, 32 486.67 M32 486.67 C9.63 487.49, 0.31 475.73, 0 454.67 M32 486.67 C10.31 484.86, 0.07 474.04, 0 454.67 M0 454.67 C2.22 354.61, 1.31 254.22, 0 32 M0 454.67 C-0.21 317.71, -1.01 180.55, 0 32 M0 32 C-0.54 9.36, 12.41 0.36, 32 0 M0 32 C-2.09 10.89, 9.61 -1.38, 32 0" stroke="#1e1e1e" stroke-width="1" fill="none"></path></g><g stroke-linecap="round"><g transform="translate(1328.1625373532038 111.99490742242074) rotate(0 140.41016294803046 -1.202113394397827)"><path d="M-0.99 -0.28 C46.06 -0.75, 234.64 -1.99, 281.81 -2.12 M0.69 -1.47 C47.69 -1.89, 234.39 -1.41, 281.23 -1.12" stroke="#1e1e1e" stroke-width="1" fill="none"></path></g></g><mask></mask><g stroke-linecap="round" transform="translate(1338.7403487003176 66.93935186686531) rotate(0 21.582687338501273 15.5)"><path d="M29.14 1.04 C33.26 1.9, 38.11 5.07, 40.24 8.11 C42.37 11.16, 42.96 16.07, 41.94 19.33 C40.91 22.58, 37.56 25.68, 34.09 27.65 C30.62 29.62, 25.58 31.35, 21.14 31.13 C16.7 30.91, 10.93 28.6, 7.46 26.34 C3.98 24.09, 0.9 20.73, 0.28 17.59 C-0.33 14.45, 1.23 10.19, 3.77 7.49 C6.31 4.8, 10.92 2.5, 15.49 1.43 C20.07 0.36, 28.65 1.04, 31.24 1.07 C33.83 1.09, 31.13 1.23, 31.03 1.6 M25.64 1.57 C30.02 1.85, 36.35 3.91, 39.25 6.47 C42.15 9.03, 43.43 13.74, 43.06 16.93 C42.7 20.12, 40.05 23.37, 37.08 25.6 C34.11 27.83, 29.42 29.78, 25.24 30.3 C21.06 30.81, 15.92 30.49, 12.01 28.69 C8.1 26.88, 3.38 22.67, 1.77 19.48 C0.15 16.3, 0.94 12.28, 2.31 9.58 C3.69 6.88, 6.15 4.62, 10.04 3.28 C13.93 1.94, 23.21 1.9, 25.65 1.55 C28.09 1.2, 24.74 1.18, 24.7 1.19" stroke="#1e1e1e" stroke-width="1" fill="none"></path></g><g transform="translate(1351.8289147150472 76.64586342514042) rotate(0 8.732856750488281 5.833333333333314)"><text x="8.732856750488281" y="0" font-family="Virgil, Segoe UI Emoji" font-size="9.33333333333333px" fill="#1e1e1e" text-anchor="middle" style="white-space: pre;" direction="ltr" dominant-baseline="text-before-edge">logo</text></g><g transform="translate(1386.5543021886897 76.68870587203332) rotate(0 40.62144470214844 6.640826873384981)"><text x="0" y="0" font-family="Virgil, Segoe UI Emoji" font-size="10.625322997416015px" fill="#1e1e1e" text-anchor="start" style="white-space: pre;" direction="ltr" dominant-baseline="text-before-edge">NoMoreMeetings</text></g><g stroke-linecap="round"><g transform="translate(1592.4104804095614 494.04641852338887) rotate(0 -0.7301549429073475 13.229500940728826)"><path d="M-0.13 0.63 C0.04 5.04, 0.05 22.25, 0.2 26.55 M-1.66 -0.09 C-1.56 3.98, -0.99 20.75, -0.64 24.83" stroke="#1e1e1e" stroke-width="1" fill="none"></path></g><g transform="translate(1592.4104804095614 494.04641852338887) rotate(0 -0.7301549429073475 13.229500940728826)"><path d="M-5.03 13.2 C-3.71 16.55, -2.7 17.91, -1.37 24.15 M-5.31 13.61 C-3.68 18.05, -1.36 22.37, -0.68 25.37" stroke="#1e1e1e" stroke-width="1" fill="none"></path></g><g transform="translate(1592.4104804095614 494.04641852338887) rotate(0 -0.7301549429073475 13.229500940728826)"><path d="M3.77 12.71 C3.07 16.16, 2.06 17.64, -1.37 24.15 M3.5 13.12 C1.75 17.78, 0.71 22.29, -0.68 25.37" stroke="#1e1e1e" stroke-width="1" fill="none"></path></g></g><mask></mask><g stroke-linecap="round"><g transform="translate(1580.3272772625346 112.21719907733996) rotate(0 -0.5739119549250518 212.63699286162125)"><path d="M0.2 0.77 C0.09 71.52, -0.44 354.64, -0.82 425.15 M-1.15 0.13 C-1.34 70.47, -1.03 352.57, -1.35 423.35" stroke="#1e1e1e" stroke-width="1" fill="none"></path></g></g><mask></mask><g transform="translate(1392.9864907837605 10) rotate(0 76.7099380493164 12.5)"><text x="76.7099380493164" y="0" font-family="Virgil, Segoe UI Emoji" font-size="20px" fill="#1e1e1e" text-anchor="middle" style="white-space: pre;" direction="ltr" dominant-baseline="text-before-edge">Mobile phone UI</text></g><g transform="translate(10 279.1981849494822) rotate(0 151.81192016601562 22.499999999999943)"><text x="151.81192016601562" y="0" font-family="Virgil, Segoe UI Emoji" font-size="36px" fill="#1e1e1e" text-anchor="middle" style="white-space: pre;" direction="ltr" dominant-baseline="text-before-edge">User profile page</text></g><g stroke-linecap="round" transform="translate(383.28450172599 135.9898728398116) rotate(0 390.99888186610383 27.697677582014478)"><path d="M13.85 0 M13.85 0 C188.15 -1.72, 364.12 -1.46, 768.15 0 M13.85 0 C210.72 0.15, 407.19 0.5, 768.15 0 M768.15 0 C776.6 -1.13, 782.43 5.09, 782 13.85 M768.15 0 C779.3 1.72, 783.84 2.87, 782 13.85 M782 13.85 C783.3 26.31, 783.26 35.52, 782 41.55 M782 13.85 C782.02 20.79, 781.34 29.89, 782 41.55 M782 41.55 C783.31 51.58, 777.15 56.67, 768.15 55.4 M782 41.55 C781.05 50.42, 776.4 54.51, 768.15 55.4 M768.15 55.4 C518.21 53, 267.5 54.29, 13.85 55.4 M768.15 55.4 C551.66 56.31, 335.1 56.73, 13.85 55.4 M13.85 55.4 C5.35 54.76, -0.69 51.23, 0 41.55 M13.85 55.4 C3.66 56.66, 0.34 49.38, 0 41.55 M0 41.55 C-1.06 32.2, 1.91 22.53, 0 13.85 M0 41.55 C-0.69 31.82, 0.52 21.52, 0 13.85 M0 13.85 C-1.03 2.63, 5.55 1.87, 13.85 0 M0 13.85 C-0.33 3.81, 5.87 -0.56, 13.85 0" stroke="#1e1e1e" stroke-width="1" fill="none"></path></g><g stroke-linecap="round" transform="translate(399.2842143147095 200.61778719784536) rotate(0 81.24652090724234 82.63140478634301)"><path d="M32 0 M32 0 C58.35 -0.74, 80.24 0.63, 130.49 0 M32 0 C58.9 -0.58, 87.14 -1.36, 130.49 0 M130.49 0 C152.43 1.73, 161.78 10.68, 162.49 32 M130.49 0 C153.42 0.84, 160.37 9.61, 162.49 32 M162.49 32 C163.69 69.95, 163.11 105.99, 162.49 133.26 M162.49 32 C162.44 58.96, 163.16 86.66, 162.49 133.26 M162.49 133.26 C162.2 153.16, 152.03 165.55, 130.49 165.26 M162.49 133.26 C164.68 156.72, 153.55 165.97, 130.49 165.26 M130.49 165.26 C106.38 166.11, 84.6 167.05, 32 165.26 M130.49 165.26 C93.51 163.54, 54.28 163.85, 32 165.26 M32 165.26 C10.8 164.01, -1.72 156.53, 0 133.26 M32 165.26 C11.03 165.26, -0.24 154.64, 0 133.26 M0 133.26 C-0.66 97.05, 2.59 59.44, 0 32 M0 133.26 C1.55 110.7, 1.68 86.37, 0 32 M0 32 C0.37 9.15, 11.53 1.12, 32 0 M0 32 C0.76 11.23, 10.19 -1.14, 32 0" stroke="#1e1e1e" stroke-width="1" fill="none"></path></g><g stroke-linecap="round" transform="translate(583.0121422754053 204.31081087544737) rotate(0 283.901195215648 148.64420302347747)"><path d="M32 0 M32 0 C139.34 0.63, 245.88 1.91, 535.8 0 M32 0 C191.03 0.49, 349.8 0.21, 535.8 0 M535.8 0 C555.87 1.34, 569.79 11.93, 567.8 32 M535.8 0 C555.47 -1.73, 568.13 12.47, 567.8 32 M567.8 32 C569.93 112.16, 570.35 195.82, 567.8 265.29 M567.8 32 C567.87 109.21, 568.03 186.68, 567.8 265.29 M567.8 265.29 C566.55 285.98, 557.72 298.09, 535.8 297.29 M567.8 265.29 C568.87 285.97, 557.56 299.58, 535.8 297.29 M535.8 297.29 C432.24 297.7, 328.74 297.33, 32 297.29 M535.8 297.29 C429.47 296.12, 322.43 296.28, 32 297.29 M32 297.29 C10.88 296.04, -0.66 288.53, 0 265.29 M32 297.29 C12.96 296.47, -1.08 285.76, 0 265.29 M0 265.29 C-1 209.7, -0.51 155.03, 0 32 M0 265.29 C-1.27 185.03, -1.07 104.7, 0 32 M0 32 C1.15 10.43, 8.95 0.46, 32 0 M0 32 C-1.16 12.26, 10.68 2.22, 32 0" stroke="#1e1e1e" stroke-width="1" fill="none"></path></g><g transform="translate(406.652187571669 151.52940835621462) rotate(0 57.25994110107422 12.5)"><text x="57.25994110107422" y="0" font-family="Virgil, Segoe UI Emoji" font-size="20px" fill="#1e1e1e" text-anchor="middle" style="white-space: pre;" direction="ltr" dominant-baseline="text-before-edge">User profile</text></g><g stroke-linecap="round" transform="translate(430.6749155743259 212.62011415005168) rotate(0 48.5 41.5)"><path d="M30.97 2.52 C38.55 -0.58, 50.79 -1.26, 59.33 0.31 C67.87 1.88, 75.94 6.46, 82.2 11.96 C88.46 17.47, 94.96 25.98, 96.87 33.35 C98.79 40.72, 97.03 49.38, 93.68 56.18 C90.34 62.98, 83.67 69.8, 76.8 74.15 C69.93 78.5, 61.13 81.49, 52.48 82.28 C43.83 83.06, 32.64 82.35, 24.88 78.86 C17.13 75.36, 10.07 68.16, 5.97 61.29 C1.87 54.42, -0.3 45.18, 0.26 37.61 C0.83 30.04, 3.99 21.91, 9.38 15.85 C14.77 9.79, 28.11 3.38, 32.59 1.25 C37.07 -0.88, 35.97 2.17, 36.28 3.07 M30.62 2.62 C38.07 -0.64, 49.23 0.39, 57.52 1.84 C65.8 3.29, 74.23 6.38, 80.31 11.32 C86.39 16.26, 91.67 24.16, 94.01 31.47 C96.35 38.78, 96.56 48.42, 94.34 55.2 C92.12 61.97, 87.56 67.38, 80.69 72.14 C73.82 76.89, 62.01 82.36, 53.14 83.72 C44.26 85.08, 34.87 83.62, 27.44 80.31 C20.01 77, 12.88 70.46, 8.56 63.87 C4.24 57.27, 1.38 48.41, 1.5 40.74 C1.62 33.06, 4.89 24.19, 9.28 17.8 C13.66 11.42, 24.52 4.64, 27.8 2.41 C31.07 0.17, 28.55 3.75, 28.94 4.4" stroke="#1e1e1e" stroke-width="1" fill="none"></path></g><g transform="translate(453.7642546311143 234.27518273081) rotate(0 25.615982055664062 20)"><text x="25.615982055664062" y="0" font-family="Virgil, Segoe UI Emoji" font-size="16px" fill="#1e1e1e" text-anchor="middle" style="white-space: pre;" direction="ltr" dominant-baseline="text-before-edge">Person</text><text x="25.615982055664062" y="20" font-family="Virgil, Segoe UI Emoji" font-size="16px" fill="#1e1e1e" text-anchor="middle" style="white-space: pre;" direction="ltr" dominant-baseline="text-before-edge">image</text></g><g transform="translate(440.9817316249164 305.86896200950036) rotate(0 35.855979919433594 10)"><text x="35.855979919433594" y="0" font-family="Virgil, Segoe UI Emoji" font-size="16px" fill="#1e1e1e" text-anchor="middle" style="white-space: pre;" direction="ltr" dominant-baseline="text-before-edge">Full name</text></g><g stroke-linecap="round" transform="translate(400.20747023411 373.2666441257354) rotate(0 79.86163702814162 63.70465843863326)"><path d="M31.85 0 M31.85 0 C68.79 -2.09, 109 0.63, 127.87 0 M31.85 0 C68 0.75, 104.91 0.57, 127.87 0 M127.87 0 C147.14 0.09, 159.92 10.84, 159.72 31.85 M127.87 0 C150.04 -0.96, 160.85 11.02, 159.72 31.85 M159.72 31.85 C159.45 47.1, 160.06 65.38, 159.72 95.56 M159.72 31.85 C160.95 56.6, 159.1 81.49, 159.72 95.56 M159.72 95.56 C160.08 118.19, 148.9 126.12, 127.87 127.41 M159.72 95.56 C159.66 117.35, 150.2 128.21, 127.87 127.41 M127.87 127.41 C106.09 126.27, 83.93 128.7, 31.85 127.41 M127.87 127.41 C104.7 126.73, 80.28 127.54, 31.85 127.41 M31.85 127.41 C9.71 127.7, 1.98 116.85, 0 95.56 M31.85 127.41 C8.98 127.06, -0.54 115.96, 0 95.56 M0 95.56 C-0.11 77.07, -2.41 61.04, 0 31.85 M0 95.56 C-0.77 81.38, 0.42 68.13, 0 31.85 M0 31.85 C1.33 10.16, 9.93 0.38, 31.85 0 M0 31.85 C-1.62 9.97, 12.64 0.53, 31.85 0" stroke="#1e1e1e" stroke-width="1" fill="none"></path></g><g transform="translate(423.41225835629547 335.41315143031557) rotate(0 55.27196502685547 10)"><text x="55.27196502685547" y="0" font-family="Virgil, Segoe UI Emoji" font-size="16px" fill="#1e1e1e" text-anchor="middle" style="white-space: pre;" direction="ltr" dominant-baseline="text-before-edge">08:00 - 17:00</text></g><g transform="translate(427.6635172053834 377.8829237227376) rotate(0 51.94396209716797 10)"><text x="51.94396209716797" y="0" font-family="Virgil, Segoe UI Emoji" font-size="16px" fill="#1e1e1e" text-anchor="middle" style="white-space: pre;" direction="ltr" dominant-baseline="text-before-edge">Working hours</text></g><g stroke-opacity="0.5" fill-opacity="0.5" transform="translate(435.36899206091834 400.9643217077496) rotate(0 42.39197540283203 10)"><text x="42.39197540283203" y="0" font-family="Virgil, Segoe UI Emoji" font-size="16px" fill="#343a40" text-anchor="middle" style="white-space: pre;" direction="ltr" dominant-baseline="text-before-edge">Start time</text></g><g transform="translate(469.33847448481276 414.81316049875704) rotate(0 6.575981140136719 10)"><text x="6.575981140136719" y="0" font-family="Virgil, Segoe UI Emoji" font-size="16px" fill="#1e1e1e" text-anchor="middle" style="white-space: pre;" direction="ltr" dominant-baseline="text-before-edge">...</text></g><g stroke-opacity="0.5" fill-opacity="0.5" transform="translate(436.08572790177175 431.12595420167054) rotate(0 40.751983642578125 10)"><text x="40.751983642578125" y="0" font-family="Virgil, Segoe UI Emoji" font-size="16px" fill="#343a40" text-anchor="middle" style="white-space: pre;" direction="ltr" dominant-baseline="text-before-edge">Lunch time</text></g><g transform="translate(468.4152185654124 442.20502523447635) rotate(0 6.575981140136719 10)"><text x="6.575981140136719" y="0" font-family="Virgil, Segoe UI Emoji" font-size="16px" fill="#1e1e1e" text-anchor="middle" style="white-space: pre;" direction="ltr" dominant-baseline="text-before-edge">...</text></g><g stroke-opacity="0.5" fill-opacity="0.5" transform="translate(439.7527048345214 463.4399113806876) rotate(0 33.39198303222656 10)"><text x="33.39198303222656" y="0" font-family="Virgil, Segoe UI Emoji" font-size="16px" fill="#343a40" text-anchor="middle" style="white-space: pre;" direction="ltr" dominant-baseline="text-before-edge">End time</text></g><g transform="translate(468.4152185654123 473.59572649409324) rotate(0 6.575981140136719 10)"><text x="6.575981140136719" y="0" font-family="Virgil, Segoe UI Emoji" font-size="16px" fill="#1e1e1e" text-anchor="middle" style="white-space: pre;" direction="ltr" dominant-baseline="text-before-edge">...</text></g><g stroke-linecap="round"><g transform="translate(401.13072615351047 399.1178098689488) rotate(0 77.47607281555705 0.46142703546740904)"><path d="M-0.72 0.82 C25.34 1.17, 129.71 1.22, 155.68 1.4 M1.1 0.2 C27.11 0.26, 129.49 -0.44, 155.03 -0.48" stroke="#1e1e1e" stroke-width="1" fill="none"></path></g></g><mask></mask><g stroke-linecap="round"><g transform="translate(583.0121422754053 244.01081540966788) rotate(0 283.90581102239145 0.423243963335608)"><path d="M1.02 -0.71 C95.72 -0.68, 473.22 -0.48, 567.71 -0.27 M0.1 1.54 C94.76 1.7, 472.58 0.62, 567.2 0.65" stroke="#1e1e1e" stroke-width="1" fill="none"></path></g></g><mask></mask><g transform="translate(605.4972877806434 218.15964966645447) rotate(0 35.67997741699219 10)"><text x="35.67997741699219" y="0" font-family="Virgil, Segoe UI Emoji" font-size="16px" fill="#1e1e1e" text-anchor="middle" style="white-space: pre;" direction="ltr" dominant-baseline="text-before-edge">User info</text></g><g transform="translate(696.7236212988496 266.1689574752795) rotate(0 35.855979919433594 10)"><text x="35.855979919433594" y="0" font-family="Virgil, Segoe UI Emoji" font-size="16px" fill="#1e1e1e" text-anchor="middle" style="white-space: pre;" direction="ltr" dominant-baseline="text-before-edge">Full name</text></g><g transform="translate(712.0083579331601 307.71547384830114) rotate(0 19.647987365722656 10)"><text x="19.647987365722656" y="0" font-family="Virgil, Segoe UI Emoji" font-size="16px" fill="#1e1e1e" text-anchor="middle" style="white-space: pre;" direction="ltr" dominant-baseline="text-before-edge">Email</text></g><g transform="translate(933.2705494208926 267.0922133946799) rotate(0 58.74396514892578 10)"><text x="58.74396514892578" y="0" font-family="Virgil, Segoe UI Emoji" font-size="16px" fill="#1e1e1e" text-anchor="middle" style="white-space: pre;" direction="ltr" dominant-baseline="text-before-edge">Name lastname</text></g><g transform="translate(913.8335453355758 304.02245017069913) rotate(0 74.48794555664062 10)"><text x="74.48794555664062" y="0" font-family="Virgil, Segoe UI Emoji" font-size="16px" fill="#1e1e1e" text-anchor="middle" style="white-space: pre;" direction="ltr" dominant-baseline="text-before-edge">ecxample@email.com</text></g><g stroke-linecap="round"><g transform="translate(583.6933663730521 338.72963879321014) rotate(0 282.87778013774374 1.1334915951467792)"><path d="M0.45 -2.34 C94.74 -2.46, 473.92 0.03, 568.5 0.88 M-2.74 2.55 C91.07 2.77, 472.23 5.21, 567.14 4.48" stroke="#1e1e1e" stroke-width="1" fill="none"></path></g></g><mask></mask><g transform="translate(594.1423225666438 349.2619902213228) rotate(0 50.72796630859375 10)"><text x="50.72796630859375" y="0" font-family="Virgil, Segoe UI Emoji" font-size="16px" fill="#1e1e1e" text-anchor="middle" style="white-space: pre;" direction="ltr" dominant-baseline="text-before-edge">Configuration</text></g><g stroke-linecap="round"><g transform="translate(585.0306275159987 373.52834420923796) rotate(0 282.47136682721026 0.5592998537667881)"><path d="M0.03 0.54 C94.54 0.97, 471.8 1.48, 566.36 1.53 M-1.42 -0.23 C92.96 -0.05, 470.42 -0.66, 565.14 -0.28" stroke="#1e1e1e" stroke-width="1" fill="none"></path></g></g><mask></mask><g transform="translate(602.9131278750467 392.6550184331454) rotate(0 88.11995697021484 10)"><text x="88.11995697021484" y="0" font-family="Virgil, Segoe UI Emoji" font-size="16px" fill="#1e1e1e" text-anchor="middle" style="white-space: pre;" direction="ltr" dominant-baseline="text-before-edge">Time between meetings</text></g><g transform="translate(639.9652061059622 425.89223153156263) rotate(0 65.83997344970703 10)"><text x="65.83997344970703" y="0" font-family="Virgil, Segoe UI Emoji" font-size="16px" fill="#1e1e1e" text-anchor="middle" style="white-space: pre;" direction="ltr" dominant-baseline="text-before-edge">Days to analyze</text></g><g transform="translate(618.2191733991959 460.9759564687811) rotate(0 80.19995880126953 10)"><text x="80.19995880126953" y="0" font-family="Virgil, Segoe UI Emoji" font-size="16px" fill="#1e1e1e" text-anchor="middle" style="white-space: pre;" direction="ltr" dominant-baseline="text-before-edge">Calendar to analyze</text></g><g stroke-linecap="round" transform="translate(920.9238087759811 458.2061887105799) rotate(0 104.78954685195464 12.002326952206204)"><path d="M6 0 M6 0 C82.61 -2.61, 158.43 0.12, 203.58 0 M6 0 C70.86 -0.8, 133.95 -0.54, 203.58 0 M203.58 0 C206.6 0.38, 208.66 3.62, 209.58 6 M203.58 0 C205.96 -0.21, 211.53 3.73, 209.58 6 M209.58 6 C210.14 11.74, 210.7 15.48, 209.58 18 M209.58 6 C209.28 9.73, 209.31 13.47, 209.58 18 M209.58 18 C210.41 20.39, 206.79 25, 203.58 24 M209.58 18 C211.49 24.07, 207.06 22.83, 203.58 24 M203.58 24 C161.01 27.24, 116.44 23.77, 6 24 M203.58 24 C127.24 25.71, 52.86 24.84, 6 24 M6 24 C3.91 24.82, 0.45 20.12, 0 18 M6 24 C0.86 24.53, 2.01 23.37, 0 18 M0 18 C-0.22 12.81, -0.44 8.24, 0 6 M0 18 C-0.02 14.02, -0.05 10.14, 0 6 M0 6 C-0.69 1.63, 2.37 -1.94, 6 0 M0 6 C-0.08 4.13, 0.25 1.04, 6 0" stroke="#1e1e1e" stroke-width="1" fill="none"></path></g><g stroke-linecap="round"><g transform="translate(1117.4089597732695 464.20153480616705) rotate(0 -0.19988584821976474 4.984284586862714)"><path d="M0.22 1.15 C0.25 2.6, 0.78 6.71, 0.74 8.08 M-1.13 0.72 C-1.25 2.35, 0.05 8.15, 0.09 9.25" stroke="#1e1e1e" stroke-width="1" fill="none"></path></g><g transform="translate(1117.4089597732695 464.20153480616705) rotate(0 -0.19988584821976474 4.984284586862714)"><path d="M-1.58 5.6 C-1.56 6.64, -0.38 8.4, 0.1 9.07 M-1.88 5.57 C-1.31 6.53, -0.71 8.1, 0.14 9.32" stroke="#1e1e1e" stroke-width="1" fill="none"></path></g><g transform="translate(1117.4089597732695 464.20153480616705) rotate(0 -0.19988584821976474 4.984284586862714)"><path d="M1.39 5.16 C0.39 6.35, 0.55 8.27, 0.1 9.07 M1.09 5.13 C0.68 6.26, 0.31 7.98, 0.14 9.32" stroke="#1e1e1e" stroke-width="1" fill="none"></path></g></g><mask></mask><g transform="translate(960.6111942310666 461.89921238818147) rotate(0 55.40797424316406 10)"><text x="55.40797424316406" y="0" font-family="Virgil, Segoe UI Emoji" font-size="16px" fill="#1e1e1e" text-anchor="middle" style="white-space: pre;" direction="ltr" dominant-baseline="text-before-edge">calendar name</text></g><g stroke-linecap="round" transform="translate(920.0005528565807 423.12246377336123) rotate(0 104.32791889225444 15)"><path d="M7.5 0 M7.5 0 C69.87 -0.8, 130.94 -0.51, 201.16 0 M7.5 0 C75.73 0.29, 141.32 -0.57, 201.16 0 M201.16 0 C205.48 1.76, 207.8 1.51, 208.66 7.5 M201.16 0 C205.85 -2.07, 207.35 1.65, 208.66 7.5 M208.66 7.5 C210.02 11.26, 209.37 14.94, 208.66 22.5 M208.66 7.5 C209.39 12.64, 208.2 18.37, 208.66 22.5 M208.66 22.5 C209.44 27.91, 205.07 28.57, 201.16 30 M208.66 22.5 C207.28 26.56, 207.42 30.29, 201.16 30 M201.16 30 C148.77 28.63, 96.4 31.81, 7.5 30 M201.16 30 C143.24 31.68, 86.32 31.09, 7.5 30 M7.5 30 C3.19 29.73, -1.41 26.53, 0 22.5 M7.5 30 C0.74 31.25, 1.58 29.09, 0 22.5 M0 22.5 C-0.98 18.31, 1.23 12.42, 0 7.5 M0 22.5 C0.64 19.75, 0.29 15.8, 0 7.5 M0 7.5 C1.14 3.32, 1.93 -1.98, 7.5 0 M0 7.5 C-1.95 4.63, 1.1 -1.47, 7.5 0" stroke="#1e1e1e" stroke-width="1" fill="none"></path></g><g transform="translate(998.0404926228587 428.12246377336123) rotate(0 26.287979125976562 10)"><text x="26.287979125976562" y="0" font-family="Virgil, Segoe UI Emoji" font-size="16px" fill="#1e1e1e" text-anchor="middle" style="white-space: pre;" direction="ltr" dominant-baseline="text-before-edge">7 days</text></g><g stroke-linecap="round" transform="translate(918.7331347216891 388.038738836143) rotate(0 104.49999999999994 15)"><path d="M7.5 0 M7.5 0 C52.89 1.04, 95.52 1.28, 201.5 0 M7.5 0 C70.95 2.47, 133.78 1.96, 201.5 0 M201.5 0 C207.74 -1.33, 209.95 1.85, 209 7.5 M201.5 0 C206.24 0.8, 208.68 0.88, 209 7.5 M209 7.5 C209.91 12.31, 208.92 15.37, 209 22.5 M209 7.5 C209.54 12.23, 208.35 17.84, 209 22.5 M209 22.5 C208.28 29.15, 208.22 30.7, 201.5 30 M209 22.5 C209.26 28.81, 207.44 29.35, 201.5 30 M201.5 30 C161.25 30.52, 121.71 30.18, 7.5 30 M201.5 30 C157.57 31.01, 111.97 29.62, 7.5 30 M7.5 30 C4.35 30.02, 0.65 27.33, 0 22.5 M7.5 30 C2 30.21, -2.25 27.17, 0 22.5 M0 22.5 C1.04 18.79, -0.04 17.01, 0 7.5 M0 22.5 C0.15 18.1, 0.36 12.58, 0 7.5 M0 7.5 C1.61 3.02, 3.85 -1.64, 7.5 0 M0 7.5 C-2.12 4.27, 2.86 -1.83, 7.5 0" stroke="#1e1e1e" stroke-width="1" fill="none"></path></g><g transform="translate(983.2251543750094 393.038738836143) rotate(0 40.00798034667969 10)"><text x="40.00798034667969" y="0" font-family="Virgil, Segoe UI Emoji" font-size="16px" fill="#1e1e1e" text-anchor="middle" style="white-space: pre;" direction="ltr" dominant-baseline="text-before-edge">10 minutes</text></g><g stroke-linecap="round" transform="translate(1341.749295175247 123.48813463388785) rotate(0 114.92709470401724 19.481304261086166)"><path d="M9.74 0 M9.74 0 C59.12 1.06, 109.68 0.73, 220.11 0 M9.74 0 C55.05 -0.98, 101.16 -0.49, 220.11 0 M220.11 0 C226.22 -0.64, 231.49 3.52, 229.85 9.74 M220.11 0 C224.95 -1.51, 229.56 4.66, 229.85 9.74 M229.85 9.74 C229.37 16.56, 230.84 20.92, 229.85 29.22 M229.85 9.74 C229.4 15.67, 229.21 22.67, 229.85 29.22 M229.85 29.22 C229.01 34.23, 228.22 38.06, 220.11 38.96 M229.85 29.22 C228.47 36.93, 227.18 36.87, 220.11 38.96 M220.11 38.96 C152.61 39.35, 87.04 39.75, 9.74 38.96 M220.11 38.96 C142.36 40.01, 64.89 40.03, 9.74 38.96 M9.74 38.96 C2.86 39.35, 1.68 36.54, 0 29.22 M9.74 38.96 C3.47 37.98, 0.93 35.58, 0 29.22 M0 29.22 C1.79 23.67, 1.46 13.25, 0 9.74 M0 29.22 C-0.82 24.15, -0.53 19.97, 0 9.74 M0 9.74 C-0.77 5.14, 3.21 -0.68, 9.74 0 M0 9.74 C0.67 4.37, 3.26 -0.37, 9.74 0" stroke="#1e1e1e" stroke-width="1" fill="none"></path></g><g transform="translate(1353.1903366993179 130.7555419463729) rotate(0 57.25994110107422 12.5)"><text x="57.25994110107422" y="0" font-family="Virgil, Segoe UI Emoji" font-size="20px" fill="#1e1e1e" text-anchor="middle" style="white-space: pre;" direction="ltr" dominant-baseline="text-before-edge">User profile</text></g><g transform="translate(1405.0323024714194 364.0227453204734) rotate(0 51.94396209716797 10)"><text x="51.94396209716797" y="0" font-family="Virgil, Segoe UI Emoji" font-size="16px" fill="#1e1e1e" text-anchor="middle" style="white-space: pre;" direction="ltr" dominant-baseline="text-before-edge">Working hours</text></g><g stroke-opacity="0.5" fill-opacity="0.5" transform="translate(1412.7377773269545 387.10414330548565) rotate(0 42.39197540283203 10)"><text x="42.39197540283203" y="0" font-family="Virgil, Segoe UI Emoji" font-size="16px" fill="#343a40" text-anchor="middle" style="white-space: pre;" direction="ltr" dominant-baseline="text-before-edge">Start time</text></g><g transform="translate(1446.7072597508486 400.9529820964931) rotate(0 6.575981140136719 10)"><text x="6.575981140136719" y="0" font-family="Virgil, Segoe UI Emoji" font-size="16px" fill="#1e1e1e" text-anchor="middle" style="white-space: pre;" direction="ltr" dominant-baseline="text-before-edge">...</text></g><g stroke-opacity="0.5" fill-opacity="0.5" transform="translate(1413.4545131678078 417.2657757994066) rotate(0 40.751983642578125 10)"><text x="40.751983642578125" y="0" font-family="Virgil, Segoe UI Emoji" font-size="16px" fill="#343a40" text-anchor="middle" style="white-space: pre;" direction="ltr" dominant-baseline="text-before-edge">Lunch time</text></g><g transform="translate(1445.7840038314484 428.34484683221217) rotate(0 6.575981140136719 10)"><text x="6.575981140136719" y="0" font-family="Virgil, Segoe UI Emoji" font-size="16px" fill="#1e1e1e" text-anchor="middle" style="white-space: pre;" direction="ltr" dominant-baseline="text-before-edge">...</text></g><g stroke-opacity="0.5" fill-opacity="0.5" transform="translate(1417.1214901005574 449.5797329784232) rotate(0 33.39198303222656 10)"><text x="33.39198303222656" y="0" font-family="Virgil, Segoe UI Emoji" font-size="16px" fill="#343a40" text-anchor="middle" style="white-space: pre;" direction="ltr" dominant-baseline="text-before-edge">End time</text></g><g transform="translate(1445.7840038314484 459.73554809182906) rotate(0 6.575981140136719 10)"><text x="6.575981140136719" y="0" font-family="Virgil, Segoe UI Emoji" font-size="16px" fill="#1e1e1e" text-anchor="middle" style="white-space: pre;" direction="ltr" dominant-baseline="text-before-edge">...</text></g><g stroke-linecap="round"><g transform="translate(1378.4995114195463 385.25763146668487) rotate(0 78.16069640481192 0.7172635172821629)"><path d="M-0.6 1.04 C25.3 1.18, 128.41 1.67, 154.52 1.62 M1.28 0.55 C27.66 0.27, 131.17 -0.38, 156.92 -0.14" stroke="#1e1e1e" stroke-width="1" fill="none"></path></g></g><mask></mask><g stroke-linecap="round" transform="translate(1375.2066179874928 358.5408780320913) rotate(0 81.72004482401894 67.12717967687274)"><path d="M32 0 M32 0 C64.43 -0.05, 92.31 -0.57, 131.44 0 M32 0 C67.75 -0.6, 104.31 -1.27, 131.44 0 M131.44 0 C154.04 -1.74, 163.04 10.47, 163.44 32 M131.44 0 C150.51 0.44, 164.28 12.15, 163.44 32 M163.44 32 C162.03 53.72, 163.78 77.23, 163.44 102.25 M163.44 32 C164.84 56.28, 162.89 79.09, 163.44 102.25 M163.44 102.25 C161.8 123.73, 153.37 133.67, 131.44 134.25 M163.44 102.25 C162.86 122, 153.62 135.86, 131.44 134.25 M131.44 134.25 C97.74 133.3, 59.21 133.06, 32 134.25 M131.44 134.25 C94.98 135.5, 60.56 135.3, 32 134.25 M32 134.25 C12.49 133.71, -1.79 123.5, 0 102.25 M32 134.25 C9.01 132.41, 1.94 121.69, 0 102.25 M0 102.25 C-1.11 86.03, -1.57 73.65, 0 32 M0 102.25 C0.21 79.05, 0.02 54.64, 0 32 M0 32 C0.08 12.29, 11.86 1.03, 32 0 M0 32 C1.76 10.18, 9.03 -0.06, 32 0" stroke="#1e1e1e" stroke-width="1" fill="none"></path></g><g stroke-linecap="round" transform="translate(1378.5987149336988 173.13760132491052) rotate(0 81.24652090724237 82.63140478634307)"><path d="M32 0 M32 0 C56.24 1.16, 79.9 -0.12, 130.49 0 M32 0 C60.95 0.81, 89.36 -0.15, 130.49 0 M130.49 0 C152.9 1.01, 163.62 10.84, 162.49 32 M130.49 0 C149.85 -2.28, 161.53 8.5, 162.49 32 M162.49 32 C163.41 56.3, 163.83 81.63, 162.49 133.26 M162.49 32 C162.78 67.76, 163.11 103.62, 162.49 133.26 M162.49 133.26 C163.71 154.74, 153.3 164.56, 130.49 165.26 M162.49 133.26 C161.53 154.48, 153.02 165.26, 130.49 165.26 M130.49 165.26 C105.47 165.53, 82.06 165.75, 32 165.26 M130.49 165.26 C104.03 165.15, 79.68 164.7, 32 165.26 M32 165.26 C10.87 164.57, -1.74 153.27, 0 133.26 M32 165.26 C9 166.8, 1.56 156.18, 0 133.26 M0 133.26 C1.12 111.78, -0.24 88.82, 0 32 M0 133.26 C-0.96 101.46, -0.28 72.16, 0 32 M0 32 C1.85 10.67, 12.04 1.58, 32 0 M0 32 C-2.08 9.02, 12.48 0.75, 32 0" stroke="#1e1e1e" stroke-width="1" fill="none"></path></g><g stroke-linecap="round" transform="translate(1409.9894161933153 185.13992827711672) rotate(0 48.5 41.5)"><path d="M44.93 0.68 C53.34 -0.23, 64.81 1.99, 72.48 5.53 C80.15 9.07, 86.81 15.39, 90.96 21.93 C95.12 28.47, 97.96 37.54, 97.4 44.77 C96.84 52, 93.03 59.46, 87.59 65.31 C82.14 71.16, 73.08 77.16, 64.73 79.88 C56.39 82.59, 45.99 83.2, 37.54 81.6 C29.08 80, 19.97 75.54, 14.02 70.29 C8.07 65.03, 3.53 57.32, 1.83 50.06 C0.13 42.81, 0.83 33.55, 3.83 26.74 C6.82 19.94, 12.07 13.76, 19.78 9.22 C27.49 4.68, 44.21 0.86, 50.1 -0.49 C55.98 -1.85, 55.22 0.22, 55.07 1.09 M49.65 -0.05 C57.92 -0.28, 69.86 2.96, 76.98 7.44 C84.1 11.91, 89.2 20.09, 92.38 26.8 C95.56 33.5, 97.4 40.69, 96.04 47.64 C94.69 54.59, 90.11 62.9, 84.25 68.48 C78.39 74.05, 69.28 79.14, 60.9 81.1 C52.52 83.07, 42.56 82.47, 33.95 80.27 C25.35 78.07, 14.83 73.69, 9.26 67.92 C3.7 62.14, 1.21 53.22, 0.55 45.63 C-0.11 38.04, 1.65 29.17, 5.31 22.37 C8.96 15.56, 15.18 8.35, 22.49 4.79 C29.81 1.24, 44.4 1.51, 49.19 1.03 C53.99 0.54, 51.34 1.44, 51.26 1.89" stroke="#1e1e1e" stroke-width="1" fill="none"></path></g><g transform="translate(1433.0787552501033 206.79499685787505) rotate(0 25.615982055664062 20)"><text x="25.615982055664062" y="0" font-family="Virgil, Segoe UI Emoji" font-size="16px" fill="#1e1e1e" text-anchor="middle" style="white-space: pre;" direction="ltr" dominant-baseline="text-before-edge">Person</text><text x="25.615982055664062" y="20" font-family="Virgil, Segoe UI Emoji" font-size="16px" fill="#1e1e1e" text-anchor="middle" style="white-space: pre;" direction="ltr" dominant-baseline="text-before-edge">image</text></g><g transform="translate(1420.2962322439057 278.3887761365654) rotate(0 35.855979919433594 10)"><text x="35.855979919433594" y="0" font-family="Virgil, Segoe UI Emoji" font-size="16px" fill="#1e1e1e" text-anchor="middle" style="white-space: pre;" direction="ltr" dominant-baseline="text-before-edge">Full name</text></g><g transform="translate(1402.7267589752846 307.9329655573815) rotate(0 55.27196502685547 10)"><text x="55.27196502685547" y="0" font-family="Virgil, Segoe UI Emoji" font-size="16px" fill="#1e1e1e" text-anchor="middle" style="white-space: pre;" direction="ltr" dominant-baseline="text-before-edge">08:00 - 17:00</text></g><g stroke-linecap="round" transform="translate(1383.9623370757804 508.36096020945934) rotate(0 74.42361225044579 13.608569294094423)"><path d="M6.8 0 M6.8 0 C57.61 0.4, 109.44 0.41, 142.04 0 M6.8 0 C47.47 0.33, 88.49 1.87, 142.04 0 M142.04 0 C147.27 1.28, 149.78 2.64, 148.85 6.8 M142.04 0 C145.61 -0.48, 150.5 0.62, 148.85 6.8 M148.85 6.8 C147.77 10.54, 149.1 14.6, 148.85 20.41 M148.85 6.8 C148.7 10.6, 149.35 13.11, 148.85 20.41 M148.85 20.41 C148.59 24.27, 147.66 27.53, 142.04 27.22 M148.85 20.41 C148.63 26.07, 146.5 25.63, 142.04 27.22 M142.04 27.22 C90.66 28.14, 37.05 26.9, 6.8 27.22 M142.04 27.22 C109.61 26.5, 77.76 27.34, 6.8 27.22 M6.8 27.22 C1.63 26.28, -1.16 24.97, 0 20.41 M6.8 27.22 C4 27.61, 0.83 23.29, 0 20.41 M0 20.41 C-0.43 17.99, -1.32 15.18, 0 6.8 M0 20.41 C0.6 16.22, 0.27 10.52, 0 6.8 M0 6.8 C1.75 0.97, 4.06 1.17, 6.8 0 M0 6.8 C1.17 2.27, 1.81 0.61, 6.8 0" stroke="#1e1e1e" stroke-width="1" fill="none"></path></g><g transform="translate(1391.7012776170695 512.8066755624118) rotate(0 35.67997741699219 10)"><text x="35.67997741699219" y="0" font-family="Virgil, Segoe UI Emoji" font-size="16px" fill="#1e1e1e" text-anchor="middle" style="white-space: pre;" direction="ltr" dominant-baseline="text-before-edge">User info</text></g></svg>