<svg version="1.1" xmlns="http://www.w3.org/2000/svg" viewBox="0 0 1645.9320969801918 547.6851517187235" width="4937.796290940575" height="1643.0554551561706">
  <!-- svg-source:excalidraw -->
  
  <defs>
    <style class="style-fonts">
      @font-face {
        font-family: "Virgil";
        src: url("https://excalidraw.com/Virgil.woff2");
      }
      @font-face {
        font-family: "Cascadia";
        src: url("https://excalidraw.com/Cascadia.woff2");
      }
    </style>
  </defs>
  <rect x="0" y="0" width="1645.9320969801918" height="547.6851517187235" fill="#ffffff"></rect><g stroke-linecap="round"><g transform="translate(1593.8039498515848 70.8837963113101) rotate(0 12.044953233662682 0.033993394654316944)"><path d="M0.23 -0.35 C4.41 -0.31, 20.87 0.01, 25.2 0.07 M-1.11 -1.58 C2.88 -1.31, 19.58 1.16, 24.07 1.65" stroke="#1e1e1e" stroke-width="1" fill="none"></path></g></g><mask></mask><g stroke-linecap="round"><g transform="translate(1596.2292600106664 78.87105850457556) rotate(0 12.936482850255175 0.3260548311285447)"><path d="M-0.35 0.07 C3.98 0.14, 22.02 0.18, 26.23 0.03 M1.66 -0.94 C5.88 -0.63, 21.94 1.42, 25.63 1.59" stroke="#1e1e1e" stroke-width="1" fill="none"></path></g></g><mask></mask><g stroke-linecap="round"><g transform="translate(1596.2292600106668 87.75994739346424) rotate(0 13.423810968881185 -0.36205809702767056)"><path d="M0.67 0.03 C4.88 -0.12, 20.57 -0.75, 24.91 -0.83 M-0.44 -0.99 C4.2 -1.02, 22.79 -0.01, 27.28 0.27" stroke="#1e1e1e" stroke-width="1" fill="none"></path></g></g><mask></mask><g stroke-linecap="round" transform="translate(389.42190248173915 56.53458996210338) rotate(0 411 230)"><path d="M32 0 M32 0 C301.19 2.38, 571.21 1.13, 790 0 M32 0 C206.49 -1.56, 380.35 -1.41, 790 0 M790 0 C811.7 1.21, 821.14 9.94, 822 32 M790 0 C812.63 1.48, 820.42 12.11, 822 32 M822 32 C824.33 152.97, 824.26 274.44, 822 428 M822 32 C823.6 132.67, 822.9 233.65, 822 428 M822 428 C823.43 450.16, 809.99 461.87, 790 460 M822 428 C822.9 448.09, 813.13 459.3, 790 460 M790 460 C575.67 458.3, 360.93 458.1, 32 460 M790 460 C506.4 461.27, 223.42 461.61, 32 460 M32 460 C11.21 458.49, 1.43 448.45, 0 428 M32 460 C11.76 460.77, -0.07 448.72, 0 428 M0 428 C1.58 334.91, 1.88 240.41, 0 32 M0 428 C0.4 327.14, 0.61 227.54, 0 32 M0 32 C0.88 11.6, 10.05 -1.4, 32 0 M0 32 C1.79 9.33, 9.29 0.3, 32 0" stroke="#1e1e1e" stroke-width="1" fill="none"></path></g><g stroke-linecap="round"><g transform="translate(387.6452196928549 120.53458996210338) rotate(0 411.9169374406524 0.27719773201272346)"><path d="M1.13 -0.43 C138.12 -0.1, 684.44 0.65, 821.25 1.16 M0.27 -1.7 C137.69 -1.16, 686.74 1.87, 823.56 2.25" stroke="#1e1e1e" stroke-width="1" fill="none"></path></g></g><mask></mask><g stroke-linecap="round"><g transform="translate(605.645219692855 58.53458996210338) rotate(0 0.15039891432155628 31.884936381503962)"><path d="M-0.75 -0.84 C-0.78 10, 0.51 53.81, 0.99 64.61 M1.05 1.33 C0.77 11.85, -0.12 52.15, 0.04 62.81" stroke="#1e1e1e" stroke-width="1" fill="none"></path></g></g><mask></mask><g stroke-linecap="round" transform="translate(402.6452196928549 67.53458996210338) rotate(0 32.5 21.5)"><path d="M47.69 2.56 C53.87 4.19, 60.48 8.42, 63.06 12.73 C65.64 17.04, 65.24 24.06, 63.19 28.41 C61.14 32.77, 56.45 36.47, 50.76 38.88 C45.07 41.29, 35.94 43.32, 29.07 42.88 C22.2 42.45, 14.3 39.63, 9.52 36.26 C4.74 32.88, 0.82 27.18, 0.38 22.66 C-0.06 18.13, 2.8 12.71, 6.88 9.13 C10.95 5.55, 17.35 1.87, 24.83 1.17 C32.31 0.46, 46.51 3.96, 51.78 4.9 C57.04 5.85, 56.6 6.46, 56.42 6.82 M39.73 -0.36 C46.65 -0.04, 55.05 3.8, 59.21 7.75 C63.38 11.7, 65.31 18.73, 64.72 23.35 C64.13 27.97, 60.16 32.48, 55.69 35.47 C51.22 38.46, 44.56 40.38, 37.9 41.28 C31.25 42.19, 21.82 42.94, 15.76 40.88 C9.69 38.82, 3.87 33.62, 1.5 28.94 C-0.87 24.26, -1.21 17.1, 1.53 12.8 C4.26 8.49, 11.56 5.35, 17.9 3.1 C24.23 0.86, 35.86 -0.19, 39.55 -0.68 C43.25 -1.16, 40.14 -0.41, 40.08 0.21" stroke="#1e1e1e" stroke-width="1" fill="none"></path></g><g transform="translate(420.1882590088819 78.83179416659254) rotate(0 14.975990295410156 10)"><text x="14.975990295410156" y="0" font-family="Virgil, Segoe UI Emoji" font-size="16px" fill="#1e1e1e" text-anchor="middle" style="white-space: pre;" direction="ltr" dominant-baseline="text-before-edge">logo</text></g><g transform="translate(474.6452196928549 78.53458996210338) rotate(0 61.19996643066406 10)"><text x="0" y="0" font-family="Virgil, Segoe UI Emoji" font-size="16px" fill="#1e1e1e" text-anchor="start" style="white-space: pre;" direction="ltr" dominant-baseline="text-before-edge">NoMoreMeetings</text></g><g stroke-linecap="round"><g transform="translate(1061.6452196928549 55.53458996210338) rotate(0 -0.7869215213789289 33.46625172911217)"><path d="M0.22 0.73 C0.07 11.58, -0.59 54.56, -0.52 65.56 M-1.12 0.06 C-1.51 11.05, -1.97 56.08, -1.73 66.87" stroke="#1e1e1e" stroke-width="1" fill="none"></path></g></g><mask></mask><g transform="translate(1091.6452196928549 80.53458996210338) rotate(0 45.69597625732416 10)"><text x="0" y="0" font-family="Virgil, Segoe UI Emoji" font-size="16px" fill="#1e1e1e" text-anchor="start" style="white-space: pre;" direction="ltr" dominant-baseline="text-before-edge">Google login</text></g><g transform="translate(820.645219692855 80.53458996210338) rotate(0 47.15196228027344 10)"><text x="0" y="0" font-family="Virgil, Segoe UI Emoji" font-size="16px" fill="#868e96" text-anchor="start" style="white-space: pre;" direction="ltr" dominant-baseline="text-before-edge">User Profile</text></g><g transform="translate(689.645219692855 79.53458996210338) rotate(0 52.239967346191406 10)"><text x="0" y="0" font-family="Virgil, Segoe UI Emoji" font-size="16px" fill="#1e1e1e" text-anchor="start" style="white-space: pre;" direction="ltr" dominant-baseline="text-before-edge">Time Analysis</text></g><g stroke-linecap="round"><g stroke-opacity="0.2" fill-opacity="0.2" transform="translate(677.6452196928548 58.53458996210338) rotate(0 -0.5940954682664596 31.963615265590988)"><path d="M0.06 1.03 C0.23 11.47, 0.16 53.02, 0.17 63.4 M-1.36 0.52 C-1.27 10.53, -0.82 50.78, -0.69 61.49" stroke="#1e1e1e" stroke-width="1" fill="none"></path></g></g><mask></mask><g stroke-linecap="round"><g stroke-opacity="0.2" fill-opacity="0.2" transform="translate(804.645219692855 54.53458996210338) rotate(0 -0.5341988495862893 34.44864836300724)"><path d="M0.17 0.4 C0.18 11.79, 0.02 57.99, 0.12 69.33 M-1.2 -0.43 C-1.35 11.1, -1.03 55.72, -0.77 67.38" stroke="#1e1e1e" stroke-width="1" fill="none"></path></g></g><mask></mask><g transform="translate(624.645219692855 78.53458996210338) rotate(0 18.279991149902344 10)"><text x="0" y="0" font-family="Virgil, Segoe UI Emoji" font-size="16px" fill="#868e96" text-anchor="start" style="white-space: pre;" direction="ltr" dominant-baseline="text-before-edge">Home</text></g><g transform="translate(704.8252962919761 13.534589962103382) rotate(0 95.8199234008789 12.5)"><text x="95.8199234008789" y="0" font-family="Virgil, Segoe UI Emoji" font-size="20px" fill="#1e1e1e" text-anchor="middle" style="white-space: pre;" direction="ltr" dominant-baseline="text-before-edge">Desktop/Tablet UI</text></g><g stroke-linecap="round" transform="translate(1352.6928387404735 49.772685200198794) rotate(0 141.1111111111111 243.33333333333337)"><path d="M32 0 M32 0 C109.54 -0.68, 189.6 -2.81, 250.22 0 M32 0 C99.6 0.03, 168.71 -1.25, 250.22 0 M250.22 0 C273.12 -0.61, 281.87 12.24, 282.22 32 M250.22 0 C269.96 -0.55, 283.39 8.37, 282.22 32 M282.22 32 C284.38 168.98, 283.36 307.63, 282.22 454.67 M282.22 32 C283.21 174.01, 283.08 316.66, 282.22 454.67 M282.22 454.67 C282.16 475.46, 270.3 485.6, 250.22 486.67 M282.22 454.67 C281.49 476.74, 273.25 488.02, 250.22 486.67 M250.22 486.67 C179.16 486.43, 107.28 487.06, 32 486.67 M250.22 486.67 C164.98 486.95, 80.95 487.05, 32 486.67 M32 486.67 C9.47 486.92, -1.22 474.92, 0 454.67 M32 486.67 C12.35 488.17, 1.37 475.13, 0 454.67 M0 454.67 C0.99 355.03, 0.48 254.34, 0 32 M0 454.67 C0.46 359.65, 0.74 264.24, 0 32 M0 32 C-1.76 10.43, 9.91 -0.23, 32 0 M0 32 C-1.17 10.45, 8.38 0.46, 32 0" stroke="#1e1e1e" stroke-width="1" fill="none"></path></g><g stroke-linecap="round"><g transform="translate(1353.8039498515848 111.99490742242097) rotate(0 140.60799007093112 -0.37092760103143974)"><path d="M0.36 -0.24 C46.9 -0.24, 233.06 -0.9, 280 -0.96 M-0.91 -1.41 C45.92 -1.1, 235.03 0.87, 282.13 0.65" stroke="#1e1e1e" stroke-width="1" fill="none"></path></g></g><mask></mask><g stroke-linecap="round" transform="translate(1364.3817611986985 66.93935186686576) rotate(0 21.582687338501273 15.5)"><path d="M30.08 1.37 C34.13 2.53, 37.76 5.86, 39.83 8.65 C41.9 11.45, 43.12 15.13, 42.5 18.15 C41.88 21.17, 39.65 24.54, 36.1 26.77 C32.54 28.99, 26.07 31.38, 21.15 31.51 C16.23 31.64, 9.92 29.79, 6.57 27.54 C3.21 25.28, 1.55 21.38, 1.03 17.97 C0.52 14.57, 1.33 9.86, 3.47 7.1 C5.62 4.34, 9.24 2.27, 13.9 1.39 C18.56 0.52, 28.44 1.54, 31.45 1.86 C34.46 2.18, 32.25 3.03, 31.96 3.3 M24.26 -0.58 C28.56 -0.1, 34.22 3.14, 37.55 5.95 C40.89 8.76, 44.1 13.16, 44.27 16.29 C44.44 19.41, 41.75 22.31, 38.57 24.7 C35.4 27.08, 29.81 30.06, 25.21 30.6 C20.61 31.15, 14.85 29.38, 10.98 27.98 C7.1 26.59, 3.47 25.06, 1.96 22.23 C0.45 19.4, 0.54 14.52, 1.92 10.99 C3.29 7.46, 6.14 3.01, 10.22 1.07 C14.29 -0.87, 24.03 -0.59, 26.37 -0.65 C28.7 -0.71, 24.64 0.45, 24.23 0.72" stroke="#1e1e1e" stroke-width="1" fill="none"></path></g><g transform="translate(1377.4703272134282 76.64586342514099) rotate(0 8.732856750488281 5.833333333333371)"><text x="8.732856750488281" y="0" font-family="Virgil, Segoe UI Emoji" font-size="9.33333333333333px" fill="#1e1e1e" text-anchor="middle" style="white-space: pre;" direction="ltr" dominant-baseline="text-before-edge">logo</text></g><g transform="translate(1412.1957146870707 76.68870587203355) rotate(0 40.62144470214844 6.640826873384981)"><text x="0" y="0" font-family="Virgil, Segoe UI Emoji" font-size="10.625322997416015px" fill="#1e1e1e" text-anchor="start" style="white-space: pre;" direction="ltr" dominant-baseline="text-before-edge">NoMoreMeetings</text></g><g stroke-linecap="round"><g transform="translate(1618.2356814381585 494.2613917036449) rotate(0 0.03078799536376664 12.948998643977916)"><path d="M0.47 -0.65 C0.73 3.36, 0.9 20.67, 0.75 25.2 M-0.75 1.63 C-0.49 6.32, 0.39 22.71, 0.3 26.55" stroke="#1e1e1e" stroke-width="1" fill="none"></path></g><g transform="translate(1618.2356814381585 494.2613917036449) rotate(0 0.03078799536376664 12.948998643977916)"><path d="M-5.03 15.64 C-3.54 17.17, -1.06 19.28, -0.01 27.2 M-4.39 14.95 C-3.72 16.68, -2.13 19.61, 0.47 26.06" stroke="#1e1e1e" stroke-width="1" fill="none"></path></g><g transform="translate(1618.2356814381585 494.2613917036449) rotate(0 0.03078799536376664 12.948998643977916)"><path d="M3.71 15.44 C3.17 17.05, 3.61 19.21, -0.01 27.2 M4.35 14.75 C3.27 16.59, 3.11 19.55, 0.47 26.06" stroke="#1e1e1e" stroke-width="1" fill="none"></path></g></g><mask></mask><g stroke-linecap="round"><g transform="translate(1605.9686897609156 112.21719907734041) rotate(0 -0.970376403186151 211.93430728247597)"><path d="M0.94 -0.36 C0.56 70.66, -1.26 354.7, -1.82 425.47 M-0.03 -1.6 C-0.63 69.15, -2.89 352.67, -2.88 423.84" stroke="#1e1e1e" stroke-width="1" fill="none"></path></g></g><mask></mask><g transform="translate(1418.6279032821415 10) rotate(0 76.7099380493164 12.5)"><text x="76.7099380493164" y="0" font-family="Virgil, Segoe UI Emoji" font-size="20px" fill="#1e1e1e" text-anchor="middle" style="white-space: pre;" direction="ltr" dominant-baseline="text-before-edge">Mobile phone UI</text></g><g stroke-linecap="round" transform="translate(408.925914224371 135.98987283981205) rotate(0 390.9988818661038 27.697677582014535)"><path d="M13.85 0 M13.85 0 C186.95 -1.33, 362.24 -1.6, 768.15 0 M13.85 0 C276.73 1.6, 539.32 1.15, 768.15 0 M768.15 0 C778.81 -0.88, 782.95 5.29, 782 13.85 M768.15 0 C777.31 -0.62, 780.55 3.39, 782 13.85 M782 13.85 C783.26 21.78, 781.16 28.38, 782 41.55 M782 13.85 C782.42 22.79, 782.45 30.4, 782 41.55 M782 41.55 C781.38 49.38, 778.94 54.24, 768.15 55.4 M782 41.55 C780.62 51.08, 775.98 54.15, 768.15 55.4 M768.15 55.4 C486.38 56.69, 204.76 56.94, 13.85 55.4 M768.15 55.4 C564.55 52.73, 360.86 53.08, 13.85 55.4 M13.85 55.4 C4 56.63, 0.46 51.74, 0 41.55 M13.85 55.4 C2.59 55.13, -0.87 50.51, 0 41.55 M0 41.55 C0.43 34.69, -1.34 27.7, 0 13.85 M0 41.55 C-0.66 32.05, 0.13 21.42, 0 13.85 M0 13.85 C-1.13 5.19, 3.81 -0.85, 13.85 0 M0 13.85 C1.22 2.87, 3.93 -2.11, 13.85 0" stroke="#1e1e1e" stroke-width="1" fill="none"></path></g><g stroke-linecap="round" transform="translate(1367.390707673628 123.48813463388797) rotate(0 114.92709470401724 19.481304261086166)"><path d="M9.74 0 M9.74 0 C63.66 -1.73, 119.46 -1.44, 220.11 0 M9.74 0 C63.69 0.6, 118.53 0.9, 220.11 0 M220.11 0 C228.31 1.16, 230.04 1.86, 229.85 9.74 M220.11 0 C224.7 0.67, 227.71 4.64, 229.85 9.74 M229.85 9.74 C228.37 14.71, 229.78 19.23, 229.85 29.22 M229.85 9.74 C230.67 17.21, 229.92 23.57, 229.85 29.22 M229.85 29.22 C231.44 37.37, 226.22 37.44, 220.11 38.96 M229.85 29.22 C229.03 34.38, 224.31 38.22, 220.11 38.96 M220.11 38.96 C136.18 37.87, 55.18 39.23, 9.74 38.96 M220.11 38.96 C147.38 40.87, 75.44 41.16, 9.74 38.96 M9.74 38.96 C3.56 37.92, -0.92 36.53, 0 29.22 M9.74 38.96 C4.25 38.72, -2.2 36.25, 0 29.22 M0 29.22 C1.6 23.8, 0.93 16.54, 0 9.74 M0 29.22 C-0.58 24.91, 0.77 19.63, 0 9.74 M0 9.74 C1.46 1.63, 4.65 0.38, 9.74 0 M0 9.74 C-1.92 4.95, 4.59 1.86, 9.74 0" stroke="#1e1e1e" stroke-width="1" fill="none"></path></g><g transform="translate(10 267.32747570135575) rotate(0 166.48193359375 22.5)"><text x="166.48193359375" y="0" font-family="Virgil, Segoe UI Emoji" font-size="36px" fill="#1e1e1e" text-anchor="middle" style="white-space: pre;" direction="ltr" dominant-baseline="text-before-edge">Time analysis page</text></g><g transform="translate(422.52100313801867 151.57673423324218) rotate(0 65.40994262695312 12.5)"><text x="65.40994262695312" y="0" font-family="Virgil, Segoe UI Emoji" font-size="20px" fill="#1e1e1e" text-anchor="middle" style="white-space: pre;" direction="ltr" dominant-baseline="text-before-edge">Time analysis</text></g><g transform="translate(1381.0897688970902 131.9249827712115) rotate(0 65.40994262695312 12.5)"><text x="65.40994262695312" y="0" font-family="Virgil, Segoe UI Emoji" font-size="20px" fill="#1e1e1e" text-anchor="middle" style="white-space: pre;" direction="ltr" dominant-baseline="text-before-edge">Time analysis</text></g><g stroke-linecap="round" transform="translate(416.66980546638354 213.51286539204875) rotate(0 190.25562865434358 138.68030763358786)"><path d="M32 0 M32 0 C117.11 -0.27, 201.34 -0.58, 348.51 0 M32 0 C122.79 0.89, 214.02 0.09, 348.51 0 M348.51 0 C369.39 1.66, 381.45 11.87, 380.51 32 M348.51 0 C371.11 1.39, 379.56 11.37, 380.51 32 M380.51 32 C380.82 89.2, 380.73 147.31, 380.51 245.36 M380.51 32 C382.54 91.1, 383.14 151.68, 380.51 245.36 M380.51 245.36 C380.4 267.48, 367.89 278.09, 348.51 277.36 M380.51 245.36 C382.26 265.45, 368.97 277.82, 348.51 277.36 M348.51 277.36 C253.91 274.37, 159.67 276.54, 32 277.36 M348.51 277.36 C225.2 274.59, 101.5 274.75, 32 277.36 M32 277.36 C9.54 275.44, -0.3 268.53, 0 245.36 M32 277.36 C12.86 277.44, -0.28 268.28, 0 245.36 M0 245.36 C-0.77 180.84, 0.17 118.33, 0 32 M0 245.36 C-0.98 160.88, -2.35 76.74, 0 32 M0 32 C0.49 9.94, 11.15 -1.66, 32 0 M0 32 C0.69 11.09, 8.42 1.1, 32 0" stroke="#1e1e1e" stroke-width="1" fill="none"></path></g><g stroke-linecap="round" transform="translate(810.1253068898544 212.47906162075037) rotate(0 190.25562865434364 139.51245596650642)"><path d="M32 0 M32 0 C157.8 1.02, 282.18 1, 348.51 0 M32 0 C113.31 0.08, 195.85 1.25, 348.51 0 M348.51 0 C368.52 0.78, 379.99 11.2, 380.51 32 M348.51 0 C370.88 -1.43, 380.16 12.02, 380.51 32 M380.51 32 C380.95 108.31, 379.31 187.31, 380.51 247.02 M380.51 32 C379.27 109.04, 379.44 186.7, 380.51 247.02 M380.51 247.02 C379.27 269.19, 370.95 277.07, 348.51 279.02 M380.51 247.02 C378.63 266.77, 370.67 277.26, 348.51 279.02 M348.51 279.02 C233.5 278.59, 121.59 281.06, 32 279.02 M348.51 279.02 C280.71 279.26, 212.78 278.56, 32 279.02 M32 279.02 C11.41 277.93, 1.97 266.45, 0 247.02 M32 279.02 C12.16 278.1, 2.03 268.17, 0 247.02 M0 247.02 C-0.73 165, 2.32 82.3, 0 32 M0 247.02 C-1.71 202.39, -1.19 156.91, 0 32 M0 32 C-0.39 9.37, 12.6 0.35, 32 0 M0 32 C-2.02 12.14, 12.85 -1.82, 32 0" stroke="#1e1e1e" stroke-width="1" fill="none"></path></g><g transform="translate(544.8167605399649 218.09733837167164) rotate(0 55.231964111328125 10)"><text x="55.231964111328125" y="0" font-family="Virgil, Segoe UI Emoji" font-size="16px" fill="#1e1e1e" text-anchor="middle" style="white-space: pre;" direction="ltr" dominant-baseline="text-before-edge">My work hours</text></g><g transform="translate(468.0790282322904 257.06535869846493) rotate(0 18.503990173339844 10)"><text x="18.503990173339844" y="0" font-family="Virgil, Segoe UI Emoji" font-size="16px" fill="#1e1e1e" text-anchor="middle" style="white-space: pre;" direction="ltr" dominant-baseline="text-before-edge">Type</text></g><g transform="translate(583.4652136221266 258.2114769433706) rotate(0 21.167984008789062 10)"><text x="21.167984008789062" y="0" font-family="Virgil, Segoe UI Emoji" font-size="16px" fill="#1e1e1e" text-anchor="middle" style="white-space: pre;" direction="ltr" dominant-baseline="text-before-edge">Hours</text></g><g transform="translate(676.9191631325031 258.21147694337037) rotate(0 43.47197723388672 10)"><text x="43.47197723388672" y="0" font-family="Virgil, Segoe UI Emoji" font-size="16px" fill="#1e1e1e" text-anchor="middle" style="white-space: pre;" direction="ltr" dominant-baseline="text-before-edge">Percentage</text></g><g transform="translate(468.65291120808786 294.8872607803521) rotate(0 16.78398895263672 10)"><text x="16.78398895263672" y="0" font-family="Virgil, Segoe UI Emoji" font-size="16px" fill="#1e1e1e" text-anchor="middle" style="white-space: pre;" direction="ltr" dominant-baseline="text-before-edge">Free</text></g><g stroke-linecap="round"><g transform="translate(433.8615791399688 285.7183148211068) rotate(0 170.25047203870406 -0.2965554153568064)"><path d="M-0.67 0.72 C56.32 0.47, 284.22 -1.13, 341.18 -1.31 M1.17 0.05 C58.14 -0.03, 284.06 0.54, 340.64 0.14" stroke="#1e1e1e" stroke-width="1" fill="none"></path></g></g><mask></mask><g transform="translate(598.7393225896886 296.0333790252582) rotate(0 7.0399932861328125 10)"><text x="7.0399932861328125" y="0" font-family="Virgil, Segoe UI Emoji" font-size="16px" fill="#1e1e1e" text-anchor="middle" style="white-space: pre;" direction="ltr" dominant-baseline="text-before-edge">19</text></g><g transform="translate(698.7474027351074 296.0333790252582) rotate(0 23.93597412109375 10)"><text x="23.93597412109375" y="0" font-family="Virgil, Segoe UI Emoji" font-size="16px" fill="#1e1e1e" text-anchor="middle" style="white-space: pre;" direction="ltr" dominant-baseline="text-before-edge">47,5%</text></g><g transform="translate(446.72605961345573 333.1053374330111) rotate(0 39.23198699951172 10)"><text x="39.23198699951172" y="0" font-family="Virgil, Segoe UI Emoji" font-size="16px" fill="#1e1e1e" text-anchor="middle" style="white-space: pre;" direction="ltr" dominant-baseline="text-before-edge">Tentative</text></g><g stroke-linecap="round"><g transform="translate(434.3827255922117 323.93639147376575) rotate(0 170.06214622407134 -0.8511682903415476)"><path d="M0.23 0.16 C57.1 -0.01, 284.34 -1.52, 341.23 -1.86 M-1.11 -0.8 C55.67 -0.76, 283.64 -0.67, 340.72 -0.7" stroke="#1e1e1e" stroke-width="1" fill="none"></path></g></g><mask></mask><g transform="translate(600.1804672108768 334.2514556779172) rotate(0 6.1199951171875 10)"><text x="6.1199951171875" y="0" font-family="Virgil, Segoe UI Emoji" font-size="16px" fill="#1e1e1e" text-anchor="middle" style="white-space: pre;" direction="ltr" dominant-baseline="text-before-edge">8</text></g><g transform="translate(704.4925329519987 334.2514556779172) rotate(0 18.711990356445312 10)"><text x="18.711990356445312" y="0" font-family="Virgil, Segoe UI Emoji" font-size="16px" fill="#1e1e1e" text-anchor="middle" style="white-space: pre;" direction="ltr" dominant-baseline="text-before-edge">20%</text></g><g transform="translate(468.6481788349239 369.78112126999304) rotate(0 18.45598602294922 10)"><text x="18.45598602294922" y="0" font-family="Virgil, Segoe UI Emoji" font-size="16px" fill="#1e1e1e" text-anchor="middle" style="white-space: pre;" direction="ltr" dominant-baseline="text-before-edge">Busy</text></g><g stroke-linecap="round"><g transform="translate(435.5288438371174 360.6121753107477) rotate(0 169.52236893942498 -0.7968145193423197)"><path d="M-0.05 0.91 C56.61 0.96, 283.97 -0.24, 340.59 -0.65 M-1.54 0.34 C54.92 0.12, 282.45 -2.39, 339.74 -2.51" stroke="#1e1e1e" stroke-width="1" fill="none"></path></g></g><mask></mask><g transform="translate(599.7745835026575 370.9272395148987) rotate(0 7.6719970703125 10)"><text x="7.6719970703125" y="0" font-family="Virgil, Segoe UI Emoji" font-size="16px" fill="#1e1e1e" text-anchor="middle" style="white-space: pre;" direction="ltr" dominant-baseline="text-before-edge">10</text></g><g transform="translate(705.4219735960083 371.703922303783) rotate(0 18.15198516845703 10)"><text x="18.15198516845703" y="0" font-family="Virgil, Segoe UI Emoji" font-size="16px" fill="#1e1e1e" text-anchor="middle" style="white-space: pre;" direction="ltr" dominant-baseline="text-before-edge">25%</text></g><g transform="translate(466.2418141514763 409.89525984169177) rotate(0 17.423995971679688 10)"><text x="17.423995971679688" y="0" font-family="Virgil, Segoe UI Emoji" font-size="16px" fill="#1e1e1e" text-anchor="middle" style="white-space: pre;" direction="ltr" dominant-baseline="text-before-edge">OOO</text></g><g stroke-linecap="round"><g transform="translate(434.3827255922116 398.4340773926351) rotate(0 170.1421852342683 0.07399802244708553)"><path d="M1.02 -0.9 C57.65 -1.13, 283.81 -1.11, 340.19 -1.06 M0.09 1.24 C56.51 1.19, 282.21 1.17, 339.14 0.52" stroke="#1e1e1e" stroke-width="1" fill="none"></path></g></g><mask></mask><g transform="translate(599.7063460362835 408.749141596787) rotate(0 5.447998046875 10)"><text x="5.447998046875" y="0" font-family="Virgil, Segoe UI Emoji" font-size="16px" fill="#1e1e1e" text-anchor="middle" style="white-space: pre;" direction="ltr" dominant-baseline="text-before-edge">3</text></g><g transform="translate(703.242426059632 408.749141596787) rotate(0 18.81597900390625 10)"><text x="18.81597900390625" y="0" font-family="Virgil, Segoe UI Emoji" font-size="16px" fill="#1e1e1e" text-anchor="middle" style="white-space: pre;" direction="ltr" dominant-baseline="text-before-edge">7,5%</text></g><g transform="translate(463.1340567448033 448.86328016848506) rotate(0 22.823989868164062 10)"><text x="22.823989868164062" y="0" font-family="Virgil, Segoe UI Emoji" font-size="16px" fill="#1e1e1e" text-anchor="middle" style="white-space: pre;" direction="ltr" dominant-baseline="text-before-edge">Total</text></g><g stroke-linecap="round"><g transform="translate(436.67496208202306 439.69433420923974) rotate(0 170.50850967818786 -0.6295626984033333)"><path d="M0.46 0.46 C57.09 0.56, 282.75 0.2, 339.52 -0.14 M-0.75 -0.35 C56.27 -0.5, 284.87 -1.71, 341.77 -1.73" stroke="#1e1e1e" stroke-width="1" fill="none"></path></g></g><mask></mask><g transform="translate(596.8225876530481 450.0093984133907) rotate(0 10.623992919921875 10)"><text x="10.623992919921875" y="0" font-family="Virgil, Segoe UI Emoji" font-size="16px" fill="#1e1e1e" text-anchor="middle" style="white-space: pre;" direction="ltr" dominant-baseline="text-before-edge">40</text></g><g transform="translate(703.6626532720995 450.0093984133907) rotate(0 20.68798828125 10)"><text x="20.68798828125" y="0" font-family="Virgil, Segoe UI Emoji" font-size="16px" fill="#1e1e1e" text-anchor="middle" style="white-space: pre;" direction="ltr" dominant-baseline="text-before-edge">100%</text></g><g stroke-linecap="round"><g transform="translate(999.5520539067119 320.0224303062639) rotate(0 -30.248882751680924 -15.035713880340381)" fill-rule="evenodd"><path d="M-71.35 -56.72 C-71.35 -56.72, -71.35 -56.72, -71.35 -56.72 M-71.35 -56.72 C-71.35 -56.72, -71.35 -56.72, -71.35 -56.72 M-81.02 -39.04 C-74.96 -49.25, -66.73 -54.47, -59.83 -65.44 M-81.61 -39.71 C-74.99 -48.09, -66.64 -54.22, -59.63 -64.62 M-85.68 -29.73 C-77.18 -36.3, -71.05 -46.69, -50.16 -71.64 M-84.1 -29.65 C-74.03 -41.92, -63.2 -55.2, -47.45 -71.38 M-90.39 -17.35 C-73.31 -38.87, -57.02 -56.97, -37.71 -74.76 M-88.06 -19.53 C-70.18 -39.63, -53.38 -60.1, -40.24 -75.08 M-88.94 -10.53 C-67.66 -36.09, -45.56 -61.02, -26.46 -83.61 M-88.78 -13.09 C-68.24 -37.19, -45.86 -60.68, -27.66 -83.22 M-89.21 -3.45 C-74.15 -22.67, -59.8 -37.8, -22.6 -84.72 M-89.86 -5.02 C-64.57 -33.58, -38.87 -63.79, -21 -83.63 M-89.74 1.58 C-76.77 -16.29, -59.48 -33.34, -14.55 -86.96 M-91.77 2.01 C-68.62 -21.42, -47.94 -46.14, -14.3 -86.54 M-92.58 7.29 C-71.48 -17.05, -52 -40.01, -7.65 -89.34 M-91.72 9.03 C-68.44 -18.24, -45.97 -44.65, -7.05 -88.9 M-91.64 16.44 C-58.96 -19.44, -29.62 -56.41, -1.22 -89.48 M-92.07 15.31 C-57.53 -25.67, -23.67 -64.77, -0.28 -88.28 M-89.61 19.96 C-53.37 -22.95, -14.03 -67.54, 4.42 -90.11 M-90.28 21.01 C-69.26 -2.68, -50.52 -25.33, 4.41 -87.82 M-90.38 23.94 C-67.19 -3.87, -40.17 -34.14, 9.66 -89.41 M-89.32 25.72 C-62.52 -6.28, -35.82 -37.52, 9.49 -88.11 M-90.55 32.73 C-61.4 1.59, -34.51 -28.26, 12.65 -87.01 M-90.28 30.09 C-52.62 -11.76, -15 -53.77, 14.52 -87.59 M-91.19 39.26 C-53.67 -2.95, -19.29 -44.03, 17.62 -85.44 M-90.1 37.65 C-65.6 12.78, -43.76 -12.94, 19.5 -87.48 M-90.18 43.78 C-54.06 3.87, -20.22 -36.23, 23.93 -87.99 M-88.96 42.14 C-55.61 4.9, -22.66 -33.7, 23.82 -86.15 M-87.66 48.05 C-55.88 10.1, -25.32 -24.51, 28.37 -86.49 M-87.79 47.17 C-46.29 1.64, -6.41 -44.98, 27.53 -86.34 M-85.2 52.05 C-61.57 20.03, -33.24 -9.08, 33.62 -81.93 M-84.43 51.5 C-54.63 14.7, -23.68 -19.95, 31.83 -84.21 M-82.06 53.57 C-54.77 24.62, -30.09 -8.89, 32.49 -78.43 M-81.94 54.15 C-51.1 16.52, -18.76 -20.63, 34.21 -78.87 M-81.47 57.79 C-39.87 6.59, 3.9 -40.73, 32.34 -72.41 M-79.9 56.52 C-47.39 22.34, -17.82 -12.55, 32.9 -71.95 M-78.3 59.57 C-37.56 13.57, 4.31 -34.04, 31.32 -66.58 M-78.15 60.19 C-41.12 19.95, -6.35 -20.74, 32.02 -67.06 M-72.73 60.26 C-37.34 20.35, -1.28 -21.75, 28.35 -54.52 M-73.43 60.28 C-51.66 37.14, -29.97 12.12, 27.57 -54.86 M-67.21 59.54 C-44.13 33.16, -26.48 13.42, 23.06 -41.25 M-66.41 58.8 C-30.65 17.9, 4.1 -21.66, 22.32 -41.12 M-55.36 51.96 C-36.6 32.93, -14.61 10.25, 14.43 -28.07 M-55.65 53.78 C-30.58 25.22, -6.56 -2.55, 16.44 -29.97 M-33.91 35.71 C-17.55 14.59, -1.97 -1.11, 10.44 -16.04 M-33.49 35.47 C-16.87 15.34, 0.7 -4.1, 10.08 -16.88 M-79.57 58.01 C-79.57 58.01, -79.57 58.01, -79.57 58.01 M-79.57 58.01 C-79.57 58.01, -79.57 58.01, -79.57 58.01 M-72.68 57.19 C-76.33 55.73, -76.99 54.92, -80.71 50.92 M-72.69 58.03 C-76.52 55.14, -79.62 52.46, -81.76 51.51 M-68.11 55.3 C-71.15 53.85, -78.18 47.12, -85.29 42.63 M-68.39 57.8 C-73.51 52.85, -78.24 49.24, -84.28 42.61 M-64.29 56.52 C-73.21 47.7, -82.72 40.63, -87.83 36.53 M-64.34 55.74 C-71.81 47.7, -79.34 41.8, -87.89 34.61 M-61.67 50.65 C-70.04 43.88, -82.02 36.55, -88.82 29.06 M-61.64 51.58 C-72.48 43.22, -81.91 34.9, -89.22 29.09 M-55.91 50.06 C-64.59 44.44, -74.57 35.47, -90.58 20.96 M-56.55 51.75 C-68.48 40.65, -78.12 31.29, -90.05 22 M-55.37 46.74 C-67.28 37.83, -80.3 26.95, -91.13 17.67 M-54.94 47.68 C-63.1 40.91, -71.52 34.04, -90.05 16.21 M-50.85 45.62 C-65.19 33.76, -79.28 22.21, -93.24 12.07 M-50.09 46.6 C-63.14 35.6, -74.74 24, -90.95 10.63 M-47.71 44.55 C-60.33 33.3, -71.92 22.83, -92.33 4.44 M-47.83 42.11 C-60.66 32.8, -73 20.56, -90.33 5.8 M-44.39 38.93 C-60.62 29.92, -73.72 17.38, -90.21 0.48 M-45.1 40.28 C-56.63 31, -67.19 21.62, -92.54 -1.6 M-41.22 37.05 C-60.25 20.9, -79.16 7.3, -89.13 -4.2 M-41.82 37.57 C-58.86 22.48, -76.42 8.2, -90.66 -4.7 M-40.55 35.4 C-50.62 23.54, -61.67 17.43, -88.91 -11.86 M-38.96 35.64 C-50.22 26.15, -62.41 15.93, -90.75 -9.74 M-36.72 31.94 C-48.52 24.36, -58.93 10.37, -90.71 -16.18 M-35.66 33.19 C-51.9 18.54, -67.59 5, -89.57 -14.02 M-31.68 30.82 C-52.17 13.97, -70.11 0.53, -89.08 -18.23 M-32.78 30.14 C-53.61 9.21, -76.22 -9.31, -89.76 -19.38 M-29.29 26.94 C-46.81 11.43, -69.61 -7.15, -87.8 -22.42 M-28.31 26.81 C-48.9 10.77, -70.39 -7.28, -87.61 -22.62 M-27.63 26.01 C-43.15 9.7, -64.59 -9.1, -85.2 -26.61 M-25.66 25.46 C-49.47 3.61, -73.73 -18.11, -85.46 -27.09 M-21.31 21.13 C-37.1 10.21, -46.71 -1.99, -84.18 -32.08 M-23.01 21.37 C-38.84 7.94, -52.5 -4.5, -85.78 -31.07 M-21.79 20.82 C-44.09 -0.03, -69.61 -21.38, -82.56 -34.92 M-19.69 18.51 C-39.35 3.24, -58.11 -13.23, -82.5 -34.7 M-16.43 16.96 C-31.74 2.79, -46.59 -10.68, -79.63 -40 M-18.21 15.87 C-35.52 1.25, -53.9 -14.28, -81.6 -38.36 M-13.07 12.13 C-34.61 -5.21, -52.93 -19.19, -76.97 -43.04 M-14.92 14.43 C-33.37 -3.91, -52.71 -18.73, -79 -42.27 M-10.59 8.91 C-24.92 -1.26, -39.92 -13.23, -76.5 -44.62 M-11.57 11 C-26.21 -1.5, -41.98 -14.64, -76.57 -44.9 M-7.94 7.84 C-25.09 -7.46, -39.5 -17.87, -76.03 -50.18 M-8.41 7.62 C-22.75 -3.51, -36.89 -15.38, -74.82 -48.49 M-6.5 5.48 C-25.71 -8.92, -40.75 -26.42, -71.63 -52.71 M-5.53 6.23 C-20.47 -8.31, -36.71 -21.79, -73.16 -52.22 M-3.12 4.26 C-25.78 -18.47, -47.28 -34.22, -69.87 -57.48 M-3.95 2.04 C-28.7 -20.03, -54.56 -41.78, -71.3 -56.33 M-0.67 1.89 C-19.34 -16.03, -41.53 -33.79, -69.42 -60.02 M0.77 -0.57 C-18.95 -17.63, -38.33 -33.49, -68.81 -60.63 M2.62 -1.99 C-24.25 -26.17, -47 -45.78, -67.62 -60.79 M1.19 -3.81 C-23.91 -25.95, -47.64 -46.91, -66.75 -62.67 M3.62 -8.59 C-14.18 -26.11, -34.65 -40.58, -63.77 -65.25 M3.42 -6.77 C-9.56 -20.29, -22.5 -31.24, -62.97 -64.2 M5.98 -11.88 C-16.45 -30.11, -38.35 -47.06, -59.23 -67.85 M4.75 -11.81 C-11.94 -27.49, -28.31 -41.32, -59.24 -68.66 M8.31 -15.37 C-12.86 -29.74, -27.78 -45.92, -58.41 -70.06 M6.81 -14.75 C-7.42 -28.06, -24.18 -40.16, -56.32 -69.72 M9.39 -18.73 C-15.02 -40.46, -35.08 -60.17, -54.41 -73.73 M8.75 -20.01 C-15.57 -39.77, -38.23 -59.65, -52.57 -72.05 M10.82 -23.84 C-10.02 -42.92, -33.13 -60.07, -48.3 -77.1 M10.84 -22.11 C-3.17 -34.47, -17.12 -47.2, -49.27 -75.81 M13.24 -26.79 C-2.76 -39.13, -17.97 -53.77, -45.41 -75.49 M10.71 -26.17 C-9.51 -44.56, -28.21 -61.32, -46 -76.86 M15.01 -31.97 C-1.55 -42.02, -14.14 -52.99, -39.95 -77.98 M12.92 -31.39 C-1.12 -42.74, -16.04 -57.13, -41.21 -77.83 M13.4 -34.66 C3.76 -44.82, -5.94 -51.81, -37.77 -82.77 M16.18 -34.18 C3.74 -45.15, -8.97 -56.55, -38.06 -81.02 M15.24 -39.1 C-2 -54.22, -22.74 -71.63, -32.44 -81.92 M16.98 -37.72 C3.64 -51.18, -11 -62.93, -34.53 -83.54 M17.18 -42.51 C0.45 -55.86, -13.11 -72.51, -29.29 -85.26 M17.72 -42.35 C7.38 -52.06, -1.74 -59.45, -28.49 -82.77 M20.32 -45.13 C6.41 -57.2, -10.32 -69.45, -23.05 -86.5 M20.44 -45.16 C2.97 -61.42, -12.08 -75.21, -25.33 -84.86 M23.41 -48.86 C10.03 -59.85, -0.32 -70.27, -20.57 -86.55 M21.9 -49.08 C9.16 -59.64, -1.59 -70.74, -19.77 -85.57 M25.53 -55.32 C12.65 -62.79, 4.71 -70.14, -16.68 -89.54 M23.28 -54.4 C11.19 -63.13, 0.18 -74.86, -15.72 -86.73 M27.08 -57.18 C10.5 -70.06, -4.07 -81.33, -11.49 -88.87 M25.06 -56.56 C19.33 -63.84, 10.91 -71.11, -10.62 -87.81 M28.63 -59.53 C20.85 -67.06, 12.74 -74.59, -6.71 -91.17 M26.95 -61 C18.33 -69.03, 8.31 -76.85, -7.8 -90.25 M27.68 -63.9 C22.55 -70.12, 14.39 -77.91, -0.19 -92.45 M28.55 -65.7 C19.17 -73.73, 11.23 -81.09, -2 -91.18 M29.83 -68.95 C21.72 -74.03, 13.01 -84.15, 2.96 -91.9 M31.46 -69.2 C24.08 -74.51, 16.75 -80.93, 3.41 -91.65 M34.18 -73.8 C28.45 -76.87, 24.51 -82.65, 10.9 -89.51 M32.75 -72.57 C26.83 -76.89, 21.75 -81.96, 9.94 -91.67 M31.81 -75.38 C26.88 -79.4, 23.86 -84.24, 18.63 -91.16 M34.3 -76.1 C29.87 -80.5, 23.44 -85.43, 17.58 -91.87" stroke="#15aabf" stroke-width="0.5" fill="none"></path><path d="M-0.86 -0.04 C-13.61 9.6, -60.16 58.44, -75.41 58.67 C-90.66 58.9, -93.2 20.44, -92.37 1.32 C-91.53 -17.79, -80.8 -41.74, -70.4 -56.01 C-59.99 -70.28, -43.47 -78.83, -29.95 -84.28 C-16.43 -89.73, 0.45 -90.12, 10.7 -88.69 C20.96 -87.26, 33.4 -90.59, 31.59 -75.69 C29.78 -60.8, 4.96 -12.14, -0.18 0.66 M0.89 -1.11 C-11.6 8.57, -57.73 59.05, -73.3 59.69 C-88.86 60.33, -93.11 22.37, -92.51 2.72 C-91.9 -16.93, -80.38 -43.7, -69.65 -58.19 C-58.92 -72.68, -41.22 -79.05, -28.14 -84.23 C-15.05 -89.42, -1.16 -90.55, 8.86 -89.32 C18.87 -88.09, 33.62 -91.87, 31.93 -76.87 C30.24 -61.87, 4.11 -12.19, -1.3 0.67" stroke="#343a40" stroke-width="1" fill="none"></path></g></g><mask></mask><g stroke-linecap="round"><g transform="translate(998.1846945215524 321.8560024144656) rotate(0 48.668858339398184 -24.411325476030697)" fill-rule="evenodd"><path d="M39.77 -79.38 C39.77 -79.38, 39.77 -79.38, 39.77 -79.38 M39.77 -79.38 C39.77 -79.38, 39.77 -79.38, 39.77 -79.38 M33.93 -68.58 C37.43 -69.44, 40.43 -75.24, 45.05 -77.53 M34.41 -68.22 C38.27 -69.95, 40.23 -74.1, 44.01 -79.19 M29.08 -53.48 C34.39 -62.73, 39.88 -69.86, 50.44 -79.79 M28.55 -54.88 C34.3 -62.41, 41.81 -68.97, 50.84 -78.59 M21.37 -41.65 C33.04 -54.26, 48.46 -68.53, 54.71 -75.61 M23.33 -42.09 C28.48 -49.09, 34.42 -55.72, 53.94 -76.02 M17.26 -28.59 C25.78 -38.22, 34.23 -48.55, 57.44 -73.71 M16.43 -29.67 C26.4 -38.57, 35.12 -49.95, 55.62 -74.41 M11.73 -17.21 C20.32 -26.31, 28.31 -38.71, 60.81 -70.41 M11.6 -15.73 C24.53 -31.25, 36.58 -44.7, 58.57 -70.74 M0.3 0.47 C14.52 -13.3, 27.97 -30.95, 62.02 -70.85 M1.81 2.23 C23.59 -22.88, 45.8 -49.64, 61.93 -68.31 M5.03 1.27 C25.78 -22.16, 48.09 -47.3, 65 -65.68 M5.24 2.79 C24.56 -19.76, 45.22 -43.63, 65.91 -66.86 M10.34 5.16 C25.74 -16.04, 42.95 -35.4, 70.09 -61.7 M10.05 3.53 C32.1 -21.56, 54.33 -45.5, 69.51 -63.73 M12.69 6.65 C34.47 -18.04, 54.68 -43.05, 69.71 -62.61 M14.07 5.81 C31.26 -15.73, 50.5 -36.36, 71.11 -60.05 M15.77 7.83 C38.44 -16.77, 60.19 -41.71, 73.4 -58.91 M16.88 6.5 C31.84 -11.73, 49.19 -29.11, 73.5 -57.1 M22.94 9.74 C35.86 -4.06, 45.36 -19.5, 77.49 -54.86 M20.27 8.79 C35.84 -6.63, 51.71 -24, 76.5 -54.75 M25.46 10.43 C40.54 -8.4, 55.54 -23.85, 76.8 -52.9 M25.47 10.78 C35.79 -1.52, 48.18 -15.12, 78.67 -50.37 M30.26 12.5 C44.59 -4.97, 58.64 -22.57, 80.99 -47.08 M28.83 12.58 C40.93 -1.65, 55.05 -16.53, 80.58 -47.71 M33.67 12.7 C52.9 -9.01, 70.05 -29.39, 84.27 -45.78 M32.51 14.44 C46.15 -1.73, 58.88 -16.96, 82.5 -44.04 M35.63 13.94 C55 -5.18, 71.6 -20.78, 85.05 -40.37 M36.74 14.27 C47.34 2.12, 59.37 -11.62, 85.04 -40.39 M42.19 18.67 C53.06 0.93, 66.78 -12.83, 87.63 -35.9 M41.21 17.56 C58.74 -3.15, 77.03 -23.57, 88.82 -36.6 M44.45 16.11 C60.2 1.23, 73.27 -14.11, 89.27 -35.04 M46.01 18.17 C55.5 6.46, 67.71 -6.75, 90.43 -32.79 M48.93 19.63 C62.62 4.81, 71.31 -7.06, 92.47 -31.8 M48.98 20.22 C62.76 4, 75.46 -11.52, 92.79 -29.53 M51.96 22.81 C62.05 10.66, 74.98 -2.9, 92.73 -27.65 M52.01 21.61 C62.47 10.07, 72.52 -0.86, 93.79 -27.44 M57.27 20.93 C68.76 8.52, 85.2 -7.32, 98.2 -20.51 M57.71 22.2 C68.57 10.48, 78.79 -0.56, 95.94 -22.63 M59.84 26.64 C71.89 15.56, 78.26 3.83, 98.68 -18.94 M61.1 24.86 C73.28 10.51, 85.82 -4.82, 98.37 -18.36 M66.06 23.93 C79.11 10.9, 90.79 -3.55, 100.04 -13.02 M64.84 26.05 C72.08 17.89, 78.8 8.63, 99.16 -12.42 M70.25 27.5 C78.58 13.41, 92.61 0.11, 101.14 -9.13 M67.67 28.7 C76.64 19.3, 83.11 11.29, 99.28 -7.33 M71.59 28.02 C84.22 19.65, 93.23 6.92, 100.98 -1.04 M72.3 28.02 C78.38 20.48, 85.16 14.79, 99.66 -1.96 M79.17 30.78 C84.77 19.46, 92.43 12.05, 100.25 2.57 M76.47 29.63 C82.54 22.61, 90.32 15.31, 101.76 3.56 M82.32 31.89 C86.08 27.41, 89.93 22.24, 100.51 11 M82.22 30.36 C88.51 23.38, 93.97 15.54, 100.68 10.19 M88.25 31.67 C91.03 28.3, 95.13 21.72, 100.29 17.01 M85.62 31.16 C88.96 28.48, 91.54 25.45, 98.35 17.98 M91.1 32.74 C91.48 30.24, 93.24 28.8, 96.3 27.11 M90.72 32.28 C92.38 30.64, 93.36 29.26, 96.26 26.71 M0 0 C0 0, 0 0, 0 0 M0 0 C0 0, 0 0, 0 0 M10.34 3.89 C7.04 1.4, 3.57 -0.39, 1.89 -3.03 M10.91 4.52 C9.25 2.25, 7.11 0.73, 1.71 -3.17 M22.38 9.16 C15.18 2.67, 6.57 -4.8, 3.66 -7.81 M22.62 9.96 C17.65 3.98, 12.59 -0.25, 3.62 -6.41 M31.63 14.82 C26.16 8.69, 23.41 3.65, 3.52 -9.73 M33.03 13.63 C27.55 8.43, 21.02 1.53, 5.54 -10.78 M44.19 15.58 C29.33 5.26, 17.81 -6.85, 7.85 -13.95 M44.9 16.72 C31.55 5.66, 17.61 -6.41, 5.9 -15.01 M55.66 20.51 C43.03 12.72, 31.69 -2.72, 7.05 -20.08 M55.93 23 C38.95 8.66, 23.17 -6.04, 7.81 -18.83 M63.11 25.5 C45.02 4.27, 23.52 -12.83, 10.25 -23.82 M63.08 23.17 C45.7 8.12, 29.33 -6.06, 10.59 -22.13 M71.89 25.74 C48.2 7.79, 27 -12.2, 14.23 -28.31 M74.36 25.92 C60.61 15.18, 45.91 3.24, 12.66 -26.78 M83.98 29.92 C60.39 10.45, 41.63 -5.5, 15.09 -28.82 M83.08 29.62 C58.42 8.8, 36.28 -10.33, 14.28 -30.82 M91.44 32.07 C71.21 14.58, 56.51 1.46, 17.24 -36.08 M90.38 30.74 C73.71 16.86, 59.35 4.64, 14.33 -34.22 M92.87 28.28 C78.85 12.42, 62.02 -0.2, 16.05 -38.35 M93.56 28.05 C75.86 11.64, 55.49 -4.12, 18.1 -38.43 M96.57 26.6 C67.11 2.12, 39.28 -24.09, 19.04 -40.04 M96.27 25.07 C68.79 1.08, 42.23 -21.61, 18.33 -41.49 M97.04 19.72 C78.99 4.23, 62.99 -10.64, 20.55 -43.79 M96.93 20.3 C69.72 -3.24, 42.37 -26.29, 20.95 -45.56 M96.85 14.28 C80.99 2.25, 65.88 -14.42, 22.74 -49.78 M97.63 15.04 C78.41 0.64, 59.18 -17.2, 21.94 -48.71 M99.08 11.56 C82.22 -2.32, 67.14 -15.43, 23.21 -52.45 M98.48 11.62 C77.21 -5.9, 57.96 -22.91, 24 -53.09 M97.05 4.08 C82.5 -6.46, 66.18 -21.94, 23.96 -55.84 M98.34 6.53 C81.33 -8.27, 65.07 -22.71, 25.44 -56.74 M96.97 2.27 C79.77 -17.21, 59.87 -33.87, 26.11 -59.64 M99.43 0.6 C80.33 -14.5, 63.19 -28.22, 27.9 -61.13 M97.64 -6.24 C78.87 -18.89, 61.01 -38.37, 31.04 -65.8 M98.01 -5.11 C75.43 -24.52, 53.34 -43.87, 29.41 -64.24 M98.4 -9.31 C74.93 -27.71, 54.64 -47.09, 31.09 -68.63 M98.27 -10.57 C82.12 -23.6, 65.41 -39.32, 32.11 -68.11 M96.56 -16.93 C75.94 -33.95, 49.76 -53.41, 34.52 -70.13 M96.76 -16.81 C79.3 -32.74, 59.52 -48.69, 33.15 -72.62 M98.57 -22.65 C82.52 -33.7, 67.02 -47.34, 33.92 -76.01 M97.53 -21.85 C83.6 -33.44, 68.48 -45.1, 36.08 -75.02 M95.22 -28.17 C77.83 -41.01, 64.38 -55.59, 37.67 -76.34 M96.25 -28.74 C83.43 -39.61, 70.15 -51.68, 38.27 -77.06 M84.79 -40.7 C72.82 -54.04, 55.78 -65.91, 39.86 -80.31 M87.4 -41.43 C69.94 -53.83, 55.38 -67.7, 41.8 -81.14 M72.12 -59.85 C66.56 -66.82, 55.76 -73.21, 45.99 -82.86 M72.25 -59.08 C63.24 -67.34, 54.94 -74.22, 45.13 -83.49" stroke="#fa5252" stroke-width="0.5" fill="none"></path><path d="M-1.14 -0.98 C5.24 -13.62, 27.07 -64.26, 37.45 -75.87 C47.84 -87.48, 53.51 -76.05, 61.18 -70.63 C68.85 -65.21, 77.49 -51.93, 83.5 -43.35 C89.51 -34.76, 95.18 -29.79, 97.25 -19.1 C99.32 -8.41, 98.7 12.43, 95.92 20.8 C93.13 29.16, 96.39 34.35, 80.52 31.07 C64.66 27.78, 14.26 6.27, 0.73 1.09 M0.46 1.12 C6.87 -11.3, 27.06 -61.97, 37.14 -74.25 C47.21 -86.54, 53.21 -77.87, 60.91 -72.59 C68.62 -67.32, 77.49 -51.64, 83.37 -42.59 C89.25 -33.54, 93.91 -28.72, 96.18 -18.3 C98.46 -7.88, 99.54 11.87, 97.03 19.93 C94.51 27.99, 97.23 33.17, 81.07 30.07 C64.92 26.97, 13.44 6.56, 0.09 1.31" stroke="#343a40" stroke-width="1" fill="none"></path></g></g><mask></mask><g stroke-linecap="round"><g transform="translate(998.9153986378761 321.8982399074407) rotate(0 -34.80675056365436 47.67743726920298)" fill-rule="evenodd"><path d="M-70.56 60.56 C-70.56 60.56, -70.56 60.56, -70.56 60.56 M-70.56 60.56 C-70.56 60.56, -70.56 60.56, -70.56 60.56 M-70.56 64.51 C-66.83 63.59, -63.63 57.41, -58.7 54.97 M-70.05 64.89 C-65.93 63.05, -63.85 58.63, -59.81 53.2 M-67.48 70.61 C-60.38 59.36, -53.12 50.19, -40.21 37.51 M-68.01 69.21 C-60.61 59.78, -51.4 51.25, -39.81 38.72 M-66 71.88 C-49.62 53.92, -29.62 34.38, -20.85 24.33 M-64.04 71.44 C-56.48 61.7, -48.07 52.22, -21.62 23.92 M-61.58 75.13 C-48.17 59.69, -34.85 43.75, 2.87 2.09 M-62.41 74.05 C-46.92 58.98, -32.66 41.25, 1.06 1.38 M-57.92 75.94 C-47.3 64.37, -37.2 49.54, 1.65 10.67 M-58.06 77.42 C-42.36 58.72, -27.49 42.02, -0.59 10.33 M-56.89 79.28 C-44.1 67.18, -32.15 51.25, -1.73 15.51 M-55.38 81.04 C-36.03 58.62, -16.21 34.61, -1.82 18.04 M-52.16 80.08 C-35.48 61.15, -17.17 40.62, -3.34 25.97 M-51.95 81.61 C-36.35 63.29, -19.4 43.69, -2.43 24.78 M-47.51 84.73 C-36.4 68.53, -23.44 54.06, -2.85 35.23 M-47.79 83.09 C-31.43 64.44, -14.73 46.85, -3.43 33.19 M-45.16 86.22 C-30.19 69.47, -16.93 52.45, -7.82 39.6 M-43.78 85.38 C-32.72 71.11, -19.7 57.65, -6.42 42.16 M-42.73 88.15 C-28.37 72.83, -14.82 57.34, -7.41 47.07 M-41.63 86.82 C-32.73 75.76, -21.54 65.47, -7.31 48.88 M-35.57 90.06 C-28.75 83.3, -25.17 74.66, -7.26 55.65 M-38.23 89.11 C-29.89 81.42, -20.95 72.03, -8.24 55.75 M-33.05 90.75 C-26.96 82.25, -20.79 76.95, -11.89 62.14 M-33.03 91.1 C-29.01 85.94, -22.96 79.64, -10.01 64.66 M-28.89 93.58 C-23.95 86.78, -18.96 79.6, -11.62 72.48 M-30.33 93.65 C-26.41 88.59, -20.31 82.92, -12.03 71.86 M-24.88 93.09 C-19.65 87.55, -16.22 82.99, -12.33 78.39 M-25.98 94.73 C-22.54 90.14, -19.57 86.17, -14.01 80.04 M-22.11 94.83 C-18.36 92.21, -15.98 91.22, -15.11 88.05 M-21.56 94.99 C-20.2 93.79, -18.28 91.63, -15.11 88.04 M-70.7 67.61 C-70.7 67.61, -70.7 67.61, -70.7 67.61 M-70.7 67.61 C-70.7 67.61, -70.7 67.61, -70.7 67.61 M-52.95 76.41 C-57.03 72.83, -63.6 68.63, -70.84 60.84 M-51.38 78.48 C-57.43 75.17, -60.94 70.87, -69.68 63.09 M-31.39 90.8 C-40.02 80.48, -53.57 73.28, -68.89 56.38 M-31.35 91.38 C-43.02 80.68, -55.64 70.47, -68.57 58.64 M-22.63 94.99 C-34.69 84.96, -43.94 73.85, -68.37 54.13 M-22.58 93.79 C-32.34 83.81, -42.46 75.12, -67.32 54.33 M-16 91.6 C-33.8 81.25, -46.61 66.96, -61.23 54.77 M-15.56 92.87 C-27.74 82.73, -40.51 72.92, -63.49 52.65 M-16.75 90.46 C-26.31 79.89, -41.55 69.3, -59.84 49.19 M-15.49 88.68 C-30.98 76.02, -46.11 62.15, -60.14 49.77 M-13.75 82.3 C-30.88 69.98, -49.39 55.97, -56.25 46.45 M-14.97 84.42 C-24.92 76.89, -35.41 67.87, -57.12 47.04 M-12.11 79.67 C-31.55 66.01, -45.29 52.72, -52.81 43.09 M-14.69 80.87 C-23.37 71.12, -34.54 63.11, -54.67 44.88 M-14.74 74.09 C-25.1 64.43, -39.06 51.03, -49.99 43.17 M-14.03 74.09 C-23.7 65.82, -32.64 59.67, -51.31 42.25 M-10.39 71.4 C-24.64 58.07, -36.82 49.23, -49.14 38.87 M-13.08 70.25 C-22.84 62.44, -30.89 54, -47.63 39.86 M-10.45 67.06 C-19.18 61.02, -27.8 53.86, -44.59 37.78 M-10.55 65.54 C-22.69 56.07, -35.62 45.28, -44.42 36.98 M-9.05 61.51 C-21.56 53.42, -32.67 42.36, -40.45 34.28 M-11.83 60.97 C-18.04 55.13, -25.08 49.33, -42.49 35.29 M-9.11 57.36 C-19.38 48.2, -26.1 41.86, -38.68 32.79 M-10.06 56.2 C-16.76 49.87, -25.05 43.76, -38.78 31.79 M-9.13 52.87 C-18.86 44.49, -27.66 37.26, -37.14 29.11 M-9.06 52.42 C-18.61 44.17, -27.53 34.95, -35.45 28.52 M-9.27 47.14 C-17.9 40.25, -26.79 34.55, -32.42 27.74 M-8.32 48.19 C-13.15 42.7, -18.76 38.41, -32.71 27.5 M-7.41 43.43 C-16.09 35.69, -26.17 26.94, -29.9 23.18 M-7.17 44.24 C-13.22 37.29, -19.35 32.12, -29.95 24.58 M-7.97 40.56 C-11.69 36.02, -12.69 32.5, -27.78 23.23 M-6.57 39.37 C-10.31 35.75, -15.06 30.39, -25.76 22.18 M-5.22 32.8 C-12.65 29.06, -16.73 23.41, -21.94 20.32 M-4.51 33.94 C-10.82 29.22, -17.63 23.36, -23.89 19.26 M-5.07 27.88 C-9.09 27.79, -11.54 20.08, -21.98 14.85 M-4.8 30.37 C-10.85 25.51, -15.61 20.38, -21.22 16.1 M-4.33 26.81 C-7.74 19.25, -13.99 15.25, -17.25 12.53 M-4.35 24.71 C-8.58 21.1, -11.78 18.36, -16.95 14.05 M-3.55 20.25 C-8.08 18.01, -10.88 14.4, -12.26 9.72 M-1.7 20.38 C-4.39 18.91, -7.76 16.61, -13.44 10.87 M-0.89 16.58 C-5.52 13.28, -7.26 11.99, -10.53 8.89 M-1.43 16.41 C-5.29 13.43, -7.88 11.25, -11.02 7.69 M-0.25 12.37 C-3.21 9.75, -3.56 9.29, -6.81 5.03 M-0.73 11.77 C-2.47 10.09, -3.4 9.41, -8.13 5.87 M-0.17 7.19 C-0.3 5.93, -1.44 5.54, -4.64 3.34 M0.04 7.12 C-0.66 6.32, -2.21 5.56, -4.03 3.32 M0.64 2.52 C-0.04 2.01, -0.53 1.39, -0.93 1.23 M0.61 2.36 C0.05 1.86, -0.47 1.45, -1 1.09" stroke="#be4bdb" stroke-width="0.5" fill="none"></path><path d="M1.2 0.15 C-9.66 9.79, -55.46 44.71, -66.3 56.86 C-77.15 69, -67.83 68.05, -63.87 73.03 C-59.9 78.01, -49.46 83.08, -42.51 86.75 C-35.57 90.42, -26.64 95.38, -22.21 95.06 C-17.79 94.75, -19.79 100.53, -15.97 84.87 C-12.14 69.21, -1.82 15.24, 0.73 1.09 M0.37 -0.81 C-10.47 8.57, -56.47 42.64, -66.75 55.11 C-77.04 67.58, -65.5 69.09, -61.35 74 C-57.2 78.92, -48.7 81, -41.87 84.6 C-35.03 88.21, -24.86 95.7, -20.32 95.63 C-15.79 95.56, -18.33 100.06, -14.65 84.18 C-10.97 68.29, -0.95 14.4, 1.76 0.31" stroke="#343a40" stroke-width="1" fill="none"></path></g></g><mask></mask><g stroke-linecap="round"><g transform="translate(998.5089912686749 321.90786560500806) rotate(0 38.654722959734215 50.44515631357592)" fill-rule="evenodd"><path d="M0 0 C0 0, 0 0, 0 0 M0 0 C0 0, 0 0, 0 0 M-1.95 7.18 C-0.22 5.72, 0.43 5.68, 5.15 1.27 M-1.58 7.75 C-0.36 6.44, 1.42 4.61, 4.14 0.68 M-3.35 17.34 C-1.49 11.99, 2.31 8.04, 6.49 4.35 M-2.4 15.02 C0.39 11.71, 2.73 7.96, 8.44 3.67 M-6.53 24.67 C-1.04 18.72, 4.71 10.06, 11.12 2.28 M-5.71 23.65 C1.48 17.43, 6.2 11.47, 12.38 4.76 M-7.74 31.65 C-2.68 24.07, 2.81 19.88, 16.61 6.22 M-7.29 32.21 C-0.65 26.37, 3.11 20.22, 16.42 5.08 M-9.14 41.31 C-1.95 32.15, 7.44 23.1, 18.65 6.73 M-9.25 41.07 C1.93 27.1, 12.9 15.17, 20.84 6.75 M-8.82 47.24 C-2.54 38.82, 10 26.88, 25.86 8.09 M-9.51 47.68 C-1.56 37.27, 7.73 25.96, 23.54 8.59 M-11.03 55.76 C-2.23 45.07, 7.07 32.27, 28.47 9.79 M-11.85 55.86 C-2.01 46.35, 6.69 35.25, 28 10.1 M-11.92 62.18 C-1.22 51.53, 7.85 37.92, 30.72 13.93 M-12.71 64.58 C0.79 46.77, 16.14 30.5, 31.72 12.29 M-14.48 72.88 C-2.75 62.13, 6.03 48.12, 35.81 14.44 M-14.14 71.58 C1.98 50.7, 20.25 31.68, 36.09 13.53 M-15.55 79.1 C-2 63.42, 8.03 48.62, 38.37 16.49 M-15.82 77.7 C1.05 61.62, 15.52 44.4, 40.83 14.4 M-16.06 82.78 C1.68 60.93, 22.19 39.53, 45.36 17.71 M-15.42 84.23 C2.25 65.51, 18.65 45.23, 43.87 15.51 M-17.4 91.38 C8.47 64.93, 33.53 35, 48.51 19.56 M-15.89 90.29 C1.88 72.03, 18.12 52.62, 47.77 18.37 M-15.11 94.38 C-0.92 79.15, 13.67 62.71, 53.27 20.64 M-13.27 94.83 C6.1 74.07, 23.53 52.69, 51.61 19.21 M-11.74 95.93 C7.47 77.95, 24.18 58.33, 55.26 19.97 M-10.53 97.83 C5.95 79.28, 20.07 63.08, 55.43 21.87 M-9.89 102.61 C20.62 69.19, 44.15 37.66, 61.17 22.32 M-8.65 101.59 C9.45 81.39, 28.13 59.88, 60.09 21.56 M-2.6 103.98 C21.01 74.3, 46.43 46.12, 65.24 25.55 M-4.05 101.82 C21.16 71.9, 45.64 43.1, 63.72 23.82 M-0.84 104.44 C19.48 81.91, 42.06 55.19, 70.16 25.87 M-0.11 103.01 C23.58 75.44, 47.76 48.46, 67.61 24.23 M6.7 100.76 C27.34 79.6, 47.97 55.7, 71.53 25.2 M6.01 102.48 C23.8 80.83, 42.95 59.55, 72.59 27.37 M10.75 101.14 C30.11 79.51, 50.23 58.68, 74.8 28.43 M12.48 101.04 C29.54 83.95, 44.33 64, 76.98 28.59 M17.07 99.56 C38.56 78.85, 57.07 54.81, 79.02 31.57 M17.37 101.78 C40.93 74.02, 66.38 47.83, 80.32 29.65 M24.79 100.77 C46.41 76.4, 68 50.31, 83.81 32.7 M24.98 100.66 C39.26 83.62, 53.08 66.14, 83.24 32.28 M30.8 98.92 C51.97 74.95, 70.51 53.01, 88.39 32.86 M33.18 97.64 C49.87 77.59, 66.68 55.73, 86.54 34.54 M38.84 96.11 C53.61 75.45, 71.71 61.3, 90.66 35.61 M40.46 94.77 C58.39 71.17, 78.35 50.44, 91.18 36.9 M48.36 91.17 C61.35 73.05, 73.53 57.66, 92.78 36.3 M49.81 89.49 C65.98 70.32, 84.73 49.2, 93.88 37.12 M-10.64 99.12 C-10.64 99.12, -10.64 99.12, -10.64 99.12 M-10.64 99.12 C-10.64 99.12, -10.64 99.12, -10.64 99.12 M-1.91 101.61 C-5.79 98.01, -12.85 94.1, -15.04 89.66 M-2.33 100.64 C-6.49 98.9, -8.62 95.67, -14.08 90.15 M-1.68 97.46 C-6.69 91.73, -10.21 88.87, -15.08 83.51 M-0.49 98.42 C-5.24 93.93, -9.53 88.52, -16.19 84.19 M4.58 98.97 C2.95 92.97, -5 90.99, -16.7 79.17 M6.04 96.61 C-0.34 92.83, -4.33 88.34, -14.67 79.51 M12.55 95.04 C0.35 87.86, -8.1 80.11, -13.61 76.48 M11.63 96.78 C3.34 89.72, -4.24 83.01, -14.53 73.66 M15.29 97.59 C6.68 86.85, -4.57 78.45, -14.16 71.14 M17.72 96.65 C8.58 88.76, -1.18 80.97, -13.43 69.6 M22.88 97.12 C12.86 89.31, 8.04 82.71, -12.75 67.32 M22.32 96.88 C11.17 86.39, 1.62 76.94, -11.79 66.91 M25.63 94.11 C12.78 82.26, 0.34 71.16, -10.63 60.22 M28.14 95.07 C18.42 88.26, 10.05 80.96, -11.66 61.9 M32.76 92.21 C15.44 82.06, 1.14 69.96, -9.93 57.42 M31.29 92.38 C17.96 81.18, 3.14 69.27, -9.79 57.5 M36.57 90.97 C27.3 82.88, 18.68 73.62, -8.52 52.19 M36.4 90.9 C20.78 78.52, 7.44 66.7, -10.53 52.09 M40.41 89.12 C28.77 77.7, 15.32 68.21, -9.32 49.49 M40.54 90.4 C21.12 72.88, 1.13 56.2, -8.1 48.02 M43.08 88.57 C26.01 73.93, 5.21 57.18, -8.05 41.91 M44.65 88.86 C28.79 76.21, 14.16 61.24, -8.49 43.11 M49.52 89.04 C26.96 71.94, 9.59 52.02, -6.64 39.64 M48.11 86.67 C27.15 68.04, 4.84 47.08, -7.76 39.15 M51.04 87.39 C34.59 68.56, 13.41 50.2, -7.94 35.87 M52.02 86.43 C34.03 68.52, 15.41 53.56, -6.93 34.77 M55.21 83.57 C38.03 67.04, 21.04 55.09, -5.13 28.66 M57 82.52 C34.88 64.24, 13.01 44.68, -4.29 29.94 M61.33 83.27 C40.56 66.26, 23.05 49.59, -5.46 25 M59.67 82.18 C42.11 65.25, 22.33 48.32, -5.26 25.48 M64.09 77.96 C48.28 67.52, 34.68 53.54, -3.59 18.71 M62.25 79.15 C42.55 60.86, 22.93 44.33, -2.71 21.54 M64.79 74.76 C50.2 60.74, 30.4 45.59, -0.4 15.86 M64.76 76.06 C46.74 60.12, 29.49 43.49, -1.85 16.51 M67.75 73.19 C44.76 52.39, 21.27 29.08, -0.32 12.64 M67.42 72.68 C42.24 48.76, 15.43 26.54, -0.52 11.48 M69.51 69.74 C51.43 53.87, 35.7 37.26, 0.9 7.42 M70.77 69.07 C43.57 44.76, 16.59 22.18, -1.07 7.76 M72.49 67.23 C52.67 48.32, 27.25 25.75, -1.16 2.67 M73.35 66.42 C46.53 41.58, 17.01 17.68, 1.3 3.37 M76.75 62.12 C55.58 45.47, 35.98 27.9, 1.61 -1.68 M76.37 62.94 C52.01 41.84, 26.41 18.77, 1.73 -2.04 M77.58 61.78 C58.85 44.59, 40.68 28.54, 14.33 2.25 M79.36 60.63 C65.38 47.81, 50.24 37.05, 13.11 1.74 M80.52 55.21 C57.01 35.71, 32.6 17.5, 21.93 4.66 M80.06 56.52 C62.28 41.02, 44.25 24.9, 22.84 5.52 M81.24 52.26 C69.79 39.68, 52.61 28.17, 33.24 9.66 M82.32 53.47 C63.23 35.86, 44.09 18.69, 33.94 10.68 M83.79 49.66 C72.3 39.86, 58.21 29.56, 44.34 16.07 M85.31 50.68 C75.23 40.7, 65.61 33.31, 44.33 13.6 M87.94 46.37 C78.03 39.24, 66.48 26.67, 56.56 18.69 M86.85 46.61 C74.81 35, 61.69 25.74, 53.8 17.45 M89.49 42.83 C80.84 35.51, 75.2 31.3, 64.38 23.64 M88.63 42.72 C79.34 35.37, 70.51 27.03, 65.88 23.01 M91.6 40.19 C89.9 36, 86.06 32.9, 76.29 28.86 M91.57 40.27 C88.43 36.7, 85.47 33.75, 77.58 27.88" stroke="#4c6ef5" stroke-width="0.5" fill="none"></path><path d="M0.95 0.72 C-2 15.69, -19.1 73.5, -16.5 89.99 C-13.9 106.47, 7.76 99.16, 16.55 99.61 C25.35 100.07, 29.21 95.48, 36.27 92.73 C43.32 89.98, 52.14 87.77, 58.88 83.12 C65.63 78.47, 72.55 70.4, 76.76 64.83 C80.97 59.25, 82 53.92, 84.16 49.68 C86.31 45.43, 89.84 42.37, 89.71 39.37 C89.57 36.38, 98.27 38.09, 83.35 31.69 C68.43 25.28, 13.9 6.12, 0.18 0.94 M-0.01 0.05 C-2.68 15.15, -16.86 74.91, -14.16 91.18 C-11.46 107.45, 7.79 97.21, 16.19 97.68 C24.58 98.15, 29.36 96.31, 36.21 94 C43.07 91.7, 50.87 88.79, 57.32 83.85 C63.77 78.91, 70.37 70.28, 74.9 64.36 C79.42 58.43, 81.64 52.47, 84.46 48.31 C87.29 44.16, 91.78 42.43, 91.85 39.44 C91.92 36.45, 100.02 36.77, 84.89 30.36 C69.75 23.95, 15.48 6.33, 1.04 0.99" stroke="#343a40" stroke-width="1" fill="none"></path></g></g><mask></mask><g stroke-linecap="round" transform="translate(825.7442648897155 447.1197229940367) rotate(0 14.226063156818384 13.857385089486684)"><path d="M0.91 14.04 C0.91 14.04, 0.91 14.04, 0.91 14.04 M0.91 14.04 C0.91 14.04, 0.91 14.04, 0.91 14.04 M3.92 16.66 C6.6 11.37, 11.44 10.32, 16.39 2.32 M3.92 16.66 C8.5 11.78, 12.72 6.7, 16.39 2.32 M6.94 19.29 C10.2 13.81, 18.71 8.66, 20.06 4.19 M6.94 19.29 C9.01 15.33, 12.58 13.24, 20.06 4.19 M9.96 21.91 C15.21 15.54, 17.52 12.71, 22.43 7.57 M9.96 21.91 C13.81 17.01, 18.74 11.93, 22.43 7.57 M12.98 24.53 C15.51 18.66, 21.21 15.9, 24.79 10.95 M12.98 24.53 C17.73 18.77, 22.21 15.21, 24.79 10.95 M16 27.16 C21.79 20.44, 25.39 16.36, 27.81 13.57 M16 27.16 C20.47 21.94, 25.64 16.89, 27.81 13.57 M15.05 26.89 C15.05 26.89, 15.05 26.89, 15.05 26.89 M15.05 26.89 C15.05 26.89, 15.05 26.89, 15.05 26.89 M17.68 23.87 C12.18 19.53, 5.81 12.73, 3.34 11.4 M17.68 23.87 C11.41 18.84, 6.75 13.71, 3.34 11.4 M20.3 20.85 C13.99 14.65, 9.54 12.41, 5.96 8.38 M20.3 20.85 C15.6 18.2, 13.51 14.67, 5.96 8.38 M23.68 18.49 C21.73 14.24, 16.69 12.15, 8.59 5.36 M23.68 18.49 C18.85 13.87, 14.22 11.53, 8.59 5.36 M26.31 15.47 C22.41 12.86, 20.24 9.21, 11.97 3 M26.31 15.47 C23.37 13.34, 20.03 9.77, 11.97 3 M28.93 12.45 C23.6 8.13, 19.49 5.73, 15.34 0.64 M28.93 12.45 C25.38 10.28, 22.66 6.76, 15.34 0.64" stroke="#15aabf" stroke-width="0.5" fill="none"></path><path d="M18.75 3.5 M18.75 3.5 C20.33 4.99, 22.13 6.32, 24.7 10.5 M18.75 3.5 C21.04 5.94, 23.26 8.68, 24.7 10.5 M24.7 10.5 C27.52 15, 27.42 13.11, 24.7 17.5 M24.7 10.5 C26.76 11.8, 30.71 15.7, 24.7 17.5 M24.7 17.5 C22.81 19.15, 20.95 21.76, 18.75 24.21 M24.7 17.5 C23.59 19.45, 21.51 20.97, 18.75 24.21 M18.75 24.21 C16.57 28.77, 16.97 26.19, 11.25 24.21 M18.75 24.21 C15.93 26.51, 15.26 27.33, 11.25 24.21 M11.25 24.21 C10.34 22.68, 8.18 21.13, 3.75 17.5 M11.25 24.21 C9.15 22.85, 8.19 21.46, 3.75 17.5 M3.75 17.5 C-0.38 12.77, -1.32 12.46, 3.75 10.5 M3.75 17.5 C1.55 13.44, -1 14.39, 3.75 10.5 M3.75 10.5 C5.91 8.15, 9.34 5.2, 11.25 3.5 M3.75 10.5 C6.56 7.66, 9.02 5.38, 11.25 3.5 M11.25 3.5 C14.78 2, 16.04 -1.64, 18.75 3.5 M11.25 3.5 C16.49 -0.33, 13.67 -0.84, 18.75 3.5" stroke="#1e1e1e" stroke-width="1" fill="none"></path></g><g transform="translate(859.1300439807858 453.1265526826494) rotate(0 16.78398895263672 10)"><text x="16.78398895263672" y="0" font-family="Virgil, Segoe UI Emoji" font-size="16px" fill="#1e1e1e" text-anchor="middle" style="white-space: pre;" direction="ltr" dominant-baseline="text-before-edge">Free</text></g><g stroke-linecap="round" transform="translate(994.6669810565576 447.55417425833843) rotate(0 11.507673395723543 14.466344222315684)"><path d="M10.89 1.52 C10.89 1.52, 10.89 1.52, 10.89 1.52 M10.89 1.52 C10.89 1.52, 10.89 1.52, 10.89 1.52 M2.76 16.97 C4.52 13.77, 9.83 10.89, 14.56 3.39 M2.76 16.97 C7.1 11.45, 11.77 6.52, 14.56 3.39 M5.77 19.59 C9.65 17.41, 8.89 14.45, 17.58 6.01 M5.77 19.59 C7.46 17.16, 11.35 12.79, 17.58 6.01 M8.14 22.97 C10.53 20.03, 14.57 12.32, 19.95 9.39 M8.14 22.97 C13.35 17.46, 17.74 12.96, 19.95 9.39 M10.5 26.35 C11.68 21.65, 16.38 22.02, 22.31 12.77 M10.5 26.35 C12.26 23.31, 15.32 19.92, 22.31 12.77 M11.68 27.72 C11.68 27.72, 11.68 27.72, 11.68 27.72 M11.68 27.72 C11.68 27.72, 11.68 27.72, 11.68 27.72 M14.3 24.7 C10.92 20.26, 6.3 15.79, 1.47 13.55 M14.3 24.7 C11.64 21.58, 8.32 19.93, 1.47 13.55 M16.93 21.68 C14.51 17.6, 10.09 13.68, 4.1 10.53 M16.93 21.68 C13.63 18.09, 10.29 15.42, 4.1 10.53 M19.55 18.66 C16.4 15.85, 12.19 12.89, 6.72 7.51 M19.55 18.66 C14.85 15.39, 11.69 10.98, 6.72 7.51 M22.18 15.64 C18.41 12.53, 14.8 6.78, 9.35 4.49 M22.18 15.64 C18.2 12.64, 15.32 10.08, 9.35 4.49 M24.8 12.62 C21.57 10.34, 15.53 4.76, 11.22 0.81 M24.8 12.62 C21.35 8.43, 16.61 6.24, 11.22 0.81" stroke="#fa5252" stroke-width="0.5" fill="none"></path><path d="M15 3.75 M15 3.75 C17.24 5.98, 18.54 9.52, 20.02 11.25 M15 3.75 C16.93 5.81, 18.02 8.28, 20.02 11.25 M20.02 11.25 C22.94 16.65, 24.6 15.87, 20.02 18.75 M20.02 11.25 C25.31 14.99, 24.9 14.13, 20.02 18.75 M20.02 18.75 C19.27 20.08, 17.24 21.57, 15 25.18 M20.02 18.75 C18.19 20.6, 16.91 22.36, 15 25.18 M15 25.18 C12.32 30.19, 12.54 29.99, 9 25.18 M15 25.18 C9.9 28.13, 11.7 26.71, 9 25.18 M9 25.18 C6.69 23.23, 4.38 21.51, 3 18.75 M9 25.18 C7.35 23.53, 5.56 21.89, 3 18.75 M3 18.75 C-1.22 16.44, -1.49 14.82, 3 11.25 M3 18.75 C-1.65 13.72, -1.05 15.01, 3 11.25 M3 11.25 C5.79 9.31, 7.52 5.34, 9 3.75 M3 11.25 C4.5 9.65, 5.97 7.79, 9 3.75 M9 3.75 C11.98 1.13, 12.98 1.91, 15 3.75 M9 3.75 C10.5 -1, 12.47 1.03, 15 3.75" stroke="#1e1e1e" stroke-width="1" fill="none"></path></g><g transform="translate(1021.1384178784375 452.00763836918236) rotate(0 39.23198699951172 10)"><text x="39.23198699951172" y="0" font-family="Virgil, Segoe UI Emoji" font-size="16px" fill="#1e1e1e" text-anchor="middle" style="white-space: pre;" direction="ltr" dominant-baseline="text-before-edge">Tentative</text></g><g stroke-linecap="round" transform="translate(912.3386054348301 448.3308570472227) rotate(0 13.061038973492089 13.301320038989388)"><path d="M0.87 14.01 C0.87 14.01, 0.87 14.01, 0.87 14.01 M0.87 14.01 C0.87 14.01, 0.87 14.01, 0.87 14.01 M3.89 16.63 C6.9 12.14, 11.44 10.28, 16.35 2.29 M3.89 16.63 C7.42 13.1, 11.72 9.11, 16.35 2.29 M6.91 19.25 C11.81 13.78, 14.33 9.72, 19.37 4.92 M6.91 19.25 C10.29 15.14, 12.28 12.24, 19.37 4.92 M9.93 21.88 C12.09 19.71, 15.9 14.18, 21.74 8.29 M9.93 21.88 C14.04 16.43, 18.28 12.71, 21.74 8.29 M12.95 24.5 C15.8 21.27, 19.56 16.92, 24.1 11.67 M12.95 24.5 C15.47 21.65, 19.34 18.36, 24.1 11.67 M13.66 25.44 C13.66 25.44, 13.66 25.44, 13.66 25.44 M13.66 25.44 C13.66 25.44, 13.66 25.44, 13.66 25.44 M17.04 23.07 C12.6 17.34, 8.35 13.55, 3.46 11.26 M17.04 23.07 C11.32 17.96, 7.07 14.07, 3.46 11.26 M19.67 20.05 C16.67 15.91, 14.11 16.12, 6.08 8.25 M19.67 20.05 C15.18 16.39, 12.73 14.05, 6.08 8.25 M22.29 17.04 C17.26 12.14, 13.31 9.62, 8.71 5.23 M22.29 17.04 C18.8 14.89, 16.04 13, 8.71 5.23 M24.92 14.02 C19.1 9.13, 13.84 5.68, 11.33 2.21 M24.92 14.02 C20.69 10.23, 15.6 5.52, 11.33 2.21" stroke="#4c6ef5" stroke-width="0.5" fill="none"></path><path d="M17.5 3.5 M17.5 3.5 C18.55 5.69, 20.75 6.34, 22.62 10.5 M17.5 3.5 C18.96 6.01, 20.82 7.99, 22.62 10.5 M22.62 10.5 C25.55 13.05, 26.8 13.55, 22.62 17.5 M22.62 10.5 C25.85 12.85, 24.67 13.36, 22.62 17.5 M22.62 17.5 C21.75 18.97, 19.38 20.6, 17.5 23.1 M22.62 17.5 C21.66 18.51, 20.83 20.21, 17.5 23.1 M17.5 23.1 C13.95 27.92, 14.87 27.81, 10.5 23.1 M17.5 23.1 C13.26 28.21, 15.3 26.44, 10.5 23.1 M10.5 23.1 C8.06 20.46, 5.11 19.29, 3.5 17.5 M10.5 23.1 C7.89 20.96, 5.46 19.06, 3.5 17.5 M3.5 17.5 C-0.33 14.18, 1.07 15.14, 3.5 10.5 M3.5 17.5 C1.62 14.73, 1.73 14.12, 3.5 10.5 M3.5 10.5 C5.28 8.84, 7.02 5.58, 10.5 3.5 M3.5 10.5 C4.76 8.77, 6.51 7.41, 10.5 3.5 M10.5 3.5 C15.04 -1.28, 14.86 -1.87, 17.5 3.5 M10.5 3.5 C12.21 0.44, 13.05 -0.03, 17.5 3.5" stroke="#1e1e1e" stroke-width="1" fill="none"></path></g><g transform="translate(944.8290702444723 452.78432115806686) rotate(0 18.45598602294922 10)"><text x="18.45598602294922" y="0" font-family="Virgil, Segoe UI Emoji" font-size="16px" fill="#1e1e1e" text-anchor="middle" style="white-space: pre;" direction="ltr" dominant-baseline="text-before-edge">Busy</text></g><g stroke-linecap="round" transform="translate(1109.9516868681267 448.27186706589123) rotate(0 13.837721762376134 14.078002827873433)"><path d="M0.71 15.19 C0.71 15.19, 0.71 15.19, 0.71 15.19 M0.71 15.19 C0.71 15.19, 0.71 15.19, 0.71 15.19 M3.73 17.82 C8.21 12.74, 12.92 10.21, 16.19 3.48 M3.73 17.82 C8.32 13.01, 11.76 7.06, 16.19 3.48 M6.75 20.44 C8.31 16.2, 10.68 15.08, 19.87 5.35 M6.75 20.44 C12.5 14.73, 16.09 10.43, 19.87 5.35 M9.77 23.06 C14.77 19.61, 15.59 15.61, 22.23 8.72 M9.77 23.06 C11.42 19.08, 15.13 16.58, 22.23 8.72 M12.78 25.69 C14.84 20.49, 19.14 17.83, 24.59 12.1 M12.78 25.69 C16.18 20.42, 20.98 17.71, 24.59 12.1 M13.68 26.94 C13.68 26.94, 13.68 26.94, 13.68 26.94 M13.68 26.94 C13.68 26.94, 13.68 26.94, 13.68 26.94 M17.06 24.58 C11.21 19.25, 6.45 15.83, 3.48 12.77 M17.06 24.58 C12.22 19.24, 7.51 15.74, 3.48 12.77 M19.68 21.56 C15.75 19.85, 15.32 18.45, 6.1 9.75 M19.68 21.56 C15.5 17.43, 9.73 13.63, 6.1 9.75 M23.06 19.2 C17.48 15.27, 15.46 11.59, 8.72 6.73 M23.06 19.2 C17.32 15.49, 12.66 10.81, 8.72 6.73 M25.69 16.18 C23.3 14.39, 17.93 9.21, 11.35 3.71 M25.69 16.18 C21.23 12.58, 18.11 9.21, 11.35 3.71 M28.31 13.16 C26.13 11.03, 18.63 7.09, 13.97 0.69 M28.31 13.16 C23.15 9.11, 16.72 4.23, 13.97 0.69" stroke="#be4bdb" stroke-width="0.5" fill="none"></path><path d="M17.5 3.75 M17.5 3.75 C20.32 5.14, 20.31 7.26, 24.18 11.25 M17.5 3.75 C19.25 5.52, 20.2 6.89, 24.18 11.25 M24.18 11.25 C29.55 14.97, 29.43 16.36, 24.18 18.75 M24.18 11.25 C27.52 16.88, 25.89 13.45, 24.18 18.75 M24.18 18.75 C21.32 21.37, 20.05 22.15, 17.5 24.41 M24.18 18.75 C21.95 20.49, 20.9 21.55, 17.5 24.41 M17.5 24.41 C15.32 28.1, 13.27 27.92, 10.5 24.41 M17.5 24.41 C12.01 27.36, 15.36 29, 10.5 24.41 M10.5 24.41 C8.03 23.32, 6.18 19.92, 3.5 18.75 M10.5 24.41 C8.42 23.06, 7.07 21.64, 3.5 18.75 M3.5 18.75 C1.56 16.5, -0.68 14.11, 3.5 11.25 M3.5 18.75 C-0.66 17.05, -1.29 14.35, 3.5 11.25 M3.5 11.25 C5.96 9.13, 8.17 7.35, 10.5 3.75 M3.5 11.25 C6.4 8.55, 8.56 5.51, 10.5 3.75 M10.5 3.75 C12.44 1.11, 14.67 0.61, 17.5 3.75 M10.5 3.75 C14.18 -1.31, 13.59 -1.23, 17.5 3.75" stroke="#1e1e1e" stroke-width="1" fill="none"></path></g><g transform="translate(1140.3674105735017 453.5020139656194) rotate(0 17.423995971679688 10)"><text x="17.423995971679688" y="0" font-family="Virgil, Segoe UI Emoji" font-size="16px" fill="#1e1e1e" text-anchor="middle" style="white-space: pre;" direction="ltr" dominant-baseline="text-before-edge">OOO</text></g><g stroke-linecap="round" transform="translate(1364.925661628508 185.055571761176) rotate(0 113.94632688477736 135.4831133036638)"><path d="M32 0 M32 0 C71.03 -1.76, 105.56 0.95, 195.89 0 M32 0 C76.56 1.25, 121.25 1.94, 195.89 0 M195.89 0 C218.98 0.57, 226.58 10.74, 227.89 32 M195.89 0 C217.72 -0.72, 229.6 10.21, 227.89 32 M227.89 32 C225.84 105.16, 226.5 178.15, 227.89 238.97 M227.89 32 C225.99 84.02, 226.35 135.11, 227.89 238.97 M227.89 238.97 C227.7 262.27, 216.57 272.22, 195.89 270.97 M227.89 238.97 C229.59 259.68, 215.17 271.92, 195.89 270.97 M195.89 270.97 C157.26 269.57, 119.91 269.29, 32 270.97 M195.89 270.97 C154.17 272.4, 111.8 272.83, 32 270.97 M32 270.97 C8.79 270.77, 1.5 261.68, 0 238.97 M32 270.97 C11.67 269.76, -1 261.94, 0 238.97 M0 238.97 C2.54 190.31, 1.9 143.18, 0 32 M0 238.97 C1.47 187.53, 1.17 135.19, 0 32 M0 32 C0.55 9.5, 12.15 -1.38, 32 0 M0 32 C1.33 11.37, 11.66 2.25, 32 0" stroke="#1e1e1e" stroke-width="1" fill="none"></path></g><g transform="translate(1430.9265238694868 189.64004474079866) rotate(0 55.231964111328125 10)"><text x="55.231964111328125" y="0" font-family="Virgil, Segoe UI Emoji" font-size="16px" fill="#1e1e1e" text-anchor="middle" style="white-space: pre;" direction="ltr" dominant-baseline="text-before-edge">My work hours</text></g><g transform="translate(1377.954578167162 227.98264963060933) rotate(0 18.503990173339844 10)"><text x="18.503990173339844" y="0" font-family="Virgil, Segoe UI Emoji" font-size="16px" fill="#1e1e1e" text-anchor="middle" style="white-space: pre;" direction="ltr" dominant-baseline="text-before-edge">Type</text></g><g transform="translate(1448.3108520942303 229.128767875515) rotate(0 21.167984008789062 10)"><text x="21.167984008789062" y="0" font-family="Virgil, Segoe UI Emoji" font-size="16px" fill="#1e1e1e" text-anchor="middle" style="white-space: pre;" direction="ltr" dominant-baseline="text-before-edge">Hours</text></g><g transform="translate(1499.8619673267542 229.12876787551454) rotate(0 43.47197723388672 10)"><text x="43.47197723388672" y="0" font-family="Virgil, Segoe UI Emoji" font-size="16px" fill="#1e1e1e" text-anchor="middle" style="white-space: pre;" direction="ltr" dominant-baseline="text-before-edge">Percentage</text></g><g transform="translate(1384.7826155127882 267.0553825864622) rotate(0 16.78398895263672 10)"><text x="16.78398895263672" y="0" font-family="Virgil, Segoe UI Emoji" font-size="16px" fill="#1e1e1e" text-anchor="middle" style="white-space: pre;" direction="ltr" dominant-baseline="text-before-edge">Free</text></g><g stroke-linecap="round"><g transform="translate(1367.5029156801902 256.63560575325096) rotate(0 112.86245533832289 0.2779580846331555)"><path d="M1.05 0.34 C38.17 0.19, 186.07 -0.27, 223.28 -0.48 M0.15 -0.53 C37.6 -0.51, 188.32 0.96, 225.58 1.08" stroke="#1e1e1e" stroke-width="1" fill="none"></path></g></g><mask></mask><g transform="translate(1464.210376498776 267.57608539438525) rotate(0 7.0399932861328125 10)"><text x="7.0399932861328125" y="0" font-family="Virgil, Segoe UI Emoji" font-size="16px" fill="#1e1e1e" text-anchor="middle" style="white-space: pre;" direction="ltr" dominant-baseline="text-before-edge">19</text></g><g transform="translate(1525.4426995512556 267.57608539438525) rotate(0 23.93597412109375 10)"><text x="23.93597412109375" y="0" font-family="Virgil, Segoe UI Emoji" font-size="16px" fill="#1e1e1e" text-anchor="middle" style="white-space: pre;" direction="ltr" dominant-baseline="text-before-edge">47,5%</text></g><g transform="translate(1366.6082565400538 304.02262836515524) rotate(0 39.23198699951172 10)"><text x="39.23198699951172" y="0" font-family="Virgil, Segoe UI Emoji" font-size="16px" fill="#1e1e1e" text-anchor="middle" style="white-space: pre;" direction="ltr" dominant-baseline="text-before-edge">Tentative</text></g><g stroke-linecap="round"><g transform="translate(1366.7732312584674 293.6028515319442) rotate(0 111.19227063639607 0.5902647606195615)"><path d="M0.64 -0.62 C37.64 -0.48, 185.84 0.33, 222.86 0.61 M-0.48 1.66 C36.29 1.97, 184.85 1.67, 221.93 1.76" stroke="#1e1e1e" stroke-width="1" fill="none"></path></g></g><mask></mask><g transform="translate(1466.2769365569466 303.2925002991128) rotate(0 6.1199951171875 10)"><text x="6.1199951171875" y="0" font-family="Virgil, Segoe UI Emoji" font-size="16px" fill="#1e1e1e" text-anchor="middle" style="white-space: pre;" direction="ltr" dominant-baseline="text-before-edge">8</text></g><g transform="translate(1530.5624143311636 305.7941620470442) rotate(0 18.711990356445312 10)"><text x="18.711990356445312" y="0" font-family="Virgil, Segoe UI Emoji" font-size="16px" fill="#1e1e1e" text-anchor="middle" style="white-space: pre;" direction="ltr" dominant-baseline="text-before-edge">20%</text></g><g transform="translate(1387.904960324539 341.3238276391203) rotate(0 18.45598602294922 10)"><text x="18.45598602294922" y="0" font-family="Virgil, Segoe UI Emoji" font-size="16px" fill="#1e1e1e" text-anchor="middle" style="white-space: pre;" direction="ltr" dominant-baseline="text-before-edge">Busy</text></g><g stroke-linecap="round"><g transform="translate(1368.544764940356 332.7802971168578) rotate(0 110.00766703231841 -0.3861630813599959)"><path d="M-0.71 0.1 C35.75 0.28, 181.96 0.42, 218.59 0.43 M1.11 -0.89 C37.95 -0.98, 184.58 -1.03, 220.73 -1.2" stroke="#1e1e1e" stroke-width="1" fill="none"></path></g></g><mask></mask><g transform="translate(1465.2456374117444 341.8445304470431) rotate(0 7.6719970703125 10)"><text x="7.6719970703125" y="0" font-family="Virgil, Segoe UI Emoji" font-size="16px" fill="#1e1e1e" text-anchor="middle" style="white-space: pre;" direction="ltr" dominant-baseline="text-before-edge">10</text></g><g transform="translate(1530.8664395381904 344.4974595468757) rotate(0 18.15198516845703 10)"><text x="18.15198516845703" y="0" font-family="Virgil, Segoe UI Emoji" font-size="16px" fill="#1e1e1e" text-anchor="middle" style="white-space: pre;" direction="ltr" dominant-baseline="text-before-edge">25%</text></g><g transform="translate(1388.6256728260055 381.43796621081856) rotate(0 17.423995971679688 10)"><text x="17.423995971679688" y="0" font-family="Virgil, Segoe UI Emoji" font-size="16px" fill="#1e1e1e" text-anchor="middle" style="white-space: pre;" direction="ltr" dominant-baseline="text-before-edge">OOO</text></g><g stroke-linecap="round"><g transform="translate(1368.024062132433 368.725952887796) rotate(0 111.34207031435676 0.49060467925107787)"><path d="M-0.4 0.75 C36.8 0.52, 186.16 -0.19, 223.08 -0.22 M1.6 0.1 C38.73 0.55, 185.62 1.41, 222.6 1.15" stroke="#1e1e1e" stroke-width="1" fill="none"></path></g></g><mask></mask><g transform="translate(1467.6790616933015 379.66643252893095) rotate(0 5.447998046875 10)"><text x="5.447998046875" y="0" font-family="Virgil, Segoe UI Emoji" font-size="16px" fill="#1e1e1e" text-anchor="middle" style="white-space: pre;" direction="ltr" dominant-baseline="text-before-edge">3</text></g><g transform="translate(1530.5631383127627 381.5426788398795) rotate(0 18.81597900390625 10)"><text x="18.81597900390625" y="0" font-family="Virgil, Segoe UI Emoji" font-size="16px" fill="#1e1e1e" text-anchor="middle" style="white-space: pre;" direction="ltr" dominant-baseline="text-before-edge">7,5%</text></g><g transform="translate(1373.6350221166579 422.9076482855435) rotate(0 22.823989868164062 10)"><text x="22.823989868164062" y="0" font-family="Virgil, Segoe UI Emoji" font-size="16px" fill="#1e1e1e" text-anchor="middle" style="white-space: pre;" direction="ltr" dominant-baseline="text-before-edge">Total</text></g><g stroke-linecap="round"><g transform="translate(1367.8146368743128 413.11328688931553) rotate(0 112.4764160719676 0.4253812579395344)"><path d="M-0.28 -0.73 C37 -0.65, 185.68 -0.11, 222.84 0.04 M1.77 1.51 C39.53 1.76, 188 1.26, 225.24 1.22" stroke="#1e1e1e" stroke-width="1" fill="none"></path></g></g><mask></mask><g transform="translate(1465.4207187470492 421.5521047825175) rotate(0 10.623992919921875 10)"><text x="10.623992919921875" y="0" font-family="Virgil, Segoe UI Emoji" font-size="16px" fill="#1e1e1e" text-anchor="middle" style="white-space: pre;" direction="ltr" dominant-baseline="text-before-edge">40</text></g><g transform="translate(1534.110442710145 422.17752021950037) rotate(0 20.68798828125 10)"><text x="20.68798828125" y="0" font-family="Virgil, Segoe UI Emoji" font-size="16px" fill="#1e1e1e" text-anchor="middle" style="white-space: pre;" direction="ltr" dominant-baseline="text-before-edge">100%</text></g><g stroke-linecap="round" transform="translate(1368.8099063412799 476.8933593867828) rotate(0 111.94936321993657 29.39452553819558)"><path d="M14.7 0 M14.7 0 C89 2.44, 160.41 -0.55, 209.2 0 M14.7 0 C90.91 -0.22, 165.31 1, 209.2 0 M209.2 0 C220.1 1.59, 223.46 5.32, 223.9 14.7 M209.2 0 C218.32 0.23, 225.27 3.52, 223.9 14.7 M223.9 14.7 C225.46 27.02, 225.36 37.46, 223.9 44.09 M223.9 14.7 C224.17 26.25, 223.94 38.2, 223.9 44.09 M223.9 44.09 C224.67 52.52, 219.74 60.08, 209.2 58.79 M223.9 44.09 C225.99 55.82, 219.4 58.19, 209.2 58.79 M209.2 58.79 C163.23 61.79, 120.63 58.93, 14.7 58.79 M209.2 58.79 C141.86 59.9, 75.82 59.13, 14.7 58.79 M14.7 58.79 C5.14 58.46, 1.35 54.69, 0 44.09 M14.7 58.79 C2.97 61.06, -1.47 54.13, 0 44.09 M0 44.09 C-1.61 32.78, 1.28 26.94, 0 14.7 M0 44.09 C-0.71 33.74, 0.48 23.39, 0 14.7 M0 14.7 C0.74 5.84, 3.81 1.79, 14.7 0 M0 14.7 C-1.73 4.54, 4.62 -1.65, 14.7 0" stroke="#1e1e1e" stroke-width="1" fill="none"></path></g><g stroke-linecap="round"><g transform="translate(1388.8232003247326 534.4315795892082) rotate(0 45.55346286998406 -18.54810223003915)" fill-rule="evenodd"><path d="M8.7 -18.94 C8.7 -18.94, 8.7 -18.94, 8.7 -18.94 M8.7 -18.94 C8.7 -18.94, 8.7 -18.94, 8.7 -18.94 M1.71 -7.57 C9.43 -12.09, 11.21 -15.35, 17 -20.38 M3.4 -6.14 C5.81 -9.75, 9.67 -15.09, 17.09 -21.27 M2.38 2.18 C10.74 -8.14, 20.06 -16.74, 30.06 -28.23 M0.86 1.6 C7.67 -7.16, 14.23 -13.53, 27.64 -30.29 M6.35 2.61 C15.31 -6.4, 21.4 -17.6, 34.01 -29.95 M7.2 2.57 C16.51 -9.11, 25.59 -20.33, 33.86 -30.55 M11.25 0.88 C17.78 -4.81, 25.23 -12.72, 40.15 -33.18 M13.04 0.91 C23.62 -11.06, 34.9 -23.74, 41.44 -32.17 M16.97 0.6 C25.64 -9.93, 33.37 -17.86, 47.34 -31.89 M18.09 2.21 C25.55 -8.34, 36.87 -19.61, 46.25 -31.82 M23.65 0.99 C32.59 -11.98, 43.75 -22.14, 51.86 -32.45 M23.67 0.68 C33 -9.09, 41.64 -20.56, 53.71 -33.92 M27.72 2.65 C38.27 -11.11, 51.01 -24.85, 57.47 -33.92 M28.27 1.82 C37.68 -10.56, 47.04 -21.3, 57.35 -32.93 M34.51 3.2 C42.04 -8.05, 49.76 -14.19, 63.91 -32.71 M32.72 2.05 C44.2 -12.26, 56.63 -23.66, 62.94 -32.98 M38.3 2.97 C46.31 -8.56, 55.03 -16.44, 67.68 -33.26 M37.71 1.41 C47.39 -6.94, 55.64 -16.56, 69.71 -34.69 M42.85 0.7 C51.44 -9.19, 61.09 -20.41, 74.63 -36.2 M44.93 1.15 C53.56 -9.84, 63.87 -22.37, 74.5 -34.28 M49.48 3.21 C54.89 -8.27, 65.53 -16.28, 79.93 -37.38 M48.62 2.48 C58.3 -9.88, 67.64 -19.24, 82.28 -36.65 M53.01 1.87 C59.91 -6.9, 70.38 -17.97, 86.79 -36.66 M54.08 2.89 C60.78 -5.14, 69.43 -13.97, 86.39 -35.21 M61.05 2.49 C70.9 -8.37, 79.09 -21.69, 88.99 -33.02 M60.45 1.09 C66.88 -7.87, 75.77 -16.76, 89.55 -33.03 M64.03 0.57 C75.29 -12.04, 87.69 -22.19, 91.58 -31.09 M65.33 2.17 C74.37 -9.47, 83.17 -19.45, 92.2 -30.38 M71.14 1.91 C80.58 -10.75, 88.95 -17.52, 94.88 -24.73 M72.19 -0.74 C79.88 -10.19, 89.96 -21.51, 94.93 -26.35 M78.33 0.13 C82.29 -4.37, 83.58 -9.96, 92.48 -17.04 M76.95 -1.08 C80.65 -4.42, 85.04 -9.54, 94.06 -17.91 M0 0 C0 0, 0 0, 0 0 M0 0 C0 0, 0 0, 0 0 M6.73 -0.27 C4.09 -1.88, 2.24 -3.14, 2.28 -3.52 M6.6 0.26 C5.05 -0.52, 4.06 -1.7, 1.77 -3.45 M11.92 0.1 C7.99 -2.21, 5.5 -5.54, 3.68 -6.6 M11.91 -0.33 C10.05 -2.33, 7.67 -4.58, 4.21 -7.47 M18.52 -1.51 C15.38 -4.34, 7.7 -9.17, 5.51 -12.26 M18.86 -0.43 C14.99 -4.17, 9.41 -8.03, 4.44 -11.83 M23.6 -1.05 C20.06 -5.29, 11.52 -12.46, 6.68 -15.57 M25.62 0.43 C18.83 -4.34, 13.12 -9.75, 7.41 -14.66 M29.63 -1.72 C23.25 -5.53, 17.96 -10.31, 6.65 -18.28 M29.65 0.62 C25.6 -3.89, 19.62 -9.16, 9 -19.78 M37.42 -0.33 C31.91 -5.57, 22.93 -10.13, 10.51 -23.17 M36.33 1.13 C28.06 -8.54, 19.03 -16.94, 10.91 -23.01 M44.76 -0.46 C32.9 -7.01, 24.61 -15.79, 14.8 -24.04 M43.89 1.51 C37.73 -5.43, 30.12 -10.11, 13.16 -24.12 M50.01 1.03 C42.02 -6.48, 35.62 -10.74, 18.73 -24.84 M48.56 0.39 C36.27 -10.62, 26.13 -21.42, 17.64 -25.9 M53.65 1.68 C44.93 -8.04, 36.94 -17.74, 20.17 -28.52 M54.72 1.13 C48.02 -5.66, 40.19 -12.86, 21.65 -28.11 M62.37 0.45 C51.38 -8.61, 45.16 -12.29, 27.49 -31.46 M60.4 -0.14 C50.41 -9.49, 37.85 -18.19, 26.34 -29.88 M64.07 -1.22 C56.21 -10.45, 43.6 -20.37, 29.88 -34.39 M64.95 -1.56 C55.07 -10.37, 43.5 -20.46, 28.46 -33.71 M72.28 -1.17 C56.81 -13.79, 46.02 -24.46, 36.2 -34.12 M70.89 -2.28 C59.7 -11.03, 51.15 -20.28, 33.77 -33.18 M76.34 -2.66 C68.94 -9.22, 59.65 -15.34, 37.93 -36.35 M74.67 -2.65 C62.87 -13.75, 48.31 -25.34, 39.59 -34.84 M79.82 -2.85 C72.21 -13.67, 60.24 -23.78, 45.33 -34.8 M80.61 -3.72 C74.24 -11.51, 66.22 -18.33, 43.42 -35.35 M83.52 -6.29 C74.45 -15.64, 60.11 -27.61, 48.25 -35.48 M84.41 -6.79 C72.76 -17.12, 58.43 -27.28, 49.27 -36.77 M88.58 -8.72 C75.61 -18.77, 62.59 -28.6, 54.63 -35.66 M87.83 -8.21 C79.16 -15.81, 71.2 -23.1, 56.77 -35.6 M91.48 -10.62 C83.41 -20.68, 71.97 -26.59, 63.12 -36.82 M90.2 -10.97 C83.24 -18.41, 73.9 -24.66, 61.21 -36.69 M93.18 -14.19 C87.81 -18.36, 78.73 -24.69, 66.11 -35.7 M93.08 -14.74 C82.83 -22.86, 74.35 -30.17, 67.24 -36.4 M92.85 -19.03 C87.07 -25.73, 78.7 -31.18, 72.06 -35.21 M92.55 -19.52 C88.1 -23.93, 84.99 -27.57, 72.6 -36.52 M91.62 -24.58 C89.3 -26.73, 86.34 -29.53, 77.69 -38.06 M92.36 -25.1 C89.07 -27.99, 85.78 -32.65, 78.79 -37.89 M94.81 -31.27 C92.77 -31.57, 90.76 -32.6, 83.1 -40.23 M93.68 -29.35 C91.05 -31.97, 88.75 -34.4, 82.56 -39.29" stroke="#15aabf" stroke-width="0.5" fill="none"></path><path d="M-0.98 0.31 C1.51 -3.56, 6.42 -17.46, 14.17 -23.33 C21.91 -29.2, 33.29 -33.14, 45.51 -34.91 C57.72 -36.67, 81.39 -39.31, 87.47 -33.91 C93.55 -28.51, 96.46 -8.27, 81.98 -2.52 C67.5 3.24, 14.39 0.19, 0.58 0.62 M0.7 -0.58 C3.16 -4.74, 6.16 -19.3, 13.58 -24.9 C21.01 -30.5, 32.98 -32.35, 45.25 -34.18 C57.52 -36.01, 81.22 -41.22, 87.2 -35.88 C93.17 -30.54, 95.86 -8.1, 81.1 -2.13 C66.34 3.83, 12.27 -0.24, -1.36 -0.09" stroke="#1e1e1e" stroke-width="1" fill="none"></path></g></g><mask></mask><g stroke-linecap="round"><g transform="translate(1477.0067769393188 495.65582249626914) rotate(0 38.00650261403098 20.604624368883833)" fill-rule="evenodd"><path d="M0 0 C0 0, 0 0, 0 0 M0 0 C0 0, 0 0, 0 0 M0.98 4.61 C2.42 3.14, 4.15 1.91, 5.41 0.06 M1.2 4.77 C1.95 4.16, 2.75 3.01, 4.78 0.27 M2.02 10.03 C3.04 8.14, 6.66 5.14, 10.54 1.33 M1.63 10.47 C3.74 7.83, 7.11 4.32, 10.44 0.62 M3.83 15.64 C8.67 12.09, 11.76 5.84, 16.6 -1.26 M1.71 15.69 C5.42 11.25, 7.9 7.7, 16.12 0.56 M1.29 20.46 C11.06 12.03, 16.47 4.84, 20.49 -1.53 M2.01 22.04 C8.36 14.72, 12.57 9.45, 20.58 0.19 M2.4 26.19 C12.9 17.31, 20.31 8.95, 25.85 0.42 M4.5 25.11 C11.74 17.21, 21.85 6.08, 26.8 -0.59 M-1.3 38.24 C7.13 29.07, 12.54 21.99, 31.25 2.16 M0.29 36.54 C7.79 28.8, 14.93 19.96, 29.81 2.37 M2.85 39.39 C10.91 31.06, 17.22 23.65, 33.79 2.56 M1.94 40.36 C14.06 26.64, 26.49 13.75, 34.3 2.37 M6.17 40.59 C19.5 26.36, 31.01 11.9, 40.19 2.39 M7.05 39.4 C20.04 26.56, 32.23 11.6, 38.62 2.92 M10.71 40.93 C23.82 27.24, 36.17 14.84, 44.47 5.59 M11.26 41.67 C20.34 32.06, 27.48 23.59, 42.49 4.65 M17.56 37.89 C25.23 32.1, 28.86 26.79, 44.93 8.63 M18.53 40.24 C26.84 28.39, 36.82 18.88, 46.86 7.08 M23.34 39.48 C31.83 30.88, 42.19 18.03, 49.17 11 M22.62 39.88 C32.17 29.11, 42.86 18.23, 51.01 8.75 M29.1 40.75 C36.37 30.8, 39.88 23.88, 55.17 13.1 M29.91 39.11 C39.34 28.4, 47.35 18.3, 54.48 11.57 M35.44 40.91 C42.95 33.8, 46.18 22.27, 56.25 14.28 M33.55 39.81 C39.68 34.32, 43.07 29.2, 56.13 14.38 M37.47 38.57 C44.46 32.49, 51.46 27.8, 59.43 17.1 M38.34 40.06 C46.15 32.12, 52.22 25.72, 61.34 15.84 M46.5 41.36 C48.08 35.21, 55.61 31.43, 63.18 17.22 M45.41 40.22 C52.45 31.6, 58.75 22.56, 63.8 17.73 M49.78 41.49 C55.05 32.94, 61.63 26.59, 67.04 20.41 M49.95 40.07 C55.87 32.88, 63.39 23.76, 68.1 20.57 M54.79 41.77 C58.22 35.64, 64.12 32.46, 70.65 22.39 M54.4 39.35 C59.15 35.2, 62.43 32.2, 70.7 22.98 M61.64 38.97 C63.24 36.27, 70.12 29.76, 71.46 26.38 M60.92 40.64 C64.51 35.16, 69.83 30.03, 72.64 25.7 M64.52 40.83 C70.41 34.45, 72.12 30.99, 74.74 28.48 M65.41 39.4 C69.95 36.05, 73.21 31.95, 75.31 28.59 M71.7 38.14 C74.72 36.87, 76.65 34.57, 77.88 31.32 M72.3 38.6 C74.11 36.84, 76.76 34.05, 78.21 32.01 M-1.02 36.23 C-1.02 36.23, -1.02 36.23, -1.02 36.23 M-1.02 36.23 C-1.02 36.23, -1.02 36.23, -1.02 36.23 M3.11 34.69 C2.18 33.71, 1.18 32.94, 0.72 32.65 M3.25 34.41 C2.24 33.72, 1.47 33.19, 0.9 32.61 M10.65 34.68 C7.89 33.69, 4.73 31.13, 3.28 29.11 M10.68 35.25 C8.4 33.91, 6.47 32.13, 2.72 29.11 M19.79 37.12 C16.39 31.93, 10.02 28.38, 3.93 26.09 M19.22 37.66 C16.73 34.55, 12.25 31.76, 4.11 25.77 M26.89 36.59 C18.14 31.79, 12.25 28.67, 3.17 20.03 M24.41 37.81 C17.59 30.93, 10.55 25.01, 4.31 17.95 M33.31 38.29 C18.64 26.71, 7.27 19.68, 2.52 14.28 M30.77 37.51 C24.41 32.39, 18.33 26.45, 2.74 13.02 M39.16 40.34 C27.24 27.67, 10.92 15.73, 2.32 8.53 M37.36 38.59 C25.38 28.24, 13.32 18.12, 2.69 7.16 M43.5 39.6 C32 25.67, 16.01 13.74, 1.99 2.41 M43.87 38.8 C32.73 28.97, 21.16 20.21, -0.03 1.45 M50.45 37.62 C31.7 21.38, 13.03 6.11, 1.27 -4.7 M49.76 38.36 C31.22 22.66, 13.96 7.14, 2.11 -2.76 M57.93 36.63 C45.73 29.26, 29.31 16.19, 8.35 -0.86 M56.95 39.38 C44.15 26.23, 29.06 16.02, 9.48 -2.5 M64.07 38.22 C43.41 21.2, 27.56 8.93, 13.02 -4.25 M63.17 39.17 C50.36 27.3, 36.39 16.11, 14.4 -2.36 M65.41 36.63 C57.42 25.84, 43.11 17.43, 19.96 -3.99 M66.19 36.97 C52.57 24.64, 36.49 11.76, 21.39 -2.77 M74.07 39.33 C55.57 23.19, 37.07 4.98, 30.88 -1.43 M73.93 37.15 C61.21 27.22, 47.78 16.45, 29.28 -1.72 M79.44 33.86 C63.34 23.37, 49.29 11.2, 39.45 0.52 M78.07 35.51 C64.84 24.66, 52.99 13.76, 37.1 0.37 M78.88 28.28 C67.41 20.63, 58.16 11.87, 53.27 9.92 M77.82 30.28 C70.9 24.94, 62.43 18.18, 54.08 8.77" stroke="#fa5252" stroke-width="0.5" fill="none"></path><path d="M-0.29 1.19 C6.25 1.53, 26.52 -1.96, 37.99 1.28 C49.47 4.52, 62.76 14.21, 68.57 20.61 C74.39 27.02, 83.61 36.72, 72.86 39.71 C62.11 42.71, 15.71 41.03, 4.08 38.58 C-7.54 36.14, 3.63 31.32, 3.11 25.04 C2.59 18.76, 1.61 5.08, 0.98 0.89 M1.76 0.77 C8.34 1.33, 26.52 -0.46, 37.62 2.5 C48.71 5.47, 62.52 12.73, 68.35 18.59 C74.18 24.44, 83.54 34.21, 72.61 37.65 C61.69 41.08, 14.19 40.92, 2.79 39.2 C-8.62 37.48, 4.9 33.88, 4.18 27.35 C3.46 20.81, -1.1 4.64, -1.52 0.01" stroke="#1e1e1e" stroke-width="1" fill="none"></path></g></g><mask></mask></svg>